{"glyphs":{"0":{"ha":892,"x_min":106,"x_max":786,"o":"m 446 -17 q 282 27 348 -17 q 178 144 217 71 q 122 307 139 217 q 106 486 106 396 q 115 620 106 550 q 147 755 124 690 q 208 874 169 821 q 305 958 247 926 q 446 989 364 989 q 609 945 544 989 q 714 827 675 901 q 769 665 753 753 q 786 486 786 576 q 776 352 786 422 q 744 217 767 283 q 683 99 722 151 q 585 15 644 46 q 446 -17 527 -17 m 446 97 q 553 133 512 97 q 618 227 595 169 q 650 353 641 285 q 658 486 658 421 q 649 627 658 558 q 616 753 639 697 q 551 843 592 810 q 446 876 510 876 q 337 841 379 876 q 272 747 294 805 q 240 620 249 688 q 231 486 231 551 q 240 345 231 415 q 274 220 250 276 q 340 131 298 164 q 446 97 382 97 z "},"1":{"ha":518,"x_min":56,"x_max":339,"o":"m 218 0 l 218 775 l 56 775 l 56 857 q 142 868 103 857 q 209 903 181 878 q 251 972 237 928 l 339 972 l 339 0 l 218 0 z "},"2":{"ha":850,"x_min":97,"x_max":751,"o":"m 97 0 q 125 169 97 96 q 198 298 152 242 q 302 397 244 354 q 419 475 360 440 q 517 539 472 506 q 590 615 562 573 q 618 711 618 656 q 567 829 618 781 q 428 876 515 876 q 290 837 338 876 q 221 733 242 798 l 113 782 q 226 930 141 872 q 432 989 311 989 q 599 953 529 989 q 706 855 669 918 q 743 708 743 792 q 706 564 743 623 q 607 459 668 504 q 474 372 545 414 q 365 300 414 338 q 282 219 315 263 q 238 118 249 174 l 751 118 l 751 0 l 97 0 z "},"3":{"ha":836,"x_min":72,"x_max":739,"o":"m 404 -17 q 199 41 283 -17 q 72 210 115 99 l 185 256 q 404 99 249 99 q 557 145 501 99 q 613 272 613 192 q 559 402 613 356 q 411 449 506 449 l 342 449 l 342 563 l 404 563 q 528 605 481 563 q 575 717 575 648 q 529 832 575 789 q 408 875 483 875 q 295 842 345 875 q 215 744 244 808 l 103 788 q 220 936 140 883 q 408 989 301 989 q 559 955 493 989 q 664 863 626 922 q 701 731 701 805 q 668 607 701 663 q 576 519 635 550 q 697 425 655 488 q 739 276 739 362 q 696 125 739 191 q 578 21 653 59 q 404 -17 502 -17 z "},"4":{"ha":863,"x_min":35,"x_max":790,"o":"m 532 0 l 532 242 l 35 242 l 35 314 l 539 972 l 653 972 l 653 350 l 790 350 l 790 242 l 653 242 l 653 0 l 532 0 m 193 350 l 532 350 l 532 801 l 193 350 z "},"5":{"ha":863,"x_min":93,"x_max":767,"o":"m 404 -17 q 264 0 326 -17 q 160 41 203 16 q 93 90 117 65 l 165 183 q 225 140 192 160 q 300 107 257 119 q 403 94 343 94 q 526 124 472 94 q 610 202 579 153 q 640 313 640 251 q 616 420 640 374 q 546 492 591 466 q 442 518 501 518 q 324 494 373 518 q 246 439 274 470 l 126 481 l 183 972 l 703 972 l 703 860 l 289 860 l 251 567 q 343 615 289 597 q 456 633 397 633 q 620 591 551 633 q 728 478 690 549 q 767 321 767 407 q 722 152 767 228 q 596 29 678 75 q 404 -17 515 -17 z "},"6":{"ha":829,"x_min":90,"x_max":743,"o":"m 419 -17 q 276 12 338 -17 q 173 92 214 40 q 111 211 131 143 q 90 360 90 280 q 151 641 90 510 q 327 864 213 772 q 604 989 442 956 l 604 882 q 442 812 518 862 q 311 690 365 763 q 236 528 256 617 q 322 585 267 563 q 449 607 377 607 q 599 566 533 607 q 705 455 666 524 q 743 301 743 385 q 701 137 743 209 q 585 24 658 65 q 419 -17 512 -17 m 418 97 q 525 122 478 97 q 597 191 571 147 q 622 294 622 235 q 566 440 622 385 q 418 494 510 494 q 312 470 358 494 q 239 400 265 445 q 213 294 213 355 q 240 191 213 235 q 313 122 267 147 q 418 97 360 97 z "},"7":{"ha":725,"x_min":49,"x_max":667,"o":"m 243 0 q 273 302 244 159 q 364 583 301 446 q 532 860 427 720 l 49 860 l 49 972 l 667 972 l 667 863 q 517 641 575 757 q 426 411 458 526 q 380 191 393 296 q 367 0 367 85 l 243 0 z "},"8":{"ha":849,"x_min":97,"x_max":751,"o":"m 424 -17 q 254 22 328 -17 q 139 127 181 60 q 97 279 97 194 q 144 437 97 370 q 264 535 191 503 q 197 585 224 555 q 155 654 169 616 q 140 736 140 692 q 176 864 140 806 q 276 955 213 921 q 424 989 340 989 q 572 955 508 989 q 672 864 636 921 q 708 736 708 806 q 694 654 708 692 q 652 585 680 616 q 583 535 624 555 q 705 436 658 503 q 751 279 751 370 q 710 127 751 194 q 594 22 668 60 q 424 -17 520 -17 m 424 97 q 528 120 482 97 q 600 187 574 144 q 626 289 626 230 q 601 385 626 341 q 529 456 575 429 q 424 482 483 482 q 318 456 364 482 q 248 385 273 429 q 222 289 222 341 q 248 187 222 230 q 320 120 274 144 q 424 97 365 97 m 424 583 q 541 625 497 583 q 586 726 586 666 q 540 836 586 795 q 424 876 494 876 q 308 836 354 876 q 263 726 263 795 q 307 625 263 666 q 424 583 351 583 z "},"9":{"ha":829,"x_min":79,"x_max":733,"o":"m 242 -17 l 242 96 q 399 157 326 111 q 523 276 472 202 q 590 450 574 350 q 507 391 561 415 q 378 367 452 367 q 225 407 293 367 q 118 516 158 447 q 79 672 79 585 q 122 835 79 764 q 240 948 165 907 q 410 989 315 989 q 592 939 520 989 q 699 805 664 890 q 733 613 733 719 q 676 318 733 453 q 508 94 618 183 q 242 -17 398 6 m 406 479 q 511 504 465 479 q 583 574 557 529 q 608 678 608 619 q 582 778 608 734 q 510 847 556 822 q 406 872 464 872 q 300 847 345 872 q 228 778 254 822 q 203 678 203 734 q 227 573 203 618 q 298 504 252 528 q 406 479 343 479 z "},"A":{"ha":943,"x_min":71,"x_max":872,"o":"m 71 0 l 415 972 l 528 972 l 872 0 l 749 0 l 665 238 l 279 238 l 197 0 l 71 0 m 315 344 l 628 344 l 503 704 q 492 736 498 718 q 481 773 486 755 q 472 803 475 790 q 464 773 469 790 q 452 736 458 755 q 442 704 447 718 l 315 344 z "},"Á":{"ha":943,"x_min":71,"x_max":872,"o":"m 71 0 l 415 972 l 528 972 l 872 0 l 749 0 l 665 238 l 279 238 l 197 0 l 71 0 m 315 344 l 628 344 l 503 704 q 492 736 498 718 q 481 773 486 755 q 472 803 475 790 q 464 773 469 790 q 452 736 458 755 q 442 704 447 718 l 315 344 m 386 1063 l 583 1279 l 756 1279 l 508 1063 l 386 1063 z "},"Ă":{"ha":943,"x_min":71,"x_max":872,"o":"m 71 0 l 415 972 l 528 972 l 872 0 l 749 0 l 665 238 l 279 238 l 197 0 l 71 0 m 315 344 l 628 344 l 503 704 q 492 736 498 718 q 481 773 486 755 q 472 803 475 790 q 464 773 469 790 q 452 736 458 755 q 442 704 447 718 l 315 344 m 470 1067 q 336 1098 389 1067 q 257 1180 283 1128 q 231 1293 231 1231 l 340 1293 q 354 1227 340 1255 q 398 1183 369 1199 q 470 1168 427 1168 q 543 1183 513 1168 q 587 1227 572 1199 q 602 1293 602 1255 l 710 1293 q 684 1180 710 1231 q 605 1098 658 1128 q 470 1067 551 1067 z "},"Ắ":{"ha":943,"x_min":71,"x_max":872,"o":"m 71 0 l 415 972 l 528 972 l 872 0 l 749 0 l 665 238 l 279 238 l 197 0 l 71 0 m 315 344 l 628 344 l 503 704 q 492 736 498 718 q 481 773 486 755 q 472 803 475 790 q 464 773 469 790 q 452 736 458 755 q 442 704 447 718 l 315 344 m 470 1067 q 336 1098 389 1067 q 257 1180 283 1128 q 231 1293 231 1231 l 340 1293 q 354 1227 340 1255 q 398 1183 369 1199 q 470 1168 427 1168 q 543 1183 513 1168 q 587 1227 572 1199 q 602 1293 602 1255 l 710 1293 q 684 1180 710 1231 q 605 1098 658 1128 q 470 1067 551 1067 m 405 1319 l 602 1536 l 774 1536 l 527 1319 l 405 1319 z "},"Ặ":{"ha":943,"x_min":71,"x_max":872,"o":"m 71 0 l 415 972 l 528 972 l 872 0 l 749 0 l 665 238 l 279 238 l 197 0 l 71 0 m 315 344 l 628 344 l 503 704 q 492 736 498 718 q 481 773 486 755 q 472 803 475 790 q 464 773 469 790 q 452 736 458 755 q 442 704 447 718 l 315 344 m 471 -275 q 417 -253 439 -275 q 394 -199 394 -231 q 417 -144 394 -166 q 471 -122 439 -122 q 525 -144 503 -122 q 547 -199 547 -166 q 525 -253 547 -231 q 471 -275 503 -275 m 470 1067 q 336 1098 389 1067 q 257 1180 283 1128 q 231 1293 231 1231 l 340 1293 q 354 1227 340 1255 q 398 1183 369 1199 q 470 1168 427 1168 q 543 1183 513 1168 q 587 1227 572 1199 q 602 1293 602 1255 l 710 1293 q 684 1180 710 1231 q 605 1098 658 1128 q 470 1067 551 1067 z "},"Ằ":{"ha":943,"x_min":71,"x_max":872,"o":"m 71 0 l 415 972 l 528 972 l 872 0 l 749 0 l 665 238 l 279 238 l 197 0 l 71 0 m 315 344 l 628 344 l 503 704 q 492 736 498 718 q 481 773 486 755 q 472 803 475 790 q 464 773 469 790 q 452 736 458 755 q 442 704 447 718 l 315 344 m 470 1067 q 336 1098 389 1067 q 257 1180 283 1128 q 231 1293 231 1231 l 340 1293 q 354 1227 340 1255 q 398 1183 369 1199 q 470 1168 427 1168 q 543 1183 513 1168 q 587 1227 572 1199 q 602 1293 602 1255 l 710 1293 q 684 1180 710 1231 q 605 1098 658 1128 q 470 1067 551 1067 m 415 1319 l 167 1536 l 340 1536 l 537 1319 l 415 1319 z "},"Ẳ":{"ha":943,"x_min":71,"x_max":872,"o":"m 71 0 l 415 972 l 528 972 l 872 0 l 749 0 l 665 238 l 279 238 l 197 0 l 71 0 m 315 344 l 628 344 l 503 704 q 492 736 498 718 q 481 773 486 755 q 472 803 475 790 q 464 773 469 790 q 452 736 458 755 q 442 704 447 718 l 315 344 m 470 1067 q 336 1098 389 1067 q 257 1180 283 1128 q 231 1293 231 1231 l 340 1293 q 354 1227 340 1255 q 398 1183 369 1199 q 470 1168 427 1168 q 543 1183 513 1168 q 587 1227 572 1199 q 602 1293 602 1255 l 710 1293 q 684 1180 710 1231 q 605 1098 658 1128 q 470 1067 551 1067 m 423 1292 q 434 1355 423 1328 q 470 1401 444 1381 q 492 1423 486 1414 q 498 1440 498 1431 q 473 1463 498 1463 q 417 1418 443 1463 l 349 1463 q 395 1529 362 1504 q 473 1554 429 1554 q 559 1522 525 1554 q 594 1442 594 1490 q 575 1377 594 1401 q 538 1339 557 1353 q 523 1319 526 1330 q 520 1292 520 1308 l 423 1292 z "},"Ẵ":{"ha":943,"x_min":71,"x_max":872,"o":"m 71 0 l 415 972 l 528 972 l 872 0 l 749 0 l 665 238 l 279 238 l 197 0 l 71 0 m 315 344 l 628 344 l 503 704 q 492 736 498 718 q 481 773 486 755 q 472 803 475 790 q 464 773 469 790 q 452 736 458 755 q 442 704 447 718 l 315 344 m 470 1067 q 336 1098 389 1067 q 257 1180 283 1128 q 231 1293 231 1231 l 340 1293 q 354 1227 340 1255 q 398 1183 369 1199 q 470 1168 427 1168 q 543 1183 513 1168 q 587 1227 572 1199 q 602 1293 602 1255 l 710 1293 q 684 1180 710 1231 q 605 1098 658 1128 q 470 1067 551 1067 m 581 1382 q 509 1394 542 1382 q 448 1420 476 1407 q 400 1441 423 1432 q 352 1450 376 1450 q 308 1434 326 1450 q 287 1388 289 1419 l 224 1388 q 239 1477 224 1440 q 283 1534 253 1515 q 362 1554 313 1554 q 436 1541 402 1554 q 499 1515 469 1528 q 546 1494 523 1503 q 591 1485 569 1485 q 636 1501 617 1485 q 656 1549 654 1517 l 719 1549 q 705 1459 719 1497 q 660 1402 690 1422 q 581 1382 630 1382 z "},"Ǎ":{"ha":943,"x_min":71,"x_max":872,"o":"m 71 0 l 415 972 l 528 972 l 872 0 l 749 0 l 665 238 l 279 238 l 197 0 l 71 0 m 315 344 l 628 344 l 503 704 q 492 736 498 718 q 481 773 486 755 q 472 803 475 790 q 464 773 469 790 q 452 736 458 755 q 442 704 447 718 l 315 344 m 413 1063 l 210 1279 l 325 1279 l 471 1154 l 617 1279 l 731 1279 l 528 1063 l 413 1063 z "},"Â":{"ha":943,"x_min":71,"x_max":872,"o":"m 71 0 l 415 972 l 528 972 l 872 0 l 749 0 l 665 238 l 279 238 l 197 0 l 71 0 m 315 344 l 628 344 l 503 704 q 492 736 498 718 q 481 773 486 755 q 472 803 475 790 q 464 773 469 790 q 452 736 458 755 q 442 704 447 718 l 315 344 m 210 1063 l 415 1279 l 528 1279 l 731 1063 l 617 1063 l 472 1188 l 326 1063 l 210 1063 z "},"Ấ":{"ha":943,"x_min":71,"x_max":985,"o":"m 71 0 l 415 972 l 528 972 l 872 0 l 749 0 l 665 238 l 279 238 l 197 0 l 71 0 m 315 344 l 628 344 l 503 704 q 492 736 498 718 q 481 773 486 755 q 472 803 475 790 q 464 773 469 790 q 452 736 458 755 q 442 704 447 718 l 315 344 m 210 1063 l 415 1279 l 528 1279 l 731 1063 l 617 1063 l 472 1188 l 326 1063 l 210 1063 m 616 1257 l 813 1474 l 985 1474 l 738 1257 l 616 1257 z "},"Ậ":{"ha":943,"x_min":71,"x_max":872,"o":"m 71 0 l 415 972 l 528 972 l 872 0 l 749 0 l 665 238 l 279 238 l 197 0 l 71 0 m 315 344 l 628 344 l 503 704 q 492 736 498 718 q 481 773 486 755 q 472 803 475 790 q 464 773 469 790 q 452 736 458 755 q 442 704 447 718 l 315 344 m 471 -275 q 417 -253 439 -275 q 394 -199 394 -231 q 417 -144 394 -166 q 471 -122 439 -122 q 525 -144 503 -122 q 547 -199 547 -166 q 525 -253 547 -231 q 471 -275 503 -275 m 210 1063 l 415 1279 l 528 1279 l 731 1063 l 617 1063 l 472 1188 l 326 1063 l 210 1063 z "},"Ầ":{"ha":943,"x_min":71,"x_max":872,"o":"m 71 0 l 415 972 l 528 972 l 872 0 l 749 0 l 665 238 l 279 238 l 197 0 l 71 0 m 315 344 l 628 344 l 503 704 q 492 736 498 718 q 481 773 486 755 q 472 803 475 790 q 464 773 469 790 q 452 736 458 755 q 442 704 447 718 l 315 344 m 210 1063 l 415 1279 l 528 1279 l 731 1063 l 617 1063 l 472 1188 l 326 1063 l 210 1063 m 687 1257 l 440 1474 l 612 1474 l 809 1257 l 687 1257 z "},"Ẩ":{"ha":943,"x_min":71,"x_max":872,"o":"m 71 0 l 415 972 l 528 972 l 872 0 l 749 0 l 665 238 l 279 238 l 197 0 l 71 0 m 315 344 l 628 344 l 503 704 q 492 736 498 718 q 481 773 486 755 q 472 803 475 790 q 464 773 469 790 q 452 736 458 755 q 442 704 447 718 l 315 344 m 210 1063 l 415 1279 l 528 1279 l 731 1063 l 617 1063 l 472 1188 l 326 1063 l 210 1063 m 422 1333 q 433 1396 422 1370 q 469 1443 444 1422 q 491 1464 485 1456 q 497 1482 497 1473 q 472 1504 497 1504 q 417 1460 442 1504 l 349 1504 q 395 1571 361 1546 q 472 1596 428 1596 q 559 1564 524 1596 q 593 1483 593 1531 q 575 1419 593 1443 q 538 1381 556 1395 q 522 1360 525 1372 q 519 1333 519 1349 l 422 1333 z "},"Ẫ":{"ha":943,"x_min":71,"x_max":872,"o":"m 71 0 l 415 972 l 528 972 l 872 0 l 749 0 l 665 238 l 279 238 l 197 0 l 71 0 m 315 344 l 628 344 l 503 704 q 492 736 498 718 q 481 773 486 755 q 472 803 475 790 q 464 773 469 790 q 452 736 458 755 q 442 704 447 718 l 315 344 m 210 1063 l 415 1279 l 528 1279 l 731 1063 l 617 1063 l 472 1188 l 326 1063 l 210 1063 m 581 1368 q 509 1381 542 1368 q 448 1406 476 1393 q 400 1427 423 1418 q 352 1436 376 1436 q 308 1420 326 1436 q 287 1374 289 1405 l 224 1374 q 239 1463 224 1426 q 283 1520 253 1501 q 362 1540 313 1540 q 436 1527 402 1540 q 499 1501 469 1515 q 546 1480 523 1489 q 591 1471 569 1471 q 636 1487 617 1471 q 656 1535 654 1503 l 719 1535 q 705 1445 719 1483 q 660 1388 690 1408 q 581 1368 630 1368 z "},"Ȁ":{"ha":943,"x_min":31,"x_max":872,"o":"m 71 0 l 415 972 l 528 972 l 872 0 l 749 0 l 665 238 l 279 238 l 197 0 l 71 0 m 315 344 l 628 344 l 503 704 q 492 736 498 718 q 481 773 486 755 q 472 803 475 790 q 464 773 469 790 q 452 736 458 755 q 442 704 447 718 l 315 344 m 278 1063 l 31 1279 l 203 1279 l 400 1063 l 278 1063 m 561 1063 l 314 1279 l 486 1279 l 683 1063 l 561 1063 z "},"Ä":{"ha":943,"x_min":71,"x_max":872,"o":"m 71 0 l 415 972 l 528 972 l 872 0 l 749 0 l 665 238 l 279 238 l 197 0 l 71 0 m 315 344 l 628 344 l 503 704 q 492 736 498 718 q 481 773 486 755 q 472 803 475 790 q 464 773 469 790 q 452 736 458 755 q 442 704 447 718 l 315 344 m 600 1094 q 546 1117 569 1094 q 524 1171 524 1139 q 546 1225 524 1203 q 600 1247 569 1247 q 655 1225 633 1247 q 676 1171 676 1203 q 655 1117 676 1139 q 600 1094 633 1094 m 342 1094 q 288 1117 310 1094 q 265 1171 265 1139 q 288 1225 265 1203 q 342 1247 310 1247 q 396 1225 374 1247 q 418 1171 418 1203 q 396 1117 418 1139 q 342 1094 374 1094 z "},"Ǟ":{"ha":943,"x_min":71,"x_max":872,"o":"m 71 0 l 415 972 l 528 972 l 872 0 l 749 0 l 665 238 l 279 238 l 197 0 l 71 0 m 315 344 l 628 344 l 503 704 q 492 736 498 718 q 481 773 486 755 q 472 803 475 790 q 464 773 469 790 q 452 736 458 755 q 442 704 447 718 l 315 344 m 600 1094 q 546 1117 569 1094 q 524 1171 524 1139 q 546 1225 524 1203 q 600 1247 569 1247 q 655 1225 633 1247 q 676 1171 676 1203 q 655 1117 676 1139 q 600 1094 633 1094 m 342 1094 q 288 1117 310 1094 q 265 1171 265 1139 q 288 1225 265 1203 q 342 1247 310 1247 q 396 1225 374 1247 q 418 1171 418 1203 q 396 1117 418 1139 q 342 1094 374 1094 m 242 1375 l 242 1478 l 700 1478 l 700 1375 l 242 1375 z "},"Ȧ":{"ha":943,"x_min":71,"x_max":872,"o":"m 71 0 l 415 972 l 528 972 l 872 0 l 749 0 l 665 238 l 279 238 l 197 0 l 71 0 m 315 344 l 628 344 l 503 704 q 492 736 498 718 q 481 773 486 755 q 472 803 475 790 q 464 773 469 790 q 452 736 458 755 q 442 704 447 718 l 315 344 m 471 1094 q 417 1117 439 1094 q 394 1171 394 1139 q 417 1225 394 1203 q 471 1247 439 1247 q 525 1225 503 1247 q 547 1171 547 1203 q 525 1117 547 1139 q 471 1094 503 1094 z "},"Ạ":{"ha":943,"x_min":71,"x_max":872,"o":"m 71 0 l 415 972 l 528 972 l 872 0 l 749 0 l 665 238 l 279 238 l 197 0 l 71 0 m 315 344 l 628 344 l 503 704 q 492 736 498 718 q 481 773 486 755 q 472 803 475 790 q 464 773 469 790 q 452 736 458 755 q 442 704 447 718 l 315 344 m 471 -275 q 417 -253 439 -275 q 394 -199 394 -231 q 417 -144 394 -166 q 471 -122 439 -122 q 525 -144 503 -122 q 547 -199 547 -166 q 525 -253 547 -231 q 471 -275 503 -275 z "},"Ǡ":{"ha":943,"x_min":71,"x_max":872,"o":"m 71 0 l 415 972 l 528 972 l 872 0 l 749 0 l 665 238 l 279 238 l 197 0 l 71 0 m 315 344 l 628 344 l 503 704 q 492 736 498 718 q 481 773 486 755 q 472 803 475 790 q 464 773 469 790 q 452 736 458 755 q 442 704 447 718 l 315 344 m 471 1094 q 417 1117 439 1094 q 394 1171 394 1139 q 417 1225 394 1203 q 471 1247 439 1247 q 525 1225 503 1247 q 547 1171 547 1203 q 525 1117 547 1139 q 471 1094 503 1094 m 242 1375 l 242 1478 l 700 1478 l 700 1375 l 242 1375 z "},"À":{"ha":943,"x_min":71,"x_max":872,"o":"m 71 0 l 415 972 l 528 972 l 872 0 l 749 0 l 665 238 l 279 238 l 197 0 l 71 0 m 315 344 l 628 344 l 503 704 q 492 736 498 718 q 481 773 486 755 q 472 803 475 790 q 464 773 469 790 q 452 736 458 755 q 442 704 447 718 l 315 344 m 433 1063 l 186 1279 l 358 1279 l 556 1063 l 433 1063 z "},"Ả":{"ha":943,"x_min":71,"x_max":872,"o":"m 71 0 l 415 972 l 528 972 l 872 0 l 749 0 l 665 238 l 279 238 l 197 0 l 71 0 m 315 344 l 628 344 l 503 704 q 492 736 498 718 q 481 773 486 755 q 472 803 475 790 q 464 773 469 790 q 452 736 458 755 q 442 704 447 718 l 315 344 m 422 1026 q 433 1089 422 1063 q 469 1136 444 1115 q 491 1157 485 1149 q 497 1175 497 1166 q 472 1197 497 1197 q 417 1153 442 1197 l 349 1197 q 395 1264 361 1239 q 472 1289 428 1289 q 559 1257 524 1289 q 593 1176 593 1224 q 575 1112 593 1136 q 538 1074 556 1088 q 522 1053 525 1065 q 519 1026 519 1042 l 422 1026 z "},"Ȃ":{"ha":943,"x_min":71,"x_max":872,"o":"m 71 0 l 415 972 l 528 972 l 872 0 l 749 0 l 665 238 l 279 238 l 197 0 l 71 0 m 315 344 l 628 344 l 503 704 q 492 736 498 718 q 481 773 486 755 q 472 803 475 790 q 464 773 469 790 q 452 736 458 755 q 442 704 447 718 l 315 344 m 231 1067 q 257 1180 231 1128 q 337 1262 283 1231 q 472 1293 390 1293 q 595 1266 545 1293 q 672 1194 644 1240 q 709 1094 700 1149 q 710 1081 710 1088 q 710 1067 710 1074 l 602 1067 q 601 1081 602 1074 q 599 1094 601 1088 q 560 1166 592 1140 q 472 1192 527 1192 q 399 1176 428 1192 q 355 1133 369 1161 q 340 1067 340 1105 l 231 1067 z "},"Ɑ":{"ha":1015,"x_min":94,"x_max":879,"o":"m 507 -17 q 313 27 392 -17 q 186 145 234 72 q 116 307 138 218 q 94 486 94 396 q 116 665 94 576 q 186 827 138 754 q 313 945 234 901 q 507 989 392 989 q 659 959 594 989 q 758 885 724 930 l 758 972 l 879 972 l 879 0 l 758 0 l 758 88 q 658 13 724 42 q 507 -17 592 -17 m 521 97 q 624 113 578 97 q 703 153 669 129 q 758 203 737 178 l 758 769 q 703 822 737 798 q 624 861 669 847 q 521 876 578 876 q 378 841 436 876 q 285 748 320 806 q 235 621 251 690 q 219 486 219 552 q 235 345 219 415 q 285 220 251 276 q 378 131 320 164 q 521 97 436 97 z "},"Ā":{"ha":943,"x_min":71,"x_max":872,"o":"m 71 0 l 415 972 l 528 972 l 872 0 l 749 0 l 665 238 l 279 238 l 197 0 l 71 0 m 315 344 l 628 344 l 503 704 q 492 736 498 718 q 481 773 486 755 q 472 803 475 790 q 464 773 469 790 q 452 736 458 755 q 442 704 447 718 l 315 344 m 242 1100 l 242 1203 l 700 1203 l 700 1100 l 242 1100 z "},"Ą":{"ha":943,"x_min":71,"x_max":872,"o":"m 728 -329 q 614 -293 660 -329 q 568 -189 568 -256 q 612 -80 568 -127 q 749 0 656 -33 l 665 238 l 279 238 l 197 0 l 71 0 l 415 972 l 528 972 l 872 0 q 762 -40 807 -13 q 693 -103 717 -67 q 669 -176 669 -138 q 692 -234 669 -216 q 742 -253 714 -253 q 783 -243 767 -253 q 808 -224 799 -234 l 871 -269 q 837 -298 857 -285 q 790 -320 817 -312 q 728 -329 763 -329 m 315 344 l 628 344 l 503 704 q 492 736 498 718 q 481 773 486 755 q 472 803 475 790 q 464 773 469 790 q 452 736 458 755 q 442 704 447 718 l 315 344 z "},"Å":{"ha":943,"x_min":71,"x_max":872,"o":"m 71 0 l 388 894 q 331 953 353 917 q 308 1035 308 990 q 331 1116 308 1079 q 391 1174 353 1152 q 474 1196 428 1196 q 556 1174 518 1196 q 616 1116 593 1152 q 639 1035 639 1079 q 616 953 639 990 q 556 894 592 915 l 872 0 l 749 0 l 665 238 l 279 238 l 197 0 l 71 0 m 315 344 l 628 344 l 503 704 q 492 736 498 718 q 481 773 486 755 q 472 803 475 790 q 464 773 469 790 q 452 736 458 755 q 442 704 447 718 l 315 344 m 474 960 q 523 981 503 960 q 543 1035 543 1003 q 523 1087 543 1066 q 474 1108 503 1108 q 424 1087 444 1108 q 404 1035 404 1066 q 424 981 404 1003 q 474 960 444 960 z "},"Ǻ":{"ha":943,"x_min":71,"x_max":872,"o":"m 71 0 l 388 894 q 331 953 353 917 q 308 1035 308 990 q 331 1116 308 1079 q 391 1174 353 1152 q 474 1196 428 1196 q 556 1174 518 1196 q 616 1116 593 1152 q 639 1035 639 1079 q 616 953 639 990 q 556 894 592 915 l 872 0 l 749 0 l 665 238 l 279 238 l 197 0 l 71 0 m 315 344 l 628 344 l 503 704 q 492 736 498 718 q 481 773 486 755 q 472 803 475 790 q 464 773 469 790 q 452 736 458 755 q 442 704 447 718 l 315 344 m 474 960 q 523 981 503 960 q 543 1035 543 1003 q 523 1087 543 1066 q 474 1108 503 1108 q 424 1087 444 1108 q 404 1035 404 1066 q 424 981 404 1003 q 474 960 444 960 m 418 1258 l 615 1475 l 788 1475 l 540 1258 l 418 1258 z "},"Ã":{"ha":943,"x_min":71,"x_max":872,"o":"m 71 0 l 415 972 l 528 972 l 872 0 l 749 0 l 665 238 l 279 238 l 197 0 l 71 0 m 315 344 l 628 344 l 503 704 q 492 736 498 718 q 481 773 486 755 q 472 803 475 790 q 464 773 469 790 q 452 736 458 755 q 442 704 447 718 l 315 344 m 581 1089 q 509 1101 542 1089 q 447 1127 476 1114 q 399 1148 422 1139 q 351 1157 376 1157 q 307 1141 326 1157 q 286 1094 288 1126 l 224 1094 q 238 1184 224 1147 q 282 1241 252 1222 q 361 1261 313 1261 q 435 1248 401 1261 q 498 1222 469 1235 q 545 1201 522 1210 q 590 1192 568 1192 q 635 1208 617 1192 q 656 1256 653 1224 l 718 1256 q 704 1166 718 1203 q 659 1109 690 1129 q 581 1089 629 1089 z "},"Æ":{"ha":1196,"x_min":-19,"x_max":1108,"o":"m -19 0 l 546 972 l 1078 972 l 1078 858 l 699 858 l 699 560 l 936 560 l 936 446 l 699 446 l 699 115 l 1108 115 l 1108 0 l 578 0 l 578 238 l 249 238 l 114 0 l -19 0 m 310 346 l 578 346 l 578 825 q 563 793 571 810 q 545 761 554 777 q 528 731 536 745 l 310 346 z "},"Ǽ":{"ha":1196,"x_min":-19,"x_max":1108,"o":"m -19 0 l 546 972 l 1078 972 l 1078 858 l 699 858 l 699 560 l 936 560 l 936 446 l 699 446 l 699 115 l 1108 115 l 1108 0 l 578 0 l 578 238 l 249 238 l 114 0 l -19 0 m 310 346 l 578 346 l 578 825 q 563 793 571 810 q 545 761 554 777 q 528 731 536 745 l 310 346 m 592 1063 l 789 1279 l 961 1279 l 714 1063 l 592 1063 z "},"Ǣ":{"ha":1196,"x_min":-19,"x_max":1108,"o":"m -19 0 l 546 972 l 1078 972 l 1078 858 l 699 858 l 699 560 l 936 560 l 936 446 l 699 446 l 699 115 l 1108 115 l 1108 0 l 578 0 l 578 238 l 249 238 l 114 0 l -19 0 m 310 346 l 578 346 l 578 825 q 563 793 571 810 q 545 761 554 777 q 528 731 536 745 l 310 346 m 447 1100 l 447 1203 l 906 1203 l 906 1100 l 447 1100 z "},"B":{"ha":911,"x_min":136,"x_max":818,"o":"m 136 0 l 136 972 l 481 972 q 662 935 596 972 q 756 839 728 898 q 783 715 783 780 q 746 595 783 649 q 640 513 708 542 q 736 461 697 495 q 797 381 776 428 q 818 279 818 335 q 802 181 818 230 q 750 90 786 131 q 652 25 713 49 q 503 0 592 0 l 136 0 m 257 111 l 517 111 q 628 135 588 111 q 683 195 667 158 q 699 271 699 232 q 680 358 699 317 q 612 425 661 399 q 472 450 563 450 l 257 450 l 257 111 m 257 560 l 457 560 q 612 602 560 560 q 664 714 664 644 q 650 784 664 749 q 599 840 637 818 q 488 863 560 863 l 257 863 l 257 560 z "},"Ḅ":{"ha":911,"x_min":136,"x_max":818,"o":"m 136 0 l 136 972 l 481 972 q 662 935 596 972 q 756 839 728 898 q 783 715 783 780 q 746 595 783 649 q 640 513 708 542 q 736 461 697 495 q 797 381 776 428 q 818 279 818 335 q 802 181 818 230 q 750 90 786 131 q 652 25 713 49 q 503 0 592 0 l 136 0 m 257 111 l 517 111 q 628 135 588 111 q 683 195 667 158 q 699 271 699 232 q 680 358 699 317 q 612 425 661 399 q 472 450 563 450 l 257 450 l 257 111 m 257 560 l 457 560 q 612 602 560 560 q 664 714 664 644 q 650 784 664 749 q 599 840 637 818 q 488 863 560 863 l 257 863 l 257 560 m 463 -275 q 408 -253 431 -275 q 386 -199 386 -231 q 408 -144 386 -166 q 463 -122 431 -122 q 517 -144 495 -122 q 539 -199 539 -166 q 517 -253 539 -231 q 463 -275 495 -275 z "},"Ɓ":{"ha":1053,"x_min":-3,"x_max":960,"o":"m 115 653 l -3 713 q 30 858 2 801 q 115 944 58 916 q 265 972 172 972 l 385 972 l 385 863 l 255 863 q 149 813 178 863 q 115 653 119 763 m 278 0 l 278 972 l 623 972 q 804 935 738 972 q 898 839 870 898 q 926 715 926 780 q 888 595 926 649 q 783 513 851 542 q 879 461 839 495 q 940 381 919 428 q 960 279 960 335 q 944 181 960 230 q 892 90 928 131 q 795 25 856 49 q 645 0 734 0 l 278 0 m 399 111 l 659 111 q 770 135 731 111 q 825 195 810 158 q 841 271 841 232 q 822 358 841 317 q 755 425 803 399 q 615 450 706 450 l 399 450 l 399 111 m 399 560 l 599 560 q 755 602 703 560 q 806 714 806 644 q 793 784 806 749 q 741 840 779 818 q 630 863 703 863 l 399 863 l 399 560 z "},"Ƀ":{"ha":911,"x_min":8,"x_max":818,"o":"m 8 230 l 8 331 l 426 331 l 426 230 l 8 230 m 136 0 l 136 972 l 481 972 q 662 935 596 972 q 756 839 728 898 q 783 715 783 780 q 746 595 783 649 q 640 513 708 542 q 736 461 697 495 q 797 381 776 428 q 818 279 818 335 q 802 181 818 230 q 750 90 786 131 q 652 25 713 49 q 503 0 592 0 l 136 0 m 257 111 l 517 111 q 628 135 588 111 q 683 195 667 158 q 699 271 699 232 q 680 358 699 317 q 612 425 661 399 q 472 450 563 450 l 257 450 l 257 111 m 257 560 l 457 560 q 612 602 560 560 q 664 714 664 644 q 650 784 664 749 q 599 840 637 818 q 488 863 560 863 l 257 863 l 257 560 z "},"C":{"ha":899,"x_min":94,"x_max":819,"o":"m 497 -17 q 310 26 387 -17 q 185 142 233 69 q 116 304 138 215 q 94 486 94 394 q 117 667 94 578 q 188 829 140 756 q 312 945 235 902 q 497 989 389 989 q 649 963 587 989 q 750 898 711 938 q 811 814 790 858 l 703 758 q 653 819 680 792 q 588 861 626 846 q 497 876 551 876 q 366 841 419 876 q 280 748 313 806 q 234 622 248 690 q 219 486 219 553 q 235 344 219 414 q 285 219 251 275 q 372 130 319 163 q 497 97 424 97 q 626 132 578 97 q 708 221 675 166 l 819 179 q 751 81 794 125 q 645 10 708 36 q 497 -17 583 -17 z "},"Ć":{"ha":899,"x_min":94,"x_max":819,"o":"m 497 -17 q 310 26 387 -17 q 185 142 233 69 q 116 304 138 215 q 94 486 94 394 q 117 667 94 578 q 188 829 140 756 q 312 945 235 902 q 497 989 389 989 q 649 963 587 989 q 750 898 711 938 q 811 814 790 858 l 703 758 q 653 819 680 792 q 588 861 626 846 q 497 876 551 876 q 366 841 419 876 q 280 748 313 806 q 234 622 248 690 q 219 486 219 553 q 235 344 219 414 q 285 219 251 275 q 372 130 319 163 q 497 97 424 97 q 626 132 578 97 q 708 221 675 166 l 819 179 q 751 81 794 125 q 645 10 708 36 q 497 -17 583 -17 m 411 1063 l 608 1279 l 781 1279 l 533 1063 l 411 1063 z "},"Č":{"ha":899,"x_min":94,"x_max":819,"o":"m 497 -17 q 310 26 387 -17 q 185 142 233 69 q 116 304 138 215 q 94 486 94 394 q 117 667 94 578 q 188 829 140 756 q 312 945 235 902 q 497 989 389 989 q 649 963 587 989 q 750 898 711 938 q 811 814 790 858 l 703 758 q 653 819 680 792 q 588 861 626 846 q 497 876 551 876 q 366 841 419 876 q 280 748 313 806 q 234 622 248 690 q 219 486 219 553 q 235 344 219 414 q 285 219 251 275 q 372 130 319 163 q 497 97 424 97 q 626 132 578 97 q 708 221 675 166 l 819 179 q 751 81 794 125 q 645 10 708 36 q 497 -17 583 -17 m 438 1063 l 235 1279 l 350 1279 l 496 1154 l 642 1279 l 756 1279 l 553 1063 l 438 1063 z "},"Ç":{"ha":899,"x_min":94,"x_max":819,"o":"m 497 -17 q 310 26 387 -17 q 185 142 233 69 q 116 304 138 215 q 94 486 94 394 q 117 667 94 578 q 188 829 140 756 q 312 945 235 902 q 497 989 389 989 q 649 963 587 989 q 750 898 711 938 q 811 814 790 858 l 703 758 q 653 819 680 792 q 588 861 626 846 q 497 876 551 876 q 366 841 419 876 q 280 748 313 806 q 234 622 248 690 q 219 486 219 553 q 235 344 219 414 q 285 219 251 275 q 372 130 319 163 q 497 97 424 97 q 626 132 578 97 q 708 221 675 166 l 819 179 q 751 81 794 125 q 645 10 708 36 q 497 -17 583 -17 m 476 -329 q 399 -316 432 -329 q 346 -283 367 -303 l 414 -236 q 434 -250 422 -247 q 465 -254 446 -254 q 517 -235 496 -254 q 538 -187 538 -217 q 514 -143 538 -161 q 457 -125 490 -125 q 427 -127 440 -125 q 404 -135 415 -129 l 382 -107 l 460 0 l 531 0 l 493 -74 q 609 -109 574 -74 q 643 -189 643 -145 q 597 -290 643 -250 q 476 -329 551 -329 z "},"Ĉ":{"ha":899,"x_min":94,"x_max":819,"o":"m 497 -17 q 310 26 387 -17 q 185 142 233 69 q 116 304 138 215 q 94 486 94 394 q 117 667 94 578 q 188 829 140 756 q 312 945 235 902 q 497 989 389 989 q 649 963 587 989 q 750 898 711 938 q 811 814 790 858 l 703 758 q 653 819 680 792 q 588 861 626 846 q 497 876 551 876 q 366 841 419 876 q 280 748 313 806 q 234 622 248 690 q 219 486 219 553 q 235 344 219 414 q 285 219 251 275 q 372 130 319 163 q 497 97 424 97 q 626 132 578 97 q 708 221 675 166 l 819 179 q 751 81 794 125 q 645 10 708 36 q 497 -17 583 -17 m 235 1063 l 440 1279 l 553 1279 l 756 1063 l 642 1063 l 497 1188 l 351 1063 l 235 1063 z "},"Ċ":{"ha":899,"x_min":94,"x_max":819,"o":"m 497 -17 q 310 26 387 -17 q 185 142 233 69 q 116 304 138 215 q 94 486 94 394 q 117 667 94 578 q 188 829 140 756 q 312 945 235 902 q 497 989 389 989 q 649 963 587 989 q 750 898 711 938 q 811 814 790 858 l 703 758 q 653 819 680 792 q 588 861 626 846 q 497 876 551 876 q 366 841 419 876 q 280 748 313 806 q 234 622 248 690 q 219 486 219 553 q 235 344 219 414 q 285 219 251 275 q 372 130 319 163 q 497 97 424 97 q 626 132 578 97 q 708 221 675 166 l 819 179 q 751 81 794 125 q 645 10 708 36 q 497 -17 583 -17 m 496 1094 q 442 1117 464 1094 q 419 1171 419 1139 q 442 1225 419 1203 q 496 1247 464 1247 q 550 1225 528 1247 q 572 1171 572 1203 q 550 1117 572 1139 q 496 1094 528 1094 z "},"Ƈ":{"ha":972,"x_min":94,"x_max":993,"o":"m 690 814 l 690 840 q 749 1053 690 978 q 936 1147 808 1128 l 993 1056 q 883 1024 922 1044 q 827 969 843 1003 q 811 885 811 935 l 811 814 l 690 814 m 497 -17 q 310 26 387 -17 q 185 142 233 69 q 116 304 138 215 q 94 486 94 394 q 117 667 94 578 q 188 829 140 756 q 312 945 235 902 q 497 989 389 989 q 649 963 587 989 q 750 898 711 938 q 811 814 790 858 l 703 758 q 653 819 680 792 q 588 861 626 846 q 497 876 551 876 q 366 841 419 876 q 280 748 313 806 q 234 622 248 690 q 219 486 219 553 q 235 344 219 414 q 285 219 251 275 q 372 130 319 163 q 497 97 424 97 q 626 132 578 97 q 708 221 675 166 l 819 179 q 751 81 794 125 q 645 10 708 36 q 497 -17 583 -17 z "},"D":{"ha":947,"x_min":136,"x_max":853,"o":"m 136 0 l 136 972 l 401 972 q 613 931 526 972 q 752 819 699 889 q 829 663 805 749 q 853 486 853 576 q 831 317 853 402 q 757 159 808 231 q 617 44 705 88 q 396 0 528 0 l 136 0 m 257 113 l 411 113 q 563 145 502 113 q 660 233 624 178 q 712 354 697 288 q 728 486 728 420 q 711 624 728 557 q 657 744 694 691 q 564 830 621 798 q 426 861 507 861 l 257 861 l 257 113 z "},"Ǳ":{"ha":1815,"x_min":136,"x_max":1721,"o":"m 136 0 l 136 972 l 401 972 q 613 931 526 972 q 752 819 699 889 q 829 663 805 749 q 853 486 853 576 q 831 317 853 402 q 757 159 808 231 q 617 44 705 88 q 396 0 528 0 l 136 0 m 257 113 l 411 113 q 563 145 502 113 q 660 233 624 178 q 712 354 697 288 q 728 486 728 420 q 711 624 728 557 q 657 744 694 691 q 564 830 621 798 q 426 861 507 861 l 257 861 l 257 113 m 1000 0 l 1000 93 l 1564 857 l 1032 857 l 1032 972 l 1721 972 l 1721 879 l 1160 115 l 1721 115 l 1721 0 l 1000 0 z "},"Ǆ":{"ha":1815,"x_min":136,"x_max":1721,"o":"m 136 0 l 136 972 l 401 972 q 613 931 526 972 q 752 819 699 889 q 829 663 805 749 q 853 486 853 576 q 831 317 853 402 q 757 159 808 231 q 617 44 705 88 q 396 0 528 0 l 136 0 m 257 113 l 411 113 q 563 145 502 113 q 660 233 624 178 q 712 354 697 288 q 728 486 728 420 q 711 624 728 557 q 657 744 694 691 q 564 830 621 798 q 426 861 507 861 l 257 861 l 257 113 m 1000 0 l 1000 93 l 1564 857 l 1032 857 l 1032 972 l 1721 972 l 1721 879 l 1160 115 l 1721 115 l 1721 0 l 1000 0 m 1332 1063 l 1129 1279 l 1244 1279 l 1390 1154 l 1536 1279 l 1650 1279 l 1447 1063 l 1332 1063 z "},"Ð":{"ha":947,"x_min":28,"x_max":853,"o":"m 28 431 l 28 541 l 489 541 l 489 431 l 28 431 m 136 0 l 136 972 l 401 972 q 613 931 526 972 q 752 819 699 889 q 829 663 805 749 q 853 486 853 576 q 831 317 853 402 q 757 159 808 231 q 617 44 705 88 q 396 0 528 0 l 136 0 m 257 113 l 411 113 q 563 145 502 113 q 660 233 624 178 q 712 354 697 288 q 728 486 728 420 q 711 624 728 557 q 657 744 694 691 q 564 830 621 798 q 426 861 507 861 l 257 861 l 257 113 z "},"Ď":{"ha":947,"x_min":136,"x_max":853,"o":"m 136 0 l 136 972 l 401 972 q 613 931 526 972 q 752 819 699 889 q 829 663 805 749 q 853 486 853 576 q 831 317 853 402 q 757 159 808 231 q 617 44 705 88 q 396 0 528 0 l 136 0 m 257 113 l 411 113 q 563 145 502 113 q 660 233 624 178 q 712 354 697 288 q 728 486 728 420 q 711 624 728 557 q 657 744 694 691 q 564 830 621 798 q 426 861 507 861 l 257 861 l 257 113 m 371 1063 l 168 1279 l 283 1279 l 429 1154 l 575 1279 l 689 1279 l 486 1063 l 371 1063 z "},"Ḓ":{"ha":947,"x_min":136,"x_max":853,"o":"m 136 0 l 136 972 l 401 972 q 613 931 526 972 q 752 819 699 889 q 829 663 805 749 q 853 486 853 576 q 831 317 853 402 q 757 159 808 231 q 617 44 705 88 q 396 0 528 0 l 136 0 m 257 113 l 411 113 q 563 145 502 113 q 660 233 624 178 q 712 354 697 288 q 728 486 728 420 q 711 624 728 557 q 657 744 694 691 q 564 830 621 798 q 426 861 507 861 l 257 861 l 257 113 m 215 -318 l 419 -101 l 533 -101 l 736 -318 l 622 -318 l 476 -193 l 331 -318 l 215 -318 z "},"Đ":{"ha":947,"x_min":28,"x_max":853,"o":"m 28 431 l 28 541 l 489 541 l 489 431 l 28 431 m 136 0 l 136 972 l 401 972 q 613 931 526 972 q 752 819 699 889 q 829 663 805 749 q 853 486 853 576 q 831 317 853 402 q 757 159 808 231 q 617 44 705 88 q 396 0 528 0 l 136 0 m 257 113 l 411 113 q 563 145 502 113 q 660 233 624 178 q 712 354 697 288 q 728 486 728 420 q 711 624 728 557 q 657 744 694 691 q 564 830 621 798 q 426 861 507 861 l 257 861 l 257 113 z "},"Ḍ":{"ha":947,"x_min":136,"x_max":853,"o":"m 136 0 l 136 972 l 401 972 q 613 931 526 972 q 752 819 699 889 q 829 663 805 749 q 853 486 853 576 q 831 317 853 402 q 757 159 808 231 q 617 44 705 88 q 396 0 528 0 l 136 0 m 257 113 l 411 113 q 563 145 502 113 q 660 233 624 178 q 712 354 697 288 q 728 486 728 420 q 711 624 728 557 q 657 744 694 691 q 564 830 621 798 q 426 861 507 861 l 257 861 l 257 113 m 476 -275 q 422 -253 444 -275 q 400 -199 400 -231 q 422 -144 400 -166 q 476 -122 444 -122 q 531 -144 509 -122 q 553 -199 553 -166 q 531 -253 553 -231 q 476 -275 509 -275 z "},"Ɗ":{"ha":1090,"x_min":-3,"x_max":995,"o":"m 115 653 l -3 713 q 30 858 2 801 q 115 944 58 916 q 265 972 172 972 l 385 972 l 385 863 l 255 863 q 149 813 178 863 q 115 653 119 763 m 278 0 l 278 972 l 544 972 q 755 931 669 972 q 894 819 842 889 q 971 663 947 749 q 995 486 995 576 q 973 317 995 402 q 899 159 951 231 q 759 44 847 88 q 538 0 671 0 l 278 0 m 399 113 l 553 113 q 705 145 644 113 q 802 233 766 178 q 855 354 839 288 q 870 486 870 420 q 853 624 870 557 q 800 744 836 691 q 706 830 763 798 q 569 861 649 861 l 399 861 l 399 113 z "},"Ḏ":{"ha":947,"x_min":136,"x_max":853,"o":"m 136 0 l 136 972 l 401 972 q 613 931 526 972 q 752 819 699 889 q 829 663 805 749 q 853 486 853 576 q 831 317 853 402 q 757 159 808 231 q 617 44 705 88 q 396 0 528 0 l 136 0 m 257 113 l 411 113 q 563 145 502 113 q 660 233 624 178 q 712 354 697 288 q 728 486 728 420 q 711 624 728 557 q 657 744 694 691 q 564 830 621 798 q 426 861 507 861 l 257 861 l 257 113 m 247 -226 l 247 -124 l 706 -124 l 706 -226 l 247 -226 z "},"Ɖ":{"ha":947,"x_min":28,"x_max":853,"o":"m 28 431 l 28 541 l 489 541 l 489 431 l 28 431 m 136 0 l 136 972 l 401 972 q 613 931 526 972 q 752 819 699 889 q 829 663 805 749 q 853 486 853 576 q 831 317 853 402 q 757 159 808 231 q 617 44 705 88 q 396 0 528 0 l 136 0 m 257 113 l 411 113 q 563 145 502 113 q 660 233 624 178 q 712 354 697 288 q 728 486 728 420 q 711 624 728 557 q 657 744 694 691 q 564 830 621 798 q 426 861 507 861 l 257 861 l 257 113 z "},"ǲ":{"ha":1624,"x_min":136,"x_max":1531,"o":"m 136 0 l 136 972 l 401 972 q 613 931 526 972 q 752 819 699 889 q 829 663 805 749 q 853 486 853 576 q 831 317 853 402 q 757 159 808 231 q 617 44 705 88 q 396 0 528 0 l 136 0 m 257 113 l 411 113 q 563 145 502 113 q 660 233 624 178 q 712 354 697 288 q 728 486 728 420 q 711 624 728 557 q 657 744 694 691 q 564 830 621 798 q 426 861 507 861 l 257 861 l 257 113 m 1010 0 l 1010 89 l 1379 603 l 1038 603 l 1038 710 l 1531 710 l 1531 624 l 1160 108 l 1529 108 l 1529 0 l 1010 0 z "},"ǅ":{"ha":1649,"x_min":136,"x_max":1569,"o":"m 136 0 l 136 972 l 401 972 q 613 931 526 972 q 752 819 699 889 q 829 663 805 749 q 853 486 853 576 q 831 317 853 402 q 757 159 808 231 q 617 44 705 88 q 396 0 528 0 l 136 0 m 257 113 l 411 113 q 563 145 502 113 q 660 233 624 178 q 712 354 697 288 q 728 486 728 420 q 711 624 728 557 q 657 744 694 691 q 564 830 621 798 q 426 861 507 861 l 257 861 l 257 113 m 1035 0 l 1035 89 l 1404 603 l 1063 603 l 1063 710 l 1556 710 l 1556 624 l 1185 108 l 1554 108 l 1554 0 l 1035 0 m 1251 800 l 1048 1017 l 1163 1017 l 1309 892 l 1455 1017 l 1569 1017 l 1366 800 l 1251 800 z "},"E":{"ha":832,"x_min":136,"x_max":744,"o":"m 136 0 l 136 972 l 714 972 l 714 858 l 257 858 l 257 560 l 558 560 l 558 446 l 257 446 l 257 115 l 744 115 l 744 0 l 136 0 z "},"É":{"ha":832,"x_min":136,"x_max":744,"o":"m 136 0 l 136 972 l 714 972 l 714 858 l 257 858 l 257 560 l 558 560 l 558 446 l 257 446 l 257 115 l 744 115 l 744 0 l 136 0 m 354 1063 l 551 1279 l 724 1279 l 476 1063 l 354 1063 z "},"Ĕ":{"ha":832,"x_min":136,"x_max":744,"o":"m 136 0 l 136 972 l 714 972 l 714 858 l 257 858 l 257 560 l 558 560 l 558 446 l 257 446 l 257 115 l 744 115 l 744 0 l 136 0 m 438 1067 q 304 1098 357 1067 q 225 1180 251 1128 q 199 1293 199 1231 l 308 1293 q 322 1227 308 1255 q 366 1183 337 1199 q 438 1168 395 1168 q 511 1183 481 1168 q 555 1227 540 1199 q 570 1293 570 1255 l 678 1293 q 652 1180 678 1231 q 573 1098 626 1128 q 438 1067 519 1067 z "},"Ě":{"ha":832,"x_min":136,"x_max":744,"o":"m 136 0 l 136 972 l 714 972 l 714 858 l 257 858 l 257 560 l 558 560 l 558 446 l 257 446 l 257 115 l 744 115 l 744 0 l 136 0 m 381 1063 l 178 1279 l 293 1279 l 439 1154 l 585 1279 l 699 1279 l 496 1063 l 381 1063 z "},"Ȩ":{"ha":832,"x_min":136,"x_max":744,"o":"m 136 0 l 136 972 l 714 972 l 714 858 l 257 858 l 257 560 l 558 560 l 558 446 l 257 446 l 257 115 l 744 115 l 744 0 l 136 0 m 397 -329 q 320 -316 353 -329 q 267 -283 288 -303 l 335 -236 q 355 -250 343 -247 q 386 -254 367 -254 q 438 -235 417 -254 q 458 -187 458 -217 q 434 -143 458 -161 q 378 -125 410 -125 q 348 -127 361 -125 q 325 -135 335 -129 l 303 -107 l 381 0 l 451 0 l 414 -74 q 530 -109 495 -74 q 564 -189 564 -145 q 518 -290 564 -250 q 397 -329 472 -329 z "},"Ê":{"ha":832,"x_min":136,"x_max":744,"o":"m 136 0 l 136 972 l 714 972 l 714 858 l 257 858 l 257 560 l 558 560 l 558 446 l 257 446 l 257 115 l 744 115 l 744 0 l 136 0 m 178 1063 l 383 1279 l 497 1279 l 699 1063 l 585 1063 l 440 1188 l 294 1063 l 178 1063 z "},"Ế":{"ha":832,"x_min":136,"x_max":953,"o":"m 136 0 l 136 972 l 714 972 l 714 858 l 257 858 l 257 560 l 558 560 l 558 446 l 257 446 l 257 115 l 744 115 l 744 0 l 136 0 m 178 1063 l 383 1279 l 497 1279 l 699 1063 l 585 1063 l 440 1188 l 294 1063 l 178 1063 m 584 1257 l 781 1474 l 953 1474 l 706 1257 l 584 1257 z "},"Ệ":{"ha":832,"x_min":136,"x_max":744,"o":"m 136 0 l 136 972 l 714 972 l 714 858 l 257 858 l 257 560 l 558 560 l 558 446 l 257 446 l 257 115 l 744 115 l 744 0 l 136 0 m 418 -275 q 364 -253 386 -275 q 342 -199 342 -231 q 364 -144 342 -166 q 418 -122 386 -122 q 473 -144 451 -122 q 494 -199 494 -166 q 473 -253 494 -231 q 418 -275 451 -275 m 178 1063 l 383 1279 l 497 1279 l 699 1063 l 585 1063 l 440 1188 l 294 1063 l 178 1063 z "},"Ề":{"ha":832,"x_min":136,"x_max":777,"o":"m 136 0 l 136 972 l 714 972 l 714 858 l 257 858 l 257 560 l 558 560 l 558 446 l 257 446 l 257 115 l 744 115 l 744 0 l 136 0 m 178 1063 l 383 1279 l 497 1279 l 699 1063 l 585 1063 l 440 1188 l 294 1063 l 178 1063 m 655 1257 l 408 1474 l 580 1474 l 777 1257 l 655 1257 z "},"Ể":{"ha":832,"x_min":136,"x_max":744,"o":"m 136 0 l 136 972 l 714 972 l 714 858 l 257 858 l 257 560 l 558 560 l 558 446 l 257 446 l 257 115 l 744 115 l 744 0 l 136 0 m 178 1063 l 383 1279 l 497 1279 l 699 1063 l 585 1063 l 440 1188 l 294 1063 l 178 1063 m 390 1333 q 401 1396 390 1370 q 438 1443 412 1422 q 459 1464 453 1456 q 465 1482 465 1473 q 440 1504 465 1504 q 385 1460 410 1504 l 317 1504 q 363 1571 329 1546 q 440 1596 397 1596 q 527 1564 492 1596 q 561 1483 561 1531 q 543 1419 561 1443 q 506 1381 524 1395 q 490 1360 493 1372 q 488 1333 488 1349 l 390 1333 z "},"Ễ":{"ha":832,"x_min":136,"x_max":744,"o":"m 136 0 l 136 972 l 714 972 l 714 858 l 257 858 l 257 560 l 558 560 l 558 446 l 257 446 l 257 115 l 744 115 l 744 0 l 136 0 m 178 1063 l 383 1279 l 497 1279 l 699 1063 l 585 1063 l 440 1188 l 294 1063 l 178 1063 m 549 1368 q 477 1381 510 1368 q 416 1406 444 1393 q 368 1427 391 1418 q 320 1436 344 1436 q 276 1420 294 1436 q 255 1374 257 1405 l 192 1374 q 207 1463 192 1426 q 251 1520 221 1501 q 330 1540 281 1540 q 404 1527 370 1540 q 467 1501 438 1515 q 514 1480 491 1489 q 559 1471 537 1471 q 604 1487 585 1471 q 624 1535 622 1503 l 687 1535 q 673 1445 687 1483 q 628 1388 658 1408 q 549 1368 598 1368 z "},"Ȅ":{"ha":832,"x_min":-1,"x_max":744,"o":"m 136 0 l 136 972 l 714 972 l 714 858 l 257 858 l 257 560 l 558 560 l 558 446 l 257 446 l 257 115 l 744 115 l 744 0 l 136 0 m 246 1063 l -1 1279 l 171 1279 l 368 1063 l 246 1063 m 529 1063 l 282 1279 l 454 1279 l 651 1063 l 529 1063 z "},"Ë":{"ha":832,"x_min":136,"x_max":744,"o":"m 136 0 l 136 972 l 714 972 l 714 858 l 257 858 l 257 560 l 558 560 l 558 446 l 257 446 l 257 115 l 744 115 l 744 0 l 136 0 m 568 1094 q 514 1117 537 1094 q 492 1171 492 1139 q 514 1225 492 1203 q 568 1247 537 1247 q 623 1225 601 1247 q 644 1171 644 1203 q 623 1117 644 1139 q 568 1094 601 1094 m 310 1094 q 256 1117 278 1094 q 233 1171 233 1139 q 256 1225 233 1203 q 310 1247 278 1247 q 364 1225 342 1247 q 386 1171 386 1203 q 364 1117 386 1139 q 310 1094 342 1094 z "},"Ė":{"ha":832,"x_min":136,"x_max":744,"o":"m 136 0 l 136 972 l 714 972 l 714 858 l 257 858 l 257 560 l 558 560 l 558 446 l 257 446 l 257 115 l 744 115 l 744 0 l 136 0 m 439 1094 q 385 1117 407 1094 q 363 1171 363 1139 q 385 1225 363 1203 q 439 1247 407 1247 q 493 1225 472 1247 q 515 1171 515 1203 q 493 1117 515 1139 q 439 1094 472 1094 z "},"Ẹ":{"ha":832,"x_min":136,"x_max":744,"o":"m 136 0 l 136 972 l 714 972 l 714 858 l 257 858 l 257 560 l 558 560 l 558 446 l 257 446 l 257 115 l 744 115 l 744 0 l 136 0 m 418 -275 q 364 -253 386 -275 q 342 -199 342 -231 q 364 -144 342 -166 q 418 -122 386 -122 q 473 -144 451 -122 q 494 -199 494 -166 q 473 -253 494 -231 q 418 -275 451 -275 z "},"È":{"ha":832,"x_min":136,"x_max":744,"o":"m 136 0 l 136 972 l 714 972 l 714 858 l 257 858 l 257 560 l 558 560 l 558 446 l 257 446 l 257 115 l 744 115 l 744 0 l 136 0 m 401 1063 l 154 1279 l 326 1279 l 524 1063 l 401 1063 z "},"Ẻ":{"ha":832,"x_min":136,"x_max":744,"o":"m 136 0 l 136 972 l 714 972 l 714 858 l 257 858 l 257 560 l 558 560 l 558 446 l 257 446 l 257 115 l 744 115 l 744 0 l 136 0 m 390 1026 q 401 1089 390 1063 q 438 1136 412 1115 q 459 1157 453 1149 q 465 1175 465 1166 q 440 1197 465 1197 q 385 1153 410 1197 l 317 1197 q 363 1264 329 1239 q 440 1289 397 1289 q 527 1257 492 1289 q 561 1176 561 1224 q 543 1112 561 1136 q 506 1074 524 1088 q 490 1053 493 1065 q 488 1026 488 1042 l 390 1026 z "},"Ȇ":{"ha":832,"x_min":136,"x_max":744,"o":"m 136 0 l 136 972 l 714 972 l 714 858 l 257 858 l 257 560 l 558 560 l 558 446 l 257 446 l 257 115 l 744 115 l 744 0 l 136 0 m 199 1067 q 225 1180 199 1128 q 305 1262 251 1231 q 440 1293 358 1293 q 563 1266 513 1293 q 640 1194 613 1240 q 677 1094 668 1149 q 678 1081 678 1088 q 678 1067 678 1074 l 570 1067 q 569 1081 570 1074 q 567 1094 569 1088 q 528 1166 560 1140 q 440 1192 495 1192 q 367 1176 397 1192 q 323 1133 338 1161 q 308 1067 308 1105 l 199 1067 z "},"Ē":{"ha":832,"x_min":136,"x_max":744,"o":"m 136 0 l 136 972 l 714 972 l 714 858 l 257 858 l 257 560 l 558 560 l 558 446 l 257 446 l 257 115 l 744 115 l 744 0 l 136 0 m 210 1100 l 210 1203 l 668 1203 l 668 1100 l 210 1100 z "},"Ę":{"ha":832,"x_min":136,"x_max":744,"o":"m 136 0 l 136 972 l 714 972 l 714 858 l 257 858 l 257 560 l 558 560 l 558 446 l 257 446 l 257 115 l 744 115 l 744 0 l 136 0 m 557 -343 q 443 -307 490 -343 q 397 -203 397 -270 q 448 -82 397 -134 q 588 0 499 -29 l 678 0 q 576 -57 615 -26 q 517 -123 536 -89 q 499 -190 499 -157 q 521 -248 499 -230 q 571 -267 543 -267 q 612 -257 596 -267 q 638 -237 628 -248 l 700 -283 q 644 -325 679 -306 q 557 -343 609 -343 z "},"Ɛ":{"ha":821,"x_min":69,"x_max":769,"o":"m 415 -17 q 235 19 313 -17 q 113 121 157 56 q 69 276 69 187 q 115 424 69 366 q 248 513 160 483 q 141 604 175 544 q 106 725 106 664 q 145 862 106 802 q 253 955 183 922 q 415 989 322 989 q 627 929 544 989 q 744 783 710 869 l 635 740 q 560 833 613 790 q 415 875 508 875 q 282 834 331 875 q 233 725 233 793 q 282 606 233 650 q 419 563 331 563 l 565 563 l 565 449 l 412 449 q 247 399 299 449 q 195 272 195 349 q 256 141 195 183 q 415 99 316 99 q 566 135 504 99 q 662 256 628 172 l 769 210 q 645 49 731 114 q 415 -17 560 -17 z "},"Ǝ":{"ha":832,"x_min":88,"x_max":696,"o":"m 88 0 l 88 115 l 575 115 l 575 446 l 274 446 l 274 560 l 575 560 l 575 858 l 118 858 l 118 972 l 696 972 l 696 0 l 88 0 z "},"Ʃ":{"ha":875,"x_min":88,"x_max":788,"o":"m 88 0 l 88 93 l 388 500 l 110 879 l 110 972 l 765 972 l 765 857 l 267 857 l 530 500 l 247 115 l 788 115 l 788 0 l 88 0 z "},"Ẽ":{"ha":832,"x_min":136,"x_max":744,"o":"m 136 0 l 136 972 l 714 972 l 714 858 l 257 858 l 257 560 l 558 560 l 558 446 l 257 446 l 257 115 l 744 115 l 744 0 l 136 0 m 549 1089 q 477 1101 510 1089 q 415 1127 444 1114 q 367 1148 390 1139 q 319 1157 344 1157 q 275 1141 294 1157 q 254 1094 256 1126 l 192 1094 q 206 1184 192 1147 q 250 1241 220 1222 q 329 1261 281 1261 q 403 1248 369 1261 q 466 1222 437 1235 q 513 1201 490 1210 q 558 1192 536 1192 q 603 1208 585 1192 q 624 1256 622 1224 l 686 1256 q 672 1166 686 1203 q 627 1109 658 1129 q 549 1089 597 1089 z "},"Ʒ":{"ha":829,"x_min":69,"x_max":732,"o":"m 411 -17 q 264 11 331 -17 q 147 91 197 39 q 69 215 97 143 l 176 260 q 272 138 213 176 q 411 99 330 99 q 552 147 499 99 q 606 276 606 195 q 548 406 606 356 q 347 458 491 456 l 274 529 l 556 857 l 115 857 l 115 972 l 711 972 l 711 878 l 417 550 q 656 468 581 545 q 732 275 732 391 q 690 122 732 188 q 576 20 649 56 q 411 -17 503 -17 z "},"Ǯ":{"ha":829,"x_min":69,"x_max":732,"o":"m 411 -17 q 264 11 331 -17 q 147 91 197 39 q 69 215 97 143 l 176 260 q 272 138 213 176 q 411 99 330 99 q 552 147 499 99 q 606 276 606 195 q 548 406 606 356 q 347 458 491 456 l 274 529 l 556 857 l 115 857 l 115 972 l 711 972 l 711 878 l 417 550 q 656 468 581 545 q 732 275 732 391 q 690 122 732 188 q 576 20 649 56 q 411 -17 503 -17 m 360 1063 l 157 1279 l 272 1279 l 418 1154 l 564 1279 l 678 1279 l 475 1063 l 360 1063 z "},"F":{"ha":781,"x_min":136,"x_max":721,"o":"m 136 0 l 136 972 l 721 972 l 721 858 l 257 858 l 257 560 l 564 560 l 564 446 l 257 446 l 257 0 l 136 0 z "},"Ƒ":{"ha":781,"x_min":-46,"x_max":721,"o":"m 136 0 l 136 972 l 721 972 l 721 858 l 257 858 l 257 560 l 564 560 l 564 446 l 257 446 l 257 0 l 136 0 m 11 -319 l -46 -228 q 65 -196 25 -217 q 120 -141 104 -175 q 136 -57 136 -107 l 136 14 l 257 14 l 257 -12 q 198 -225 257 -150 q 11 -319 140 -301 z "},"G":{"ha":956,"x_min":94,"x_max":851,"o":"m 507 -17 q 318 25 397 -17 q 190 139 240 67 q 118 301 141 211 q 94 486 94 391 q 119 670 94 581 q 194 832 144 760 q 322 946 244 903 q 507 989 400 989 q 657 965 597 989 q 756 901 717 940 q 822 818 795 862 l 714 756 q 634 839 681 803 q 507 875 588 875 q 370 840 426 875 q 282 747 315 805 q 234 621 249 690 q 219 486 219 553 q 236 342 219 411 q 288 217 253 272 q 377 131 322 163 q 507 99 431 99 q 622 127 573 99 q 698 206 671 156 q 725 322 725 256 l 725 361 l 549 361 l 549 472 l 851 472 l 851 356 q 806 152 851 235 q 682 26 760 69 q 507 -17 604 -17 z "},"Ǵ":{"ha":956,"x_min":94,"x_max":851,"o":"m 507 -17 q 318 25 397 -17 q 190 139 240 67 q 118 301 141 211 q 94 486 94 391 q 119 670 94 581 q 194 832 144 760 q 322 946 244 903 q 507 989 400 989 q 657 965 597 989 q 756 901 717 940 q 822 818 795 862 l 714 756 q 634 839 681 803 q 507 875 588 875 q 370 840 426 875 q 282 747 315 805 q 234 621 249 690 q 219 486 219 553 q 236 342 219 411 q 288 217 253 272 q 377 131 322 163 q 507 99 431 99 q 622 127 573 99 q 698 206 671 156 q 725 322 725 256 l 725 361 l 549 361 l 549 472 l 851 472 l 851 356 q 806 152 851 235 q 682 26 760 69 q 507 -17 604 -17 m 429 1063 l 626 1279 l 799 1279 l 551 1063 l 429 1063 z "},"Ğ":{"ha":956,"x_min":94,"x_max":851,"o":"m 507 -17 q 318 25 397 -17 q 190 139 240 67 q 118 301 141 211 q 94 486 94 391 q 119 670 94 581 q 194 832 144 760 q 322 946 244 903 q 507 989 400 989 q 657 965 597 989 q 756 901 717 940 q 822 818 795 862 l 714 756 q 634 839 681 803 q 507 875 588 875 q 370 840 426 875 q 282 747 315 805 q 234 621 249 690 q 219 486 219 553 q 236 342 219 411 q 288 217 253 272 q 377 131 322 163 q 507 99 431 99 q 622 127 573 99 q 698 206 671 156 q 725 322 725 256 l 725 361 l 549 361 l 549 472 l 851 472 l 851 356 q 806 152 851 235 q 682 26 760 69 q 507 -17 604 -17 m 513 1067 q 379 1098 432 1067 q 300 1180 326 1128 q 274 1293 274 1231 l 383 1293 q 397 1227 383 1255 q 441 1183 412 1199 q 513 1168 470 1168 q 586 1183 556 1168 q 630 1227 615 1199 q 645 1293 645 1255 l 753 1293 q 727 1180 753 1231 q 648 1098 701 1128 q 513 1067 594 1067 z "},"Ǧ":{"ha":956,"x_min":94,"x_max":851,"o":"m 507 -17 q 318 25 397 -17 q 190 139 240 67 q 118 301 141 211 q 94 486 94 391 q 119 670 94 581 q 194 832 144 760 q 322 946 244 903 q 507 989 400 989 q 657 965 597 989 q 756 901 717 940 q 822 818 795 862 l 714 756 q 634 839 681 803 q 507 875 588 875 q 370 840 426 875 q 282 747 315 805 q 234 621 249 690 q 219 486 219 553 q 236 342 219 411 q 288 217 253 272 q 377 131 322 163 q 507 99 431 99 q 622 127 573 99 q 698 206 671 156 q 725 322 725 256 l 725 361 l 549 361 l 549 472 l 851 472 l 851 356 q 806 152 851 235 q 682 26 760 69 q 507 -17 604 -17 m 456 1063 l 253 1279 l 368 1279 l 514 1154 l 660 1279 l 774 1279 l 571 1063 l 456 1063 z "},"Ĝ":{"ha":956,"x_min":94,"x_max":851,"o":"m 507 -17 q 318 25 397 -17 q 190 139 240 67 q 118 301 141 211 q 94 486 94 391 q 119 670 94 581 q 194 832 144 760 q 322 946 244 903 q 507 989 400 989 q 657 965 597 989 q 756 901 717 940 q 822 818 795 862 l 714 756 q 634 839 681 803 q 507 875 588 875 q 370 840 426 875 q 282 747 315 805 q 234 621 249 690 q 219 486 219 553 q 236 342 219 411 q 288 217 253 272 q 377 131 322 163 q 507 99 431 99 q 622 127 573 99 q 698 206 671 156 q 725 322 725 256 l 725 361 l 549 361 l 549 472 l 851 472 l 851 356 q 806 152 851 235 q 682 26 760 69 q 507 -17 604 -17 m 253 1063 l 458 1279 l 572 1279 l 774 1063 l 660 1063 l 515 1188 l 369 1063 l 253 1063 z "},"Ģ":{"ha":956,"x_min":94,"x_max":851,"o":"m 507 -17 q 318 25 397 -17 q 190 139 240 67 q 118 301 141 211 q 94 486 94 391 q 119 670 94 581 q 194 832 144 760 q 322 946 244 903 q 507 989 400 989 q 657 965 597 989 q 756 901 717 940 q 822 818 795 862 l 714 756 q 634 839 681 803 q 507 875 588 875 q 370 840 426 875 q 282 747 315 805 q 234 621 249 690 q 219 486 219 553 q 236 342 219 411 q 288 217 253 272 q 377 131 322 163 q 507 99 431 99 q 622 127 573 99 q 698 206 671 156 q 725 322 725 256 l 725 361 l 549 361 l 549 472 l 851 472 l 851 356 q 806 152 851 235 q 682 26 760 69 q 507 -17 604 -17 m 483 -344 l 447 -326 q 481 -288 460 -315 q 508 -226 501 -262 q 449 -203 471 -226 q 426 -146 426 -179 q 451 -85 426 -108 q 507 -62 476 -62 q 566 -87 540 -62 q 592 -154 592 -111 q 565 -259 592 -210 q 483 -344 538 -307 z "},"Ġ":{"ha":956,"x_min":94,"x_max":851,"o":"m 507 -17 q 318 25 397 -17 q 190 139 240 67 q 118 301 141 211 q 94 486 94 391 q 119 670 94 581 q 194 832 144 760 q 322 946 244 903 q 507 989 400 989 q 657 965 597 989 q 756 901 717 940 q 822 818 795 862 l 714 756 q 634 839 681 803 q 507 875 588 875 q 370 840 426 875 q 282 747 315 805 q 234 621 249 690 q 219 486 219 553 q 236 342 219 411 q 288 217 253 272 q 377 131 322 163 q 507 99 431 99 q 622 127 573 99 q 698 206 671 156 q 725 322 725 256 l 725 361 l 549 361 l 549 472 l 851 472 l 851 356 q 806 152 851 235 q 682 26 760 69 q 507 -17 604 -17 m 514 1094 q 460 1117 482 1094 q 438 1171 438 1139 q 460 1225 438 1203 q 514 1247 482 1247 q 568 1225 547 1247 q 590 1171 590 1203 q 568 1117 590 1139 q 514 1094 547 1094 z "},"Ɠ":{"ha":983,"x_min":94,"x_max":1004,"o":"m 701 818 l 701 844 q 760 1057 701 982 q 947 1151 819 1133 l 1004 1060 q 894 1028 933 1049 q 838 973 854 1007 q 822 889 822 939 l 822 818 l 701 818 m 507 -17 q 318 25 397 -17 q 190 139 240 67 q 118 301 141 211 q 94 486 94 391 q 119 670 94 581 q 194 832 144 760 q 322 946 244 903 q 507 989 400 989 q 657 965 597 989 q 756 901 717 940 q 822 818 795 862 l 714 756 q 634 839 681 803 q 507 875 588 875 q 370 840 426 875 q 282 747 315 805 q 234 621 249 690 q 219 486 219 553 q 236 342 219 411 q 288 217 253 272 q 377 131 322 163 q 507 99 431 99 q 622 127 573 99 q 698 206 671 156 q 725 322 725 256 l 725 361 l 549 361 l 549 472 l 851 472 l 851 356 q 806 152 851 235 q 682 26 760 69 q 507 -17 604 -17 z "},"Ḡ":{"ha":956,"x_min":94,"x_max":851,"o":"m 507 -17 q 318 25 397 -17 q 190 139 240 67 q 118 301 141 211 q 94 486 94 391 q 119 670 94 581 q 194 832 144 760 q 322 946 244 903 q 507 989 400 989 q 657 965 597 989 q 756 901 717 940 q 822 818 795 862 l 714 756 q 634 839 681 803 q 507 875 588 875 q 370 840 426 875 q 282 747 315 805 q 234 621 249 690 q 219 486 219 553 q 236 342 219 411 q 288 217 253 272 q 377 131 322 163 q 507 99 431 99 q 622 127 573 99 q 698 206 671 156 q 725 322 725 256 l 725 361 l 549 361 l 549 472 l 851 472 l 851 356 q 806 152 851 235 q 682 26 760 69 q 507 -17 604 -17 m 285 1100 l 285 1203 l 743 1203 l 743 1100 l 285 1100 z "},"Ǥ":{"ha":1025,"x_min":94,"x_max":1004,"o":"m 507 -17 q 318 25 397 -17 q 190 139 240 67 q 118 301 141 211 q 94 486 94 391 q 119 670 94 581 q 194 832 144 760 q 322 946 244 903 q 507 989 400 989 q 657 965 597 989 q 756 901 717 940 q 822 818 795 862 l 714 756 q 634 839 681 803 q 507 875 588 875 q 370 840 426 875 q 282 747 315 805 q 234 621 249 690 q 219 486 219 553 q 236 342 219 411 q 288 217 253 272 q 377 131 322 163 q 507 99 431 99 q 659 161 606 99 q 711 322 711 224 l 711 528 l 838 528 l 838 356 q 795 152 838 235 q 679 26 753 69 q 507 -17 604 -17 m 513 264 l 513 375 l 1004 375 l 1004 264 l 513 264 z "},"H":{"ha":972,"x_min":136,"x_max":836,"o":"m 136 0 l 136 972 l 257 972 l 257 561 l 715 561 l 715 972 l 836 972 l 836 0 l 715 0 l 715 447 l 257 447 l 257 0 l 136 0 z "},"Ħ":{"ha":1006,"x_min":28,"x_max":978,"o":"m 153 0 l 153 726 l 28 726 l 28 840 l 153 840 l 153 972 l 274 972 l 274 840 l 732 840 l 732 972 l 853 972 l 853 840 l 978 840 l 978 726 l 853 726 l 853 0 l 732 0 l 732 447 l 274 447 l 274 0 l 153 0 m 274 561 l 732 561 l 732 726 l 274 726 l 274 561 z "},"Ȟ":{"ha":972,"x_min":136,"x_max":836,"o":"m 136 0 l 136 972 l 257 972 l 257 561 l 715 561 l 715 972 l 836 972 l 836 0 l 715 0 l 715 447 l 257 447 l 257 0 l 136 0 m 428 1063 l 225 1279 l 340 1279 l 486 1154 l 632 1279 l 746 1279 l 543 1063 l 428 1063 z "},"Ĥ":{"ha":972,"x_min":136,"x_max":836,"o":"m 136 0 l 136 972 l 257 972 l 257 561 l 715 561 l 715 972 l 836 972 l 836 0 l 715 0 l 715 447 l 257 447 l 257 0 l 136 0 m 226 1063 l 430 1279 l 544 1279 l 747 1063 l 633 1063 l 487 1188 l 341 1063 l 226 1063 z "},"Ḥ":{"ha":972,"x_min":136,"x_max":836,"o":"m 136 0 l 136 972 l 257 972 l 257 561 l 715 561 l 715 972 l 836 972 l 836 0 l 715 0 l 715 447 l 257 447 l 257 0 l 136 0 m 486 -275 q 432 -253 454 -275 q 410 -199 410 -231 q 432 -144 410 -166 q 486 -122 454 -122 q 541 -144 519 -122 q 563 -199 563 -166 q 541 -253 563 -231 q 486 -275 519 -275 z "},"Ɦ":{"ha":1115,"x_min":-3,"x_max":978,"o":"m 115 653 l -3 713 q 30 858 2 801 q 115 944 58 916 q 265 972 172 972 l 385 972 l 385 863 l 255 863 q 149 813 178 863 q 115 653 119 763 m 278 0 l 278 972 l 399 972 l 399 561 l 858 561 l 858 972 l 978 972 l 978 0 l 858 0 l 858 447 l 399 447 l 399 0 l 278 0 z "},"Ɥ":{"ha":947,"x_min":111,"x_max":811,"o":"m 690 0 l 690 476 q 626 403 665 433 q 538 356 588 372 q 431 340 488 340 q 258 383 330 340 q 149 510 187 426 q 111 717 111 594 l 111 972 l 232 972 l 232 718 q 258 573 232 632 q 334 484 283 515 q 460 454 385 454 q 559 471 516 454 q 631 522 602 488 q 675 604 660 555 q 690 718 690 653 l 690 972 l 811 972 l 811 0 l 690 0 z "},"I":{"ha":393,"x_min":136,"x_max":257,"o":"m 136 0 l 136 972 l 257 972 l 257 0 l 136 0 z "},"Ĳ":{"ha":1138,"x_min":136,"x_max":1006,"o":"m 136 0 l 136 972 l 257 972 l 257 0 l 136 0 m 699 -17 q 524 29 594 -17 q 418 158 455 74 l 518 210 q 586 125 547 153 q 700 97 625 97 q 767 107 735 97 q 827 140 800 116 q 869 206 853 163 q 885 315 885 249 l 885 972 l 1006 972 l 1006 319 q 977 153 1006 219 q 903 51 949 88 q 803 -1 857 14 q 699 -17 750 -17 z "},"Í":{"ha":393,"x_min":118,"x_max":488,"o":"m 136 0 l 136 972 l 257 972 l 257 0 l 136 0 m 118 1063 l 315 1279 l 488 1279 l 240 1063 l 118 1063 z "},"Ĭ":{"ha":393,"x_min":-37,"x_max":442,"o":"m 136 0 l 136 972 l 257 972 l 257 0 l 136 0 m 202 1067 q 68 1098 121 1067 q -11 1180 15 1128 q -37 1293 -37 1231 l 72 1293 q 86 1227 72 1255 q 130 1183 101 1199 q 202 1168 159 1168 q 275 1183 245 1168 q 319 1227 304 1199 q 334 1293 334 1255 l 442 1293 q 416 1180 442 1231 q 337 1098 390 1128 q 202 1067 283 1067 z "},"Ǐ":{"ha":393,"x_min":-58,"x_max":463,"o":"m 136 0 l 136 972 l 257 972 l 257 0 l 136 0 m 144 1063 l -58 1279 l 57 1279 l 203 1154 l 349 1279 l 463 1279 l 260 1063 l 144 1063 z "},"Î":{"ha":393,"x_min":-58,"x_max":463,"o":"m 136 0 l 136 972 l 257 972 l 257 0 l 136 0 m -58 1063 l 147 1279 l 260 1279 l 463 1063 l 349 1063 l 203 1188 l 58 1063 l -58 1063 z "},"Ȉ":{"ha":393,"x_min":-237,"x_max":415,"o":"m 136 0 l 136 972 l 257 972 l 257 0 l 136 0 m 10 1063 l -237 1279 l -65 1279 l 132 1063 l 10 1063 m 293 1063 l 46 1279 l 218 1279 l 415 1063 l 293 1063 z "},"Ï":{"ha":393,"x_min":-3,"x_max":408,"o":"m 136 0 l 136 972 l 257 972 l 257 0 l 136 0 m 332 1094 q 278 1117 301 1094 q 256 1171 256 1139 q 278 1225 256 1203 q 332 1247 301 1247 q 386 1225 365 1247 q 408 1171 408 1203 q 386 1117 408 1139 q 332 1094 365 1094 m 74 1094 q 20 1117 42 1094 q -3 1171 -3 1139 q 20 1225 -3 1203 q 74 1247 42 1247 q 128 1225 106 1247 q 150 1171 150 1203 q 128 1117 150 1139 q 74 1094 106 1094 z "},"Ḯ":{"ha":393,"x_min":-3,"x_max":488,"o":"m 136 0 l 136 972 l 257 972 l 257 0 l 136 0 m 332 1094 q 278 1117 301 1094 q 256 1171 256 1139 q 278 1225 256 1203 q 332 1247 301 1247 q 386 1225 365 1247 q 408 1171 408 1203 q 386 1117 408 1139 q 332 1094 365 1094 m 74 1094 q 20 1117 42 1094 q -3 1171 -3 1139 q 20 1225 -3 1203 q 74 1247 42 1247 q 128 1225 106 1247 q 150 1171 150 1203 q 128 1117 150 1139 q 74 1094 106 1094 m 118 1338 l 315 1554 l 488 1554 l 240 1338 l 118 1338 z "},"İ":{"ha":393,"x_min":126,"x_max":279,"o":"m 136 0 l 136 972 l 257 972 l 257 0 l 136 0 m 203 1094 q 149 1117 171 1094 q 126 1171 126 1139 q 149 1225 126 1203 q 203 1247 171 1247 q 257 1225 235 1247 q 279 1171 279 1203 q 257 1117 279 1139 q 203 1094 235 1094 z "},"Ị":{"ha":393,"x_min":126,"x_max":279,"o":"m 136 0 l 136 972 l 257 972 l 257 0 l 136 0 m 203 -275 q 149 -253 171 -275 q 126 -199 126 -231 q 149 -144 126 -166 q 203 -122 171 -122 q 257 -144 235 -122 q 279 -199 279 -166 q 257 -253 279 -231 q 203 -275 235 -275 z "},"Ì":{"ha":393,"x_min":-82,"x_max":288,"o":"m 136 0 l 136 972 l 257 972 l 257 0 l 136 0 m 165 1063 l -82 1279 l 90 1279 l 288 1063 l 165 1063 z "},"Ỉ":{"ha":393,"x_min":81,"x_max":325,"o":"m 136 0 l 136 972 l 257 972 l 257 0 l 136 0 m 154 1026 q 165 1089 154 1063 q 201 1136 176 1115 q 223 1157 217 1149 q 229 1175 229 1166 q 204 1197 229 1197 q 149 1153 174 1197 l 81 1197 q 127 1264 93 1239 q 204 1289 160 1289 q 291 1257 256 1289 q 325 1176 325 1224 q 307 1112 325 1136 q 269 1074 288 1088 q 254 1053 257 1065 q 251 1026 251 1042 l 154 1026 z "},"Ȋ":{"ha":393,"x_min":-37,"x_max":442,"o":"m 136 0 l 136 972 l 257 972 l 257 0 l 136 0 m -37 1067 q -11 1180 -37 1128 q 69 1262 15 1231 q 203 1293 122 1293 q 327 1266 277 1293 q 404 1194 376 1240 q 441 1094 432 1149 q 442 1081 442 1088 q 442 1067 442 1074 l 334 1067 q 333 1081 334 1074 q 331 1094 333 1088 q 292 1166 324 1140 q 203 1192 259 1192 q 131 1176 160 1192 q 86 1133 101 1161 q 72 1067 72 1105 l -37 1067 z "},"Ī":{"ha":393,"x_min":-26,"x_max":432,"o":"m 136 0 l 136 972 l 257 972 l 257 0 l 136 0 m -26 1100 l -26 1203 l 432 1203 l 432 1100 l -26 1100 z "},"Į":{"ha":399,"x_min":-18,"x_max":286,"o":"m 142 -329 q 28 -293 74 -329 q -18 -189 -18 -256 q 26 -75 -18 -123 q 139 0 70 -28 l 139 972 l 260 972 l 260 0 q 161 -47 199 -19 q 103 -109 122 -76 q 85 -176 85 -143 q 107 -234 85 -216 q 157 -253 129 -253 q 197 -243 181 -253 q 224 -224 213 -234 l 286 -269 q 252 -298 272 -285 q 205 -320 232 -312 q 142 -329 177 -329 z "},"Ɩ":{"ha":478,"x_min":136,"x_max":436,"o":"m 286 -17 q 173 29 210 -17 q 136 153 136 75 l 136 972 l 257 972 l 257 193 q 274 119 257 143 q 331 96 291 96 q 387 107 361 96 q 436 133 413 119 l 422 15 q 361 -8 394 1 q 286 -17 328 -17 z "},"Ɨ":{"ha":608,"x_min":74,"x_max":535,"o":"m 74 431 l 74 541 l 535 541 l 535 431 l 74 431 m 244 0 l 244 972 l 365 972 l 365 0 l 244 0 z "},"Ĩ":{"ha":393,"x_min":-44,"x_max":450,"o":"m 136 0 l 136 972 l 257 972 l 257 0 l 136 0 m 313 1089 q 241 1101 274 1089 q 179 1127 208 1114 q 131 1148 154 1139 q 83 1157 108 1157 q 39 1141 58 1157 q 18 1094 20 1126 l -44 1094 q -30 1184 -44 1147 q 14 1241 -16 1222 q 93 1261 44 1261 q 167 1248 133 1261 q 230 1222 201 1235 q 277 1201 254 1210 q 322 1192 300 1192 q 367 1208 349 1192 q 388 1256 385 1224 l 450 1256 q 436 1166 450 1203 q 391 1109 422 1129 q 313 1089 361 1089 z "},"J":{"ha":758,"x_min":39,"x_max":626,"o":"m 319 -17 q 145 29 215 -17 q 39 158 76 74 l 139 210 q 207 125 167 153 q 321 97 246 97 q 388 107 356 97 q 448 140 421 116 q 490 206 474 163 q 506 315 506 249 l 506 972 l 626 972 l 626 319 q 598 153 626 219 q 524 51 570 88 q 424 -1 478 14 q 319 -17 371 -17 z "},"Ĵ":{"ha":758,"x_min":39,"x_max":827,"o":"m 319 -17 q 145 29 215 -17 q 39 158 76 74 l 139 210 q 207 125 167 153 q 321 97 246 97 q 388 107 356 97 q 448 140 421 116 q 490 206 474 163 q 506 315 506 249 l 506 972 l 626 972 l 626 319 q 598 153 626 219 q 524 51 570 88 q 424 -1 478 14 q 319 -17 371 -17 m 306 1063 l 510 1279 l 624 1279 l 827 1063 l 713 1063 l 567 1188 l 422 1063 l 306 1063 z "},"K":{"ha":917,"x_min":136,"x_max":851,"o":"m 136 0 l 136 972 l 257 972 l 257 496 l 636 972 l 772 972 l 504 636 l 851 0 l 711 0 l 422 535 l 257 332 l 257 0 l 136 0 z "},"Ǩ":{"ha":917,"x_min":136,"x_max":851,"o":"m 136 0 l 136 972 l 257 972 l 257 496 l 636 972 l 772 972 l 504 636 l 851 0 l 711 0 l 422 535 l 257 332 l 257 0 l 136 0 m 393 1063 l 190 1279 l 306 1279 l 451 1154 l 597 1279 l 711 1279 l 508 1063 l 393 1063 z "},"Ķ":{"ha":917,"x_min":136,"x_max":851,"o":"m 136 0 l 136 972 l 257 972 l 257 496 l 636 972 l 772 972 l 504 636 l 851 0 l 711 0 l 422 535 l 257 332 l 257 0 l 136 0 m 449 -344 l 413 -326 q 446 -288 425 -315 q 474 -226 467 -262 q 414 -203 436 -226 q 392 -146 392 -179 q 416 -85 392 -108 q 472 -62 441 -62 q 531 -87 506 -62 q 557 -154 557 -111 q 530 -259 557 -210 q 449 -344 503 -307 z "},"Ƙ":{"ha":917,"x_min":136,"x_max":882,"o":"m 136 0 l 136 972 l 257 972 l 257 496 l 528 837 q 610 922 571 890 q 700 971 649 955 q 825 989 750 987 l 882 897 q 763 883 808 895 q 685 847 717 871 q 624 786 654 824 l 504 636 l 851 0 l 711 0 l 422 535 l 257 332 l 257 0 l 136 0 z "},"L":{"ha":776,"x_min":136,"x_max":735,"o":"m 136 0 l 136 972 l 257 972 l 257 117 l 735 117 l 735 0 l 136 0 z "},"Ǉ":{"ha":1549,"x_min":136,"x_max":1417,"o":"m 136 0 l 136 972 l 257 972 l 257 117 l 735 117 l 735 0 l 136 0 m 1110 -17 q 935 29 1005 -17 q 829 158 866 74 l 929 210 q 997 125 958 153 q 1111 97 1036 97 q 1178 107 1146 97 q 1238 140 1211 116 q 1280 206 1265 163 q 1296 315 1296 249 l 1296 972 l 1417 972 l 1417 319 q 1389 153 1417 219 q 1314 51 1360 88 q 1215 -1 1268 14 q 1110 -17 1161 -17 z "},"Ĺ":{"ha":776,"x_min":111,"x_max":735,"o":"m 136 0 l 136 972 l 257 972 l 257 117 l 735 117 l 735 0 l 136 0 m 111 1063 l 308 1279 l 481 1279 l 233 1063 l 111 1063 z "},"Ľ":{"ha":776,"x_min":136,"x_max":735,"o":"m 136 0 l 136 972 l 257 972 l 257 117 l 735 117 l 735 0 l 136 0 m 419 644 l 383 671 q 405 747 396 697 q 420 857 415 797 q 425 972 425 917 l 543 972 l 543 961 q 515 790 543 869 q 419 644 488 711 z "},"Ḽ":{"ha":776,"x_min":136,"x_max":735,"o":"m 136 0 l 136 972 l 257 972 l 257 117 l 735 117 l 735 0 l 136 0 m 174 -318 l 378 -101 l 492 -101 l 694 -318 l 581 -318 l 435 -193 l 289 -318 l 174 -318 z "},"Ļ":{"ha":776,"x_min":136,"x_max":735,"o":"m 136 0 l 136 972 l 257 972 l 257 117 l 735 117 l 735 0 l 136 0 m 411 -344 l 375 -326 q 408 -288 388 -315 q 436 -226 429 -262 q 376 -203 399 -226 q 354 -146 354 -179 q 379 -85 354 -108 q 435 -62 403 -62 q 494 -87 468 -62 q 519 -154 519 -111 q 492 -259 519 -210 q 411 -344 465 -307 z "},"Ŀ":{"ha":776,"x_min":136,"x_max":735,"o":"m 136 0 l 136 972 l 257 972 l 257 117 l 735 117 l 735 0 l 136 0 m 583 390 q 515 419 543 390 q 488 485 488 447 q 515 551 488 522 q 583 581 543 581 q 652 551 624 581 q 681 485 681 522 q 652 419 681 447 q 583 390 624 390 z "},"Ḷ":{"ha":776,"x_min":136,"x_max":735,"o":"m 136 0 l 136 972 l 257 972 l 257 117 l 735 117 l 735 0 l 136 0 m 435 -275 q 381 -253 403 -275 q 358 -199 358 -231 q 381 -144 358 -166 q 435 -122 403 -122 q 489 -144 467 -122 q 511 -199 511 -166 q 489 -253 511 -231 q 435 -275 467 -275 z "},"ǈ":{"ha":1129,"x_min":136,"x_max":1029,"o":"m 136 0 l 136 972 l 257 972 l 257 117 l 735 117 l 735 0 l 136 0 m 768 -297 l 711 -206 q 852 -154 810 -190 q 893 -50 893 -119 l 893 710 l 1014 710 l 1014 -6 q 955 -206 1014 -133 q 768 -297 895 -279 m 954 839 q 900 861 922 839 q 878 914 878 883 q 900 969 878 947 q 954 992 922 992 q 1007 969 985 992 q 1029 914 1029 947 q 1008 861 1029 883 q 954 839 987 839 z "},"Ł":{"ha":776,"x_min":35,"x_max":735,"o":"m 136 0 l 136 354 l 35 279 l 35 413 l 136 488 l 136 972 l 257 972 l 257 585 l 422 711 l 422 578 l 257 450 l 257 117 l 735 117 l 735 0 l 136 0 z "},"M":{"ha":1117,"x_min":136,"x_max":981,"o":"m 558 -17 l 294 597 q 273 650 284 622 q 253 703 261 679 q 256 653 255 684 q 257 597 257 622 l 257 0 l 136 0 l 136 972 l 250 972 l 533 318 q 546 286 540 303 q 558 253 552 269 q 570 285 564 269 q 583 318 576 301 l 865 972 l 981 972 l 981 0 l 860 0 l 860 597 q 861 654 860 622 q 863 704 862 685 q 842 650 854 681 q 819 594 830 619 l 558 -17 z "},"Ḿ":{"ha":1117,"x_min":136,"x_max":981,"o":"m 558 -17 l 294 597 q 273 650 284 622 q 253 703 261 679 q 256 653 255 684 q 257 597 257 622 l 257 0 l 136 0 l 136 972 l 250 972 l 533 318 q 546 286 540 303 q 558 253 552 269 q 570 285 564 269 q 583 318 576 301 l 865 972 l 981 972 l 981 0 l 860 0 l 860 597 q 861 654 860 622 q 863 704 862 685 q 842 650 854 681 q 819 594 830 619 l 558 -17 m 472 1063 l 669 1279 l 842 1279 l 594 1063 l 472 1063 z "},"N":{"ha":983,"x_min":136,"x_max":847,"o":"m 136 0 l 136 972 l 258 972 l 689 281 q 709 246 699 263 q 729 208 719 228 q 727 244 728 226 q 726 279 726 263 l 726 972 l 847 972 l 847 0 l 731 0 l 293 694 q 274 728 284 710 q 254 763 264 745 q 256 729 256 747 q 257 694 257 711 l 257 0 l 136 0 z "},"Ǌ":{"ha":1728,"x_min":136,"x_max":1596,"o":"m 136 0 l 136 972 l 258 972 l 689 281 q 709 246 699 263 q 729 208 719 228 q 727 244 728 226 q 726 279 726 263 l 726 972 l 847 972 l 847 0 l 731 0 l 293 694 q 274 728 284 710 q 254 763 264 745 q 256 729 256 747 q 257 694 257 711 l 257 0 l 136 0 m 1289 -17 q 1115 29 1184 -17 q 1008 158 1045 74 l 1108 210 q 1176 125 1137 153 q 1290 97 1215 97 q 1358 107 1325 97 q 1417 140 1390 116 q 1459 206 1444 163 q 1475 315 1475 249 l 1475 972 l 1596 972 l 1596 319 q 1568 153 1596 219 q 1493 51 1540 88 q 1394 -1 1447 14 q 1289 -17 1340 -17 z "},"Ń":{"ha":983,"x_min":136,"x_max":847,"o":"m 136 0 l 136 972 l 258 972 l 689 281 q 709 246 699 263 q 729 208 719 228 q 727 244 728 226 q 726 279 726 263 l 726 972 l 847 972 l 847 0 l 731 0 l 293 694 q 274 728 284 710 q 254 763 264 745 q 256 729 256 747 q 257 694 257 711 l 257 0 l 136 0 m 414 1063 l 611 1279 l 783 1279 l 536 1063 l 414 1063 z "},"Ň":{"ha":983,"x_min":136,"x_max":847,"o":"m 136 0 l 136 972 l 258 972 l 689 281 q 709 246 699 263 q 729 208 719 228 q 727 244 728 226 q 726 279 726 263 l 726 972 l 847 972 l 847 0 l 731 0 l 293 694 q 274 728 284 710 q 254 763 264 745 q 256 729 256 747 q 257 694 257 711 l 257 0 l 136 0 m 440 1063 l 238 1279 l 353 1279 l 499 1154 l 644 1279 l 758 1279 l 556 1063 l 440 1063 z "},"Ṋ":{"ha":983,"x_min":136,"x_max":847,"o":"m 136 0 l 136 972 l 258 972 l 689 281 q 709 246 699 263 q 729 208 719 228 q 727 244 728 226 q 726 279 726 263 l 726 972 l 847 972 l 847 0 l 731 0 l 293 694 q 274 728 284 710 q 254 763 264 745 q 256 729 256 747 q 257 694 257 711 l 257 0 l 136 0 m 232 -318 l 436 -101 l 550 -101 l 753 -318 l 639 -318 l 493 -193 l 347 -318 l 232 -318 z "},"Ņ":{"ha":983,"x_min":136,"x_max":847,"o":"m 136 0 l 136 972 l 258 972 l 689 281 q 709 246 699 263 q 729 208 719 228 q 727 244 728 226 q 726 279 726 263 l 726 972 l 847 972 l 847 0 l 731 0 l 293 694 q 274 728 284 710 q 254 763 264 745 q 256 729 256 747 q 257 694 257 711 l 257 0 l 136 0 m 469 -344 l 433 -326 q 467 -288 446 -315 q 494 -226 488 -262 q 435 -203 457 -226 q 413 -146 413 -179 q 437 -85 413 -108 q 493 -62 462 -62 q 552 -87 526 -62 q 578 -154 578 -111 q 551 -259 578 -210 q 469 -344 524 -307 z "},"Ṅ":{"ha":983,"x_min":136,"x_max":847,"o":"m 136 0 l 136 972 l 258 972 l 689 281 q 709 246 699 263 q 729 208 719 228 q 727 244 728 226 q 726 279 726 263 l 726 972 l 847 972 l 847 0 l 731 0 l 293 694 q 274 728 284 710 q 254 763 264 745 q 256 729 256 747 q 257 694 257 711 l 257 0 l 136 0 m 499 1094 q 444 1117 467 1094 q 422 1171 422 1139 q 444 1225 422 1203 q 499 1247 467 1247 q 553 1225 531 1247 q 575 1171 575 1203 q 553 1117 575 1139 q 499 1094 531 1094 z "},"Ṇ":{"ha":983,"x_min":136,"x_max":847,"o":"m 136 0 l 136 972 l 258 972 l 689 281 q 709 246 699 263 q 729 208 719 228 q 727 244 728 226 q 726 279 726 263 l 726 972 l 847 972 l 847 0 l 731 0 l 293 694 q 274 728 284 710 q 254 763 264 745 q 256 729 256 747 q 257 694 257 711 l 257 0 l 136 0 m 493 -275 q 439 -253 461 -275 q 417 -199 417 -231 q 439 -144 417 -166 q 493 -122 461 -122 q 548 -144 526 -122 q 569 -199 569 -166 q 548 -253 569 -231 q 493 -275 526 -275 z "},"Ǹ":{"ha":983,"x_min":136,"x_max":847,"o":"m 136 0 l 136 972 l 258 972 l 689 281 q 709 246 699 263 q 729 208 719 228 q 727 244 728 226 q 726 279 726 263 l 726 972 l 847 972 l 847 0 l 731 0 l 293 694 q 274 728 284 710 q 254 763 264 745 q 256 729 256 747 q 257 694 257 711 l 257 0 l 136 0 m 461 1063 l 214 1279 l 386 1279 l 583 1063 l 461 1063 z "},"Ɲ":{"ha":983,"x_min":-46,"x_max":847,"o":"m 11 -319 l -46 -228 q 65 -196 25 -217 q 120 -141 104 -175 q 136 -57 136 -107 l 136 972 l 258 972 l 689 281 q 709 246 699 264 q 729 208 719 228 q 727 244 728 226 q 726 279 726 263 l 726 972 l 847 972 l 847 0 l 731 0 l 293 694 q 274 728 283 710 q 254 763 264 745 q 256 729 256 747 q 257 694 257 711 l 257 -12 q 198 -225 257 -150 q 11 -319 140 -301 z "},"ǋ":{"ha":1336,"x_min":136,"x_max":1236,"o":"m 136 0 l 136 972 l 258 972 l 689 281 q 709 246 699 263 q 729 208 719 228 q 727 244 728 226 q 726 279 726 263 l 726 972 l 847 972 l 847 0 l 731 0 l 293 694 q 274 728 284 710 q 254 763 264 745 q 256 729 256 747 q 257 694 257 711 l 257 0 l 136 0 m 975 -297 l 918 -206 q 1059 -154 1017 -190 q 1100 -50 1100 -119 l 1100 710 l 1221 710 l 1221 -6 q 1161 -206 1221 -133 q 975 -297 1102 -279 m 1161 839 q 1107 861 1129 839 q 1085 914 1085 883 q 1107 969 1085 947 q 1161 992 1129 992 q 1214 969 1192 992 q 1236 914 1236 947 q 1215 861 1236 883 q 1161 839 1194 839 z "},"Ñ":{"ha":983,"x_min":136,"x_max":847,"o":"m 136 0 l 136 972 l 258 972 l 689 281 q 709 246 699 263 q 729 208 719 228 q 727 244 728 226 q 726 279 726 263 l 726 972 l 847 972 l 847 0 l 731 0 l 293 694 q 274 728 284 710 q 254 763 264 745 q 256 729 256 747 q 257 694 257 711 l 257 0 l 136 0 m 608 1089 q 536 1101 569 1089 q 475 1127 503 1114 q 427 1148 450 1139 q 379 1157 403 1157 q 335 1141 353 1157 q 314 1094 316 1126 l 251 1094 q 266 1184 251 1147 q 310 1241 280 1222 q 389 1261 340 1261 q 463 1248 429 1261 q 526 1222 497 1235 q 573 1201 550 1210 q 618 1192 596 1192 q 663 1208 644 1192 q 683 1256 681 1224 l 746 1256 q 732 1166 746 1203 q 687 1109 717 1129 q 608 1089 657 1089 z "},"Ŋ":{"ha":983,"x_min":136,"x_max":847,"o":"m 597 -339 l 540 -247 q 684 -184 647 -231 q 722 -71 722 -137 l 722 13 l 293 696 q 273 728 283 712 q 254 763 264 745 q 256 729 256 747 q 257 694 257 711 l 257 0 l 136 0 l 136 972 l 258 972 l 689 281 q 709 246 699 263 q 729 208 719 228 q 727 244 728 226 q 726 279 726 263 l 726 972 l 847 972 l 847 -36 q 831 -159 847 -101 q 772 -257 814 -216 q 690 -312 735 -293 q 597 -339 644 -331 z "},"O":{"ha":1014,"x_min":94,"x_max":919,"o":"m 507 -17 q 313 27 392 -17 q 186 145 234 72 q 116 307 138 218 q 94 486 94 396 q 116 665 94 576 q 186 827 138 754 q 313 945 234 901 q 507 989 392 989 q 701 945 622 989 q 828 827 781 901 q 898 665 876 754 q 919 486 919 576 q 898 307 919 396 q 828 145 876 218 q 701 27 781 72 q 507 -17 622 -17 m 507 97 q 642 133 588 97 q 731 226 697 168 q 780 352 765 284 q 794 486 794 421 q 780 627 794 558 q 731 752 765 696 q 642 843 697 809 q 507 876 588 876 q 372 841 427 876 q 284 748 317 806 q 235 621 250 690 q 219 486 219 552 q 235 345 219 415 q 284 220 250 276 q 372 131 317 164 q 507 97 427 97 z "},"Ó":{"ha":1014,"x_min":94,"x_max":919,"o":"m 507 -17 q 313 27 392 -17 q 186 145 234 72 q 116 307 138 218 q 94 486 94 396 q 116 665 94 576 q 186 827 138 754 q 313 945 234 901 q 507 989 392 989 q 701 945 622 989 q 828 827 781 901 q 898 665 876 754 q 919 486 919 576 q 898 307 919 396 q 828 145 876 218 q 701 27 781 72 q 507 -17 622 -17 m 507 97 q 642 133 588 97 q 731 226 697 168 q 780 352 765 284 q 794 486 794 421 q 780 627 794 558 q 731 752 765 696 q 642 843 697 809 q 507 876 588 876 q 372 841 427 876 q 284 748 317 806 q 235 621 250 690 q 219 486 219 552 q 235 345 219 415 q 284 220 250 276 q 372 131 317 164 q 507 97 427 97 m 422 1063 l 619 1279 l 792 1279 l 544 1063 l 422 1063 z "},"Ŏ":{"ha":1014,"x_min":94,"x_max":919,"o":"m 507 -17 q 313 27 392 -17 q 186 145 234 72 q 116 307 138 218 q 94 486 94 396 q 116 665 94 576 q 186 827 138 754 q 313 945 234 901 q 507 989 392 989 q 701 945 622 989 q 828 827 781 901 q 898 665 876 754 q 919 486 919 576 q 898 307 919 396 q 828 145 876 218 q 701 27 781 72 q 507 -17 622 -17 m 507 97 q 642 133 588 97 q 731 226 697 168 q 780 352 765 284 q 794 486 794 421 q 780 627 794 558 q 731 752 765 696 q 642 843 697 809 q 507 876 588 876 q 372 841 427 876 q 284 748 317 806 q 235 621 250 690 q 219 486 219 552 q 235 345 219 415 q 284 220 250 276 q 372 131 317 164 q 507 97 427 97 m 506 1067 q 372 1098 425 1067 q 293 1180 319 1128 q 267 1293 267 1231 l 376 1293 q 390 1227 376 1255 q 434 1183 405 1199 q 506 1168 463 1168 q 579 1183 549 1168 q 623 1227 608 1199 q 638 1293 638 1255 l 747 1293 q 720 1180 747 1231 q 641 1098 694 1128 q 506 1067 588 1067 z "},"Ǒ":{"ha":1014,"x_min":94,"x_max":919,"o":"m 507 -17 q 313 27 392 -17 q 186 145 234 72 q 116 307 138 218 q 94 486 94 396 q 116 665 94 576 q 186 827 138 754 q 313 945 234 901 q 507 989 392 989 q 701 945 622 989 q 828 827 781 901 q 898 665 876 754 q 919 486 919 576 q 898 307 919 396 q 828 145 876 218 q 701 27 781 72 q 507 -17 622 -17 m 507 97 q 642 133 588 97 q 731 226 697 168 q 780 352 765 284 q 794 486 794 421 q 780 627 794 558 q 731 752 765 696 q 642 843 697 809 q 507 876 588 876 q 372 841 427 876 q 284 748 317 806 q 235 621 250 690 q 219 486 219 552 q 235 345 219 415 q 284 220 250 276 q 372 131 317 164 q 507 97 427 97 m 449 1063 l 246 1279 l 361 1279 l 507 1154 l 653 1279 l 767 1279 l 564 1063 l 449 1063 z "},"Ô":{"ha":1014,"x_min":94,"x_max":919,"o":"m 507 -17 q 313 27 392 -17 q 186 145 234 72 q 116 307 138 218 q 94 486 94 396 q 116 665 94 576 q 186 827 138 754 q 313 945 234 901 q 507 989 392 989 q 701 945 622 989 q 828 827 781 901 q 898 665 876 754 q 919 486 919 576 q 898 307 919 396 q 828 145 876 218 q 701 27 781 72 q 507 -17 622 -17 m 507 97 q 642 133 588 97 q 731 226 697 168 q 780 352 765 284 q 794 486 794 421 q 780 627 794 558 q 731 752 765 696 q 642 843 697 809 q 507 876 588 876 q 372 841 427 876 q 284 748 317 806 q 235 621 250 690 q 219 486 219 552 q 235 345 219 415 q 284 220 250 276 q 372 131 317 164 q 507 97 427 97 m 247 1063 l 451 1279 l 565 1279 l 767 1063 l 653 1063 l 508 1188 l 362 1063 l 247 1063 z "},"Ố":{"ha":1014,"x_min":94,"x_max":1022,"o":"m 507 -17 q 313 27 392 -17 q 186 145 234 72 q 116 307 138 218 q 94 486 94 396 q 116 665 94 576 q 186 827 138 754 q 313 945 234 901 q 507 989 392 989 q 701 945 622 989 q 828 827 781 901 q 898 665 876 754 q 919 486 919 576 q 898 307 919 396 q 828 145 876 218 q 701 27 781 72 q 507 -17 622 -17 m 507 97 q 642 133 588 97 q 731 226 697 168 q 780 352 765 284 q 794 486 794 421 q 780 627 794 558 q 731 752 765 696 q 642 843 697 809 q 507 876 588 876 q 372 841 427 876 q 284 748 317 806 q 235 621 250 690 q 219 486 219 552 q 235 345 219 415 q 284 220 250 276 q 372 131 317 164 q 507 97 427 97 m 247 1063 l 451 1279 l 565 1279 l 767 1063 l 653 1063 l 508 1188 l 362 1063 l 247 1063 m 652 1257 l 849 1474 l 1022 1474 l 774 1257 l 652 1257 z "},"Ộ":{"ha":1014,"x_min":94,"x_max":919,"o":"m 507 -17 q 313 27 392 -17 q 186 145 234 72 q 116 307 138 218 q 94 486 94 396 q 116 665 94 576 q 186 827 138 754 q 313 945 234 901 q 507 989 392 989 q 701 945 622 989 q 828 827 781 901 q 898 665 876 754 q 919 486 919 576 q 898 307 919 396 q 828 145 876 218 q 701 27 781 72 q 507 -17 622 -17 m 507 97 q 642 133 588 97 q 731 226 697 168 q 780 352 765 284 q 794 486 794 421 q 780 627 794 558 q 731 752 765 696 q 642 843 697 809 q 507 876 588 876 q 372 841 427 876 q 284 748 317 806 q 235 621 250 690 q 219 486 219 552 q 235 345 219 415 q 284 220 250 276 q 372 131 317 164 q 507 97 427 97 m 507 -275 q 453 -253 475 -275 q 431 -199 431 -231 q 453 -144 431 -166 q 507 -122 475 -122 q 561 -144 540 -122 q 583 -199 583 -166 q 561 -253 583 -231 q 507 -275 540 -275 m 247 1063 l 451 1279 l 565 1279 l 767 1063 l 653 1063 l 508 1188 l 362 1063 l 247 1063 z "},"Ồ":{"ha":1014,"x_min":94,"x_max":919,"o":"m 507 -17 q 313 27 392 -17 q 186 145 234 72 q 116 307 138 218 q 94 486 94 396 q 116 665 94 576 q 186 827 138 754 q 313 945 234 901 q 507 989 392 989 q 701 945 622 989 q 828 827 781 901 q 898 665 876 754 q 919 486 919 576 q 898 307 919 396 q 828 145 876 218 q 701 27 781 72 q 507 -17 622 -17 m 507 97 q 642 133 588 97 q 731 226 697 168 q 780 352 765 284 q 794 486 794 421 q 780 627 794 558 q 731 752 765 696 q 642 843 697 809 q 507 876 588 876 q 372 841 427 876 q 284 748 317 806 q 235 621 250 690 q 219 486 219 552 q 235 345 219 415 q 284 220 250 276 q 372 131 317 164 q 507 97 427 97 m 247 1063 l 451 1279 l 565 1279 l 767 1063 l 653 1063 l 508 1188 l 362 1063 l 247 1063 m 723 1257 l 476 1474 l 648 1474 l 845 1257 l 723 1257 z "},"Ổ":{"ha":1014,"x_min":94,"x_max":919,"o":"m 507 -17 q 313 27 392 -17 q 186 145 234 72 q 116 307 138 218 q 94 486 94 396 q 116 665 94 576 q 186 827 138 754 q 313 945 234 901 q 507 989 392 989 q 701 945 622 989 q 828 827 781 901 q 898 665 876 754 q 919 486 919 576 q 898 307 919 396 q 828 145 876 218 q 701 27 781 72 q 507 -17 622 -17 m 507 97 q 642 133 588 97 q 731 226 697 168 q 780 352 765 284 q 794 486 794 421 q 780 627 794 558 q 731 752 765 696 q 642 843 697 809 q 507 876 588 876 q 372 841 427 876 q 284 748 317 806 q 235 621 250 690 q 219 486 219 552 q 235 345 219 415 q 284 220 250 276 q 372 131 317 164 q 507 97 427 97 m 247 1063 l 451 1279 l 565 1279 l 767 1063 l 653 1063 l 508 1188 l 362 1063 l 247 1063 m 458 1333 q 469 1396 458 1370 q 506 1443 480 1422 q 527 1464 522 1456 q 533 1482 533 1473 q 508 1504 533 1504 q 453 1460 478 1504 l 385 1504 q 431 1571 397 1546 q 508 1596 465 1596 q 595 1564 560 1596 q 629 1483 629 1531 q 611 1419 629 1443 q 574 1381 592 1395 q 558 1360 561 1372 q 556 1333 556 1349 l 458 1333 z "},"Ỗ":{"ha":1014,"x_min":94,"x_max":919,"o":"m 507 -17 q 313 27 392 -17 q 186 145 234 72 q 116 307 138 218 q 94 486 94 396 q 116 665 94 576 q 186 827 138 754 q 313 945 234 901 q 507 989 392 989 q 701 945 622 989 q 828 827 781 901 q 898 665 876 754 q 919 486 919 576 q 898 307 919 396 q 828 145 876 218 q 701 27 781 72 q 507 -17 622 -17 m 507 97 q 642 133 588 97 q 731 226 697 168 q 780 352 765 284 q 794 486 794 421 q 780 627 794 558 q 731 752 765 696 q 642 843 697 809 q 507 876 588 876 q 372 841 427 876 q 284 748 317 806 q 235 621 250 690 q 219 486 219 552 q 235 345 219 415 q 284 220 250 276 q 372 131 317 164 q 507 97 427 97 m 247 1063 l 451 1279 l 565 1279 l 767 1063 l 653 1063 l 508 1188 l 362 1063 l 247 1063 m 617 1368 q 545 1381 578 1368 q 484 1406 513 1393 q 436 1427 459 1418 q 388 1436 413 1436 q 344 1420 363 1436 q 323 1374 325 1405 l 260 1374 q 275 1463 260 1426 q 319 1520 289 1501 q 398 1540 349 1540 q 472 1527 438 1540 q 535 1501 506 1515 q 582 1480 559 1489 q 627 1471 605 1471 q 672 1487 653 1471 q 692 1535 690 1503 l 755 1535 q 741 1445 755 1483 q 696 1388 726 1408 q 617 1368 666 1368 z "},"Ȍ":{"ha":1014,"x_min":67,"x_max":919,"o":"m 507 -17 q 313 27 392 -17 q 186 145 234 72 q 116 307 138 218 q 94 486 94 396 q 116 665 94 576 q 186 827 138 754 q 313 945 234 901 q 507 989 392 989 q 701 945 622 989 q 828 827 781 901 q 898 665 876 754 q 919 486 919 576 q 898 307 919 396 q 828 145 876 218 q 701 27 781 72 q 507 -17 622 -17 m 507 97 q 642 133 588 97 q 731 226 697 168 q 780 352 765 284 q 794 486 794 421 q 780 627 794 558 q 731 752 765 696 q 642 843 697 809 q 507 876 588 876 q 372 841 427 876 q 284 748 317 806 q 235 621 250 690 q 219 486 219 552 q 235 345 219 415 q 284 220 250 276 q 372 131 317 164 q 507 97 427 97 m 314 1063 l 67 1279 l 239 1279 l 436 1063 l 314 1063 m 597 1063 l 350 1279 l 522 1279 l 719 1063 l 597 1063 z "},"Ö":{"ha":1014,"x_min":94,"x_max":919,"o":"m 507 -17 q 313 27 392 -17 q 186 145 234 72 q 116 307 138 218 q 94 486 94 396 q 116 665 94 576 q 186 827 138 754 q 313 945 234 901 q 507 989 392 989 q 701 945 622 989 q 828 827 781 901 q 898 665 876 754 q 919 486 919 576 q 898 307 919 396 q 828 145 876 218 q 701 27 781 72 q 507 -17 622 -17 m 507 97 q 642 133 588 97 q 731 226 697 168 q 780 352 765 284 q 794 486 794 421 q 780 627 794 558 q 731 752 765 696 q 642 843 697 809 q 507 876 588 876 q 372 841 427 876 q 284 748 317 806 q 235 621 250 690 q 219 486 219 552 q 235 345 219 415 q 284 220 250 276 q 372 131 317 164 q 507 97 427 97 m 636 1094 q 582 1117 605 1094 q 560 1171 560 1139 q 582 1225 560 1203 q 636 1247 605 1247 q 691 1225 669 1247 q 713 1171 713 1203 q 691 1117 713 1139 q 636 1094 669 1094 m 378 1094 q 324 1117 347 1094 q 301 1171 301 1139 q 324 1225 301 1203 q 378 1247 347 1247 q 432 1225 410 1247 q 454 1171 454 1203 q 432 1117 454 1139 q 378 1094 410 1094 z "},"Ȫ":{"ha":1014,"x_min":94,"x_max":919,"o":"m 507 -17 q 313 27 392 -17 q 186 145 234 72 q 116 307 138 218 q 94 486 94 396 q 116 665 94 576 q 186 827 138 754 q 313 945 234 901 q 507 989 392 989 q 701 945 622 989 q 828 827 781 901 q 898 665 876 754 q 919 486 919 576 q 898 307 919 396 q 828 145 876 218 q 701 27 781 72 q 507 -17 622 -17 m 507 97 q 642 133 588 97 q 731 226 697 168 q 780 352 765 284 q 794 486 794 421 q 780 627 794 558 q 731 752 765 696 q 642 843 697 809 q 507 876 588 876 q 372 841 427 876 q 284 748 317 806 q 235 621 250 690 q 219 486 219 552 q 235 345 219 415 q 284 220 250 276 q 372 131 317 164 q 507 97 427 97 m 626 1101 q 573 1124 595 1101 q 550 1178 550 1146 q 573 1232 550 1210 q 626 1254 595 1254 q 681 1232 659 1254 q 703 1178 703 1210 q 681 1124 703 1146 q 626 1101 659 1101 m 386 1101 q 332 1124 355 1101 q 310 1178 310 1146 q 332 1232 310 1210 q 386 1254 355 1254 q 441 1232 419 1254 q 463 1178 463 1210 q 441 1124 463 1146 q 386 1101 419 1101 m 278 1382 l 278 1485 l 736 1485 l 736 1382 l 278 1382 z "},"Ȯ":{"ha":1014,"x_min":94,"x_max":919,"o":"m 507 -17 q 313 27 392 -17 q 186 145 234 72 q 116 307 138 218 q 94 486 94 396 q 116 665 94 576 q 186 827 138 754 q 313 945 234 901 q 507 989 392 989 q 701 945 622 989 q 828 827 781 901 q 898 665 876 754 q 919 486 919 576 q 898 307 919 396 q 828 145 876 218 q 701 27 781 72 q 507 -17 622 -17 m 507 97 q 642 133 588 97 q 731 226 697 168 q 780 352 765 284 q 794 486 794 421 q 780 627 794 558 q 731 752 765 696 q 642 843 697 809 q 507 876 588 876 q 372 841 427 876 q 284 748 317 806 q 235 621 250 690 q 219 486 219 552 q 235 345 219 415 q 284 220 250 276 q 372 131 317 164 q 507 97 427 97 m 507 1094 q 453 1117 475 1094 q 431 1171 431 1139 q 453 1225 431 1203 q 507 1247 475 1247 q 561 1225 540 1247 q 583 1171 583 1203 q 561 1117 583 1139 q 507 1094 540 1094 z "},"Ȱ":{"ha":1014,"x_min":94,"x_max":919,"o":"m 507 -17 q 313 27 392 -17 q 186 145 234 72 q 116 307 138 218 q 94 486 94 396 q 116 665 94 576 q 186 827 138 754 q 313 945 234 901 q 507 989 392 989 q 701 945 622 989 q 828 827 781 901 q 898 665 876 754 q 919 486 919 576 q 898 307 919 396 q 828 145 876 218 q 701 27 781 72 q 507 -17 622 -17 m 507 97 q 642 133 588 97 q 731 226 697 168 q 780 352 765 284 q 794 486 794 421 q 780 627 794 558 q 731 752 765 696 q 642 843 697 809 q 507 876 588 876 q 372 841 427 876 q 284 748 317 806 q 235 621 250 690 q 219 486 219 552 q 235 345 219 415 q 284 220 250 276 q 372 131 317 164 q 507 97 427 97 m 507 1094 q 453 1117 475 1094 q 431 1171 431 1139 q 453 1225 431 1203 q 507 1247 475 1247 q 561 1225 540 1247 q 583 1171 583 1203 q 561 1117 583 1139 q 507 1094 540 1094 m 278 1375 l 278 1478 l 736 1478 l 736 1375 l 278 1375 z "},"Ọ":{"ha":1014,"x_min":94,"x_max":919,"o":"m 507 -17 q 313 27 392 -17 q 186 145 234 72 q 116 307 138 218 q 94 486 94 396 q 116 665 94 576 q 186 827 138 754 q 313 945 234 901 q 507 989 392 989 q 701 945 622 989 q 828 827 781 901 q 898 665 876 754 q 919 486 919 576 q 898 307 919 396 q 828 145 876 218 q 701 27 781 72 q 507 -17 622 -17 m 507 97 q 642 133 588 97 q 731 226 697 168 q 780 352 765 284 q 794 486 794 421 q 780 627 794 558 q 731 752 765 696 q 642 843 697 809 q 507 876 588 876 q 372 841 427 876 q 284 748 317 806 q 235 621 250 690 q 219 486 219 552 q 235 345 219 415 q 284 220 250 276 q 372 131 317 164 q 507 97 427 97 m 507 -275 q 453 -253 475 -275 q 431 -199 431 -231 q 453 -144 431 -166 q 507 -122 475 -122 q 561 -144 540 -122 q 583 -199 583 -166 q 561 -253 583 -231 q 507 -275 540 -275 z "},"Ò":{"ha":1014,"x_min":94,"x_max":919,"o":"m 507 -17 q 313 27 392 -17 q 186 145 234 72 q 116 307 138 218 q 94 486 94 396 q 116 665 94 576 q 186 827 138 754 q 313 945 234 901 q 507 989 392 989 q 701 945 622 989 q 828 827 781 901 q 898 665 876 754 q 919 486 919 576 q 898 307 919 396 q 828 145 876 218 q 701 27 781 72 q 507 -17 622 -17 m 507 97 q 642 133 588 97 q 731 226 697 168 q 780 352 765 284 q 794 486 794 421 q 780 627 794 558 q 731 752 765 696 q 642 843 697 809 q 507 876 588 876 q 372 841 427 876 q 284 748 317 806 q 235 621 250 690 q 219 486 219 552 q 235 345 219 415 q 284 220 250 276 q 372 131 317 164 q 507 97 427 97 m 469 1063 l 222 1279 l 394 1279 l 592 1063 l 469 1063 z "},"Ỏ":{"ha":1014,"x_min":94,"x_max":919,"o":"m 507 -17 q 313 27 392 -17 q 186 145 234 72 q 116 307 138 218 q 94 486 94 396 q 116 665 94 576 q 186 827 138 754 q 313 945 234 901 q 507 989 392 989 q 701 945 622 989 q 828 827 781 901 q 898 665 876 754 q 919 486 919 576 q 898 307 919 396 q 828 145 876 218 q 701 27 781 72 q 507 -17 622 -17 m 507 97 q 642 133 588 97 q 731 226 697 168 q 780 352 765 284 q 794 486 794 421 q 780 627 794 558 q 731 752 765 696 q 642 843 697 809 q 507 876 588 876 q 372 841 427 876 q 284 748 317 806 q 235 621 250 690 q 219 486 219 552 q 235 345 219 415 q 284 220 250 276 q 372 131 317 164 q 507 97 427 97 m 458 1026 q 469 1089 458 1063 q 506 1136 480 1115 q 527 1157 522 1149 q 533 1175 533 1166 q 508 1197 533 1197 q 453 1153 478 1197 l 385 1197 q 431 1264 397 1239 q 508 1289 465 1289 q 595 1257 560 1289 q 629 1176 629 1224 q 611 1112 629 1136 q 574 1074 592 1088 q 558 1053 561 1065 q 556 1026 556 1042 l 458 1026 z "},"Ơ":{"ha":1133,"x_min":94,"x_max":1113,"o":"m 507 -17 q 313 27 392 -17 q 186 145 234 72 q 116 307 138 218 q 94 486 94 396 q 116 665 94 576 q 186 827 138 754 q 313 945 234 901 q 507 989 392 989 q 701 945 622 989 q 828 827 781 901 q 898 665 876 754 q 919 486 919 576 q 898 307 919 396 q 828 145 876 218 q 701 27 781 72 q 507 -17 622 -17 m 507 97 q 642 133 588 97 q 731 226 697 168 q 780 352 765 284 q 794 486 794 421 q 780 627 794 558 q 731 752 765 696 q 642 843 697 809 q 507 876 588 876 q 372 841 427 876 q 284 748 317 806 q 235 621 250 690 q 219 486 219 552 q 235 345 219 415 q 284 220 250 276 q 372 131 317 164 q 507 97 427 97 m 843 553 l 843 644 q 958 699 924 661 q 992 800 992 737 l 992 972 l 1113 972 l 1113 844 q 1101 739 1113 788 q 1060 653 1090 690 q 965 582 1019 603 q 843 553 912 560 z "},"Ớ":{"ha":1133,"x_min":94,"x_max":1113,"o":"m 507 -17 q 313 27 392 -17 q 186 145 234 72 q 116 307 138 218 q 94 486 94 396 q 116 665 94 576 q 186 827 138 754 q 313 945 234 901 q 507 989 392 989 q 701 945 622 989 q 828 827 781 901 q 898 665 876 754 q 919 486 919 576 q 898 307 919 396 q 828 145 876 218 q 701 27 781 72 q 507 -17 622 -17 m 507 97 q 642 133 588 97 q 731 226 697 168 q 780 352 765 284 q 794 486 794 421 q 780 627 794 558 q 731 752 765 696 q 642 843 697 809 q 507 876 588 876 q 372 841 427 876 q 284 748 317 806 q 235 621 250 690 q 219 486 219 552 q 235 345 219 415 q 284 220 250 276 q 372 131 317 164 q 507 97 427 97 m 843 553 l 843 644 q 958 699 924 661 q 992 800 992 737 l 992 972 l 1113 972 l 1113 844 q 1101 739 1113 788 q 1060 653 1090 690 q 965 582 1019 603 q 843 553 912 560 m 422 1063 l 619 1279 l 792 1279 l 544 1063 l 422 1063 z "},"Ợ":{"ha":1133,"x_min":94,"x_max":1113,"o":"m 507 -17 q 313 27 392 -17 q 186 145 234 72 q 116 307 138 218 q 94 486 94 396 q 116 665 94 576 q 186 827 138 754 q 313 945 234 901 q 507 989 392 989 q 701 945 622 989 q 828 827 781 901 q 898 665 876 754 q 919 486 919 576 q 898 307 919 396 q 828 145 876 218 q 701 27 781 72 q 507 -17 622 -17 m 507 97 q 642 133 588 97 q 731 226 697 168 q 780 352 765 284 q 794 486 794 421 q 780 627 794 558 q 731 752 765 696 q 642 843 697 809 q 507 876 588 876 q 372 841 427 876 q 284 748 317 806 q 235 621 250 690 q 219 486 219 552 q 235 345 219 415 q 284 220 250 276 q 372 131 317 164 q 507 97 427 97 m 843 553 l 843 644 q 958 699 924 661 q 992 800 992 737 l 992 972 l 1113 972 l 1113 844 q 1101 739 1113 788 q 1060 653 1090 690 q 965 582 1019 603 q 843 553 912 560 m 507 -275 q 453 -253 475 -275 q 431 -199 431 -231 q 453 -144 431 -166 q 507 -122 475 -122 q 561 -144 540 -122 q 583 -199 583 -166 q 561 -253 583 -231 q 507 -275 540 -275 z "},"Ờ":{"ha":1133,"x_min":94,"x_max":1113,"o":"m 507 -17 q 313 27 392 -17 q 186 145 234 72 q 116 307 138 218 q 94 486 94 396 q 116 665 94 576 q 186 827 138 754 q 313 945 234 901 q 507 989 392 989 q 701 945 622 989 q 828 827 781 901 q 898 665 876 754 q 919 486 919 576 q 898 307 919 396 q 828 145 876 218 q 701 27 781 72 q 507 -17 622 -17 m 507 97 q 642 133 588 97 q 731 226 697 168 q 780 352 765 284 q 794 486 794 421 q 780 627 794 558 q 731 752 765 696 q 642 843 697 809 q 507 876 588 876 q 372 841 427 876 q 284 748 317 806 q 235 621 250 690 q 219 486 219 552 q 235 345 219 415 q 284 220 250 276 q 372 131 317 164 q 507 97 427 97 m 843 553 l 843 644 q 958 699 924 661 q 992 800 992 737 l 992 972 l 1113 972 l 1113 844 q 1101 739 1113 788 q 1060 653 1090 690 q 965 582 1019 603 q 843 553 912 560 m 469 1063 l 222 1279 l 394 1279 l 592 1063 l 469 1063 z "},"Ở":{"ha":1133,"x_min":94,"x_max":1113,"o":"m 507 -17 q 313 27 392 -17 q 186 145 234 72 q 116 307 138 218 q 94 486 94 396 q 116 665 94 576 q 186 827 138 754 q 313 945 234 901 q 507 989 392 989 q 701 945 622 989 q 828 827 781 901 q 898 665 876 754 q 919 486 919 576 q 898 307 919 396 q 828 145 876 218 q 701 27 781 72 q 507 -17 622 -17 m 507 97 q 642 133 588 97 q 731 226 697 168 q 780 352 765 284 q 794 486 794 421 q 780 627 794 558 q 731 752 765 696 q 642 843 697 809 q 507 876 588 876 q 372 841 427 876 q 284 748 317 806 q 235 621 250 690 q 219 486 219 552 q 235 345 219 415 q 284 220 250 276 q 372 131 317 164 q 507 97 427 97 m 843 553 l 843 644 q 958 699 924 661 q 992 800 992 737 l 992 972 l 1113 972 l 1113 844 q 1101 739 1113 788 q 1060 653 1090 690 q 965 582 1019 603 q 843 553 912 560 m 458 1026 q 469 1089 458 1063 q 506 1136 480 1115 q 527 1157 522 1149 q 533 1175 533 1166 q 508 1197 533 1197 q 453 1153 478 1197 l 385 1197 q 431 1264 397 1239 q 508 1289 465 1289 q 595 1257 560 1289 q 629 1176 629 1224 q 611 1112 629 1136 q 574 1074 592 1088 q 558 1053 561 1065 q 556 1026 556 1042 l 458 1026 z "},"Ỡ":{"ha":1133,"x_min":94,"x_max":1113,"o":"m 507 -17 q 313 27 392 -17 q 186 145 234 72 q 116 307 138 218 q 94 486 94 396 q 116 665 94 576 q 186 827 138 754 q 313 945 234 901 q 507 989 392 989 q 701 945 622 989 q 828 827 781 901 q 898 665 876 754 q 919 486 919 576 q 898 307 919 396 q 828 145 876 218 q 701 27 781 72 q 507 -17 622 -17 m 507 97 q 642 133 588 97 q 731 226 697 168 q 780 352 765 284 q 794 486 794 421 q 780 627 794 558 q 731 752 765 696 q 642 843 697 809 q 507 876 588 876 q 372 841 427 876 q 284 748 317 806 q 235 621 250 690 q 219 486 219 552 q 235 345 219 415 q 284 220 250 276 q 372 131 317 164 q 507 97 427 97 m 843 553 l 843 644 q 958 699 924 661 q 992 800 992 737 l 992 972 l 1113 972 l 1113 844 q 1101 739 1113 788 q 1060 653 1090 690 q 965 582 1019 603 q 843 553 912 560 m 617 1089 q 545 1101 578 1089 q 483 1127 512 1114 q 435 1148 458 1139 q 388 1157 412 1157 q 343 1141 362 1157 q 322 1094 324 1126 l 260 1094 q 274 1184 260 1147 q 318 1241 288 1222 q 397 1261 349 1261 q 471 1248 438 1261 q 534 1222 505 1235 q 581 1201 558 1210 q 626 1192 604 1192 q 671 1208 653 1192 q 692 1256 690 1224 l 754 1256 q 740 1166 754 1203 q 695 1109 726 1129 q 617 1089 665 1089 z "},"Ő":{"ha":1014,"x_min":94,"x_max":936,"o":"m 507 -17 q 313 27 392 -17 q 186 145 234 72 q 116 307 138 218 q 94 486 94 396 q 116 665 94 576 q 186 827 138 754 q 313 945 234 901 q 507 989 392 989 q 701 945 622 989 q 828 827 781 901 q 898 665 876 754 q 919 486 919 576 q 898 307 919 396 q 828 145 876 218 q 701 27 781 72 q 507 -17 622 -17 m 507 97 q 642 133 588 97 q 731 226 697 168 q 780 352 765 284 q 794 486 794 421 q 780 627 794 558 q 731 752 765 696 q 642 843 697 809 q 507 876 588 876 q 372 841 427 876 q 284 748 317 806 q 235 621 250 690 q 219 486 219 552 q 235 345 219 415 q 284 220 250 276 q 372 131 317 164 q 507 97 427 97 m 567 1063 l 764 1279 l 936 1279 l 689 1063 l 567 1063 m 283 1063 l 481 1279 l 653 1279 l 406 1063 l 283 1063 z "},"Ȏ":{"ha":1014,"x_min":94,"x_max":919,"o":"m 507 -17 q 313 27 392 -17 q 186 145 234 72 q 116 307 138 218 q 94 486 94 396 q 116 665 94 576 q 186 827 138 754 q 313 945 234 901 q 507 989 392 989 q 701 945 622 989 q 828 827 781 901 q 898 665 876 754 q 919 486 919 576 q 898 307 919 396 q 828 145 876 218 q 701 27 781 72 q 507 -17 622 -17 m 507 97 q 642 133 588 97 q 731 226 697 168 q 780 352 765 284 q 794 486 794 421 q 780 627 794 558 q 731 752 765 696 q 642 843 697 809 q 507 876 588 876 q 372 841 427 876 q 284 748 317 806 q 235 621 250 690 q 219 486 219 552 q 235 345 219 415 q 284 220 250 276 q 372 131 317 164 q 507 97 427 97 m 267 1067 q 293 1180 267 1128 q 373 1262 319 1231 q 508 1293 426 1293 q 631 1266 581 1293 q 708 1194 681 1240 q 745 1094 736 1149 q 747 1081 747 1088 q 747 1067 747 1074 l 638 1067 q 638 1081 638 1074 q 635 1094 637 1088 q 596 1166 628 1140 q 508 1192 563 1192 q 435 1176 465 1192 q 391 1133 406 1161 q 376 1067 376 1105 l 267 1067 z "},"Ō":{"ha":1014,"x_min":94,"x_max":919,"o":"m 507 -17 q 313 27 392 -17 q 186 145 234 72 q 116 307 138 218 q 94 486 94 396 q 116 665 94 576 q 186 827 138 754 q 313 945 234 901 q 507 989 392 989 q 701 945 622 989 q 828 827 781 901 q 898 665 876 754 q 919 486 919 576 q 898 307 919 396 q 828 145 876 218 q 701 27 781 72 q 507 -17 622 -17 m 507 97 q 642 133 588 97 q 731 226 697 168 q 780 352 765 284 q 794 486 794 421 q 780 627 794 558 q 731 752 765 696 q 642 843 697 809 q 507 876 588 876 q 372 841 427 876 q 284 748 317 806 q 235 621 250 690 q 219 486 219 552 q 235 345 219 415 q 284 220 250 276 q 372 131 317 164 q 507 97 427 97 m 278 1100 l 278 1203 l 736 1203 l 736 1100 l 278 1100 z "},"Ṓ":{"ha":1014,"x_min":94,"x_max":919,"o":"m 507 -17 q 313 27 392 -17 q 186 145 234 72 q 116 307 138 218 q 94 486 94 396 q 116 665 94 576 q 186 827 138 754 q 313 945 234 901 q 507 989 392 989 q 701 945 622 989 q 828 827 781 901 q 898 665 876 754 q 919 486 919 576 q 898 307 919 396 q 828 145 876 218 q 701 27 781 72 q 507 -17 622 -17 m 507 97 q 642 133 588 97 q 731 226 697 168 q 780 352 765 284 q 794 486 794 421 q 780 627 794 558 q 731 752 765 696 q 642 843 697 809 q 507 876 588 876 q 372 841 427 876 q 284 748 317 806 q 235 621 250 690 q 219 486 219 552 q 235 345 219 415 q 284 220 250 276 q 372 131 317 164 q 507 97 427 97 m 278 1100 l 278 1203 l 736 1203 l 736 1100 l 278 1100 m 422 1293 l 619 1510 l 792 1510 l 544 1293 l 422 1293 z "},"Ṑ":{"ha":1014,"x_min":94,"x_max":919,"o":"m 507 -17 q 313 27 392 -17 q 186 145 234 72 q 116 307 138 218 q 94 486 94 396 q 116 665 94 576 q 186 827 138 754 q 313 945 234 901 q 507 989 392 989 q 701 945 622 989 q 828 827 781 901 q 898 665 876 754 q 919 486 919 576 q 898 307 919 396 q 828 145 876 218 q 701 27 781 72 q 507 -17 622 -17 m 507 97 q 642 133 588 97 q 731 226 697 168 q 780 352 765 284 q 794 486 794 421 q 780 627 794 558 q 731 752 765 696 q 642 843 697 809 q 507 876 588 876 q 372 841 427 876 q 284 748 317 806 q 235 621 250 690 q 219 486 219 552 q 235 345 219 415 q 284 220 250 276 q 372 131 317 164 q 507 97 427 97 m 278 1100 l 278 1203 l 736 1203 l 736 1100 l 278 1100 m 469 1293 l 222 1510 l 394 1510 l 592 1293 l 469 1293 z "},"Ǫ":{"ha":1014,"x_min":94,"x_max":919,"o":"m 507 -17 q 313 27 392 -17 q 186 145 234 72 q 116 307 138 218 q 94 486 94 396 q 116 665 94 576 q 186 827 138 754 q 313 945 234 901 q 507 989 392 989 q 701 945 622 989 q 828 827 781 901 q 898 665 876 754 q 919 486 919 576 q 898 307 919 396 q 828 145 876 218 q 701 27 781 72 q 507 -17 622 -17 m 507 97 q 642 133 588 97 q 731 226 697 168 q 780 352 765 284 q 794 486 794 421 q 780 627 794 558 q 731 752 765 696 q 642 843 697 809 q 507 876 588 876 q 372 841 427 876 q 284 748 317 806 q 235 621 250 690 q 219 486 219 552 q 235 345 219 415 q 284 220 250 276 q 372 131 317 164 q 507 97 427 97 m 550 -329 q 436 -293 483 -329 q 390 -189 390 -256 q 441 -68 390 -120 q 581 14 492 -15 l 671 14 q 569 -43 608 -12 q 510 -109 529 -75 q 492 -176 492 -143 q 514 -234 492 -216 q 564 -253 536 -253 q 605 -243 589 -253 q 631 -224 622 -234 l 693 -269 q 637 -311 672 -292 q 550 -329 602 -329 z "},"Ǭ":{"ha":1014,"x_min":94,"x_max":919,"o":"m 507 -17 q 313 27 392 -17 q 186 145 234 72 q 116 307 138 218 q 94 486 94 396 q 116 665 94 576 q 186 827 138 754 q 313 945 234 901 q 507 989 392 989 q 701 945 622 989 q 828 827 781 901 q 898 665 876 754 q 919 486 919 576 q 898 307 919 396 q 828 145 876 218 q 701 27 781 72 q 507 -17 622 -17 m 507 97 q 642 133 588 97 q 731 226 697 168 q 780 352 765 284 q 794 486 794 421 q 780 627 794 558 q 731 752 765 696 q 642 843 697 809 q 507 876 588 876 q 372 841 427 876 q 284 748 317 806 q 235 621 250 690 q 219 486 219 552 q 235 345 219 415 q 284 220 250 276 q 372 131 317 164 q 507 97 427 97 m 550 -329 q 436 -293 483 -329 q 390 -189 390 -256 q 441 -68 390 -120 q 581 14 492 -15 l 671 14 q 569 -43 608 -12 q 510 -109 529 -75 q 492 -176 492 -143 q 514 -234 492 -216 q 564 -253 536 -253 q 605 -243 589 -253 q 631 -224 622 -234 l 693 -269 q 637 -311 672 -292 q 550 -329 602 -329 m 278 1100 l 278 1203 l 736 1203 l 736 1100 l 278 1100 z "},"Ɔ":{"ha":922,"x_min":79,"x_max":828,"o":"m 416 -17 q 260 10 326 -17 q 149 82 194 37 q 79 179 104 126 l 190 221 q 243 157 213 185 q 316 113 274 129 q 416 97 358 97 q 547 130 492 97 q 636 219 601 163 q 686 344 670 275 q 703 486 703 414 q 689 622 703 553 q 643 748 676 690 q 556 841 611 806 q 416 876 500 876 q 319 861 359 876 q 250 818 279 845 q 197 758 222 792 l 88 814 q 156 896 112 856 q 265 963 199 936 q 416 989 330 989 q 609 945 531 989 q 736 829 688 902 q 806 667 784 756 q 828 486 828 578 q 806 304 828 394 q 736 142 784 215 q 609 26 688 69 q 416 -17 530 -17 z "},"Ø":{"ha":1014,"x_min":94,"x_max":919,"o":"m 106 -17 l 200 124 q 119 293 143 197 q 94 486 94 390 q 116 665 94 576 q 185 827 138 754 q 313 945 233 901 q 507 989 392 989 q 635 970 578 989 q 738 921 693 952 l 783 989 l 908 989 l 813 849 q 895 680 870 776 q 919 486 919 583 q 898 307 919 396 q 828 145 876 218 q 701 27 780 72 q 507 -17 622 -17 q 378 2 435 -17 q 275 53 320 21 l 228 -17 l 106 -17 m 507 97 q 642 133 587 97 q 730 226 697 168 q 779 352 764 284 q 794 486 794 421 q 781 619 794 553 q 738 738 768 685 l 342 151 q 414 112 373 126 q 507 97 455 97 m 275 235 l 671 821 q 598 862 639 847 q 507 876 557 876 q 372 841 427 876 q 283 748 317 806 q 234 621 249 690 q 219 486 219 552 q 232 354 219 419 q 275 235 245 288 z "},"Ǿ":{"ha":1014,"x_min":94,"x_max":919,"o":"m 106 -17 l 200 124 q 119 293 143 197 q 94 486 94 390 q 116 665 94 576 q 185 827 138 754 q 313 945 233 901 q 507 989 392 989 q 635 970 578 989 q 738 921 693 952 l 783 989 l 908 989 l 813 849 q 895 680 870 776 q 919 486 919 583 q 898 307 919 396 q 828 145 876 218 q 701 27 780 72 q 507 -17 622 -17 q 378 2 435 -17 q 275 53 320 21 l 228 -17 l 106 -17 m 507 97 q 642 133 587 97 q 730 226 697 168 q 779 352 764 284 q 794 486 794 421 q 781 619 794 553 q 738 738 768 685 l 342 151 q 414 112 373 126 q 507 97 455 97 m 275 235 l 671 821 q 598 862 639 847 q 507 876 557 876 q 372 841 427 876 q 283 748 317 806 q 234 621 249 690 q 219 486 219 552 q 232 354 219 419 q 275 235 245 288 m 422 1063 l 619 1279 l 792 1279 l 544 1063 l 422 1063 z "},"Õ":{"ha":1014,"x_min":94,"x_max":919,"o":"m 507 -17 q 313 27 392 -17 q 186 145 234 72 q 116 307 138 218 q 94 486 94 396 q 116 665 94 576 q 186 827 138 754 q 313 945 234 901 q 507 989 392 989 q 701 945 622 989 q 828 827 781 901 q 898 665 876 754 q 919 486 919 576 q 898 307 919 396 q 828 145 876 218 q 701 27 781 72 q 507 -17 622 -17 m 507 97 q 642 133 588 97 q 731 226 697 168 q 780 352 765 284 q 794 486 794 421 q 780 627 794 558 q 731 752 765 696 q 642 843 697 809 q 507 876 588 876 q 372 841 427 876 q 284 748 317 806 q 235 621 250 690 q 219 486 219 552 q 235 345 219 415 q 284 220 250 276 q 372 131 317 164 q 507 97 427 97 m 617 1089 q 545 1101 578 1089 q 483 1127 512 1114 q 435 1148 458 1139 q 388 1157 412 1157 q 343 1141 362 1157 q 322 1094 324 1126 l 260 1094 q 274 1184 260 1147 q 318 1241 288 1222 q 397 1261 349 1261 q 471 1248 438 1261 q 534 1222 505 1235 q 581 1201 558 1210 q 626 1192 604 1192 q 671 1208 653 1192 q 692 1256 690 1224 l 754 1256 q 740 1166 754 1203 q 695 1109 726 1129 q 617 1089 665 1089 z "},"Ṍ":{"ha":1014,"x_min":94,"x_max":919,"o":"m 507 -17 q 313 27 392 -17 q 186 145 234 72 q 116 307 138 218 q 94 486 94 396 q 116 665 94 576 q 186 827 138 754 q 313 945 234 901 q 507 989 392 989 q 701 945 622 989 q 828 827 781 901 q 898 665 876 754 q 919 486 919 576 q 898 307 919 396 q 828 145 876 218 q 701 27 781 72 q 507 -17 622 -17 m 507 97 q 642 133 588 97 q 731 226 697 168 q 780 352 765 284 q 794 486 794 421 q 780 627 794 558 q 731 752 765 696 q 642 843 697 809 q 507 876 588 876 q 372 841 427 876 q 284 748 317 806 q 235 621 250 690 q 219 486 219 552 q 235 345 219 415 q 284 220 250 276 q 372 131 317 164 q 507 97 427 97 m 617 1089 q 545 1101 578 1089 q 483 1127 512 1114 q 435 1148 458 1139 q 388 1157 412 1157 q 343 1141 362 1157 q 322 1094 324 1126 l 260 1094 q 274 1184 260 1147 q 318 1241 288 1222 q 397 1261 349 1261 q 471 1248 438 1261 q 534 1222 505 1235 q 581 1201 558 1210 q 626 1192 604 1192 q 671 1208 653 1192 q 692 1256 690 1224 l 754 1256 q 740 1166 754 1203 q 695 1109 726 1129 q 617 1089 665 1089 m 422 1351 l 619 1568 l 792 1568 l 544 1351 l 422 1351 z "},"Ȭ":{"ha":1014,"x_min":94,"x_max":919,"o":"m 507 -17 q 313 27 392 -17 q 186 145 234 72 q 116 307 138 218 q 94 486 94 396 q 116 665 94 576 q 186 827 138 754 q 313 945 234 901 q 507 989 392 989 q 701 945 622 989 q 828 827 781 901 q 898 665 876 754 q 919 486 919 576 q 898 307 919 396 q 828 145 876 218 q 701 27 781 72 q 507 -17 622 -17 m 507 97 q 642 133 588 97 q 731 226 697 168 q 780 352 765 284 q 794 486 794 421 q 780 627 794 558 q 731 752 765 696 q 642 843 697 809 q 507 876 588 876 q 372 841 427 876 q 284 748 317 806 q 235 621 250 690 q 219 486 219 552 q 235 345 219 415 q 284 220 250 276 q 372 131 317 164 q 507 97 427 97 m 617 1089 q 545 1101 578 1089 q 483 1127 512 1114 q 435 1148 458 1139 q 388 1157 412 1157 q 343 1141 362 1157 q 322 1094 324 1126 l 260 1094 q 274 1184 260 1147 q 318 1241 288 1222 q 397 1261 349 1261 q 471 1248 438 1261 q 534 1222 505 1235 q 581 1201 558 1210 q 626 1192 604 1192 q 671 1208 653 1192 q 692 1256 690 1224 l 754 1256 q 740 1166 754 1203 q 695 1109 726 1129 q 617 1089 665 1089 m 278 1389 l 278 1492 l 736 1492 l 736 1389 l 278 1389 z "},"Œ":{"ha":1282,"x_min":94,"x_max":1194,"o":"m 507 -17 q 313 27 392 -17 q 186 144 234 71 q 116 307 138 217 q 94 486 94 396 q 116 663 94 574 q 185 825 137 751 q 312 944 233 899 q 507 989 391 989 q 591 981 553 989 q 660 961 630 974 l 660 972 l 1164 972 l 1164 858 l 781 858 l 781 560 l 1008 560 l 1008 446 l 781 446 l 781 115 l 1194 115 l 1194 0 l 660 0 l 660 11 q 588 -9 628 -2 q 507 -17 549 -17 m 507 97 q 591 109 554 97 q 660 143 628 122 l 660 831 q 592 865 630 853 q 507 876 554 876 q 372 841 427 876 q 283 747 317 805 q 234 620 249 689 q 219 486 219 552 q 235 344 219 414 q 284 219 250 275 q 372 130 317 163 q 507 97 427 97 z "},"P":{"ha":875,"x_min":136,"x_max":822,"o":"m 136 0 l 136 972 l 508 972 q 695 930 626 972 q 793 820 764 887 q 822 681 822 753 q 805 580 822 631 q 751 485 788 528 q 653 416 713 442 q 508 390 594 390 l 257 390 l 257 0 l 136 0 m 257 503 l 517 503 q 626 530 585 503 q 684 598 667 557 q 701 681 701 639 q 686 760 701 719 q 630 831 670 802 q 517 860 590 860 l 257 860 l 257 503 z "},"Ƥ":{"ha":1017,"x_min":-3,"x_max":965,"o":"m 115 653 l -3 713 q 30 858 2 801 q 115 944 58 916 q 265 972 172 972 l 385 972 l 385 863 l 255 863 q 149 813 178 863 q 115 653 119 763 m 278 0 l 278 972 l 651 972 q 838 930 769 972 q 935 820 906 887 q 965 681 965 753 q 948 580 965 631 q 893 485 931 528 q 796 416 856 442 q 651 390 736 390 l 399 390 l 399 0 l 278 0 m 399 503 l 659 503 q 768 530 728 503 q 826 598 809 557 q 844 681 844 639 q 828 760 844 719 q 772 831 813 802 q 659 860 732 860 l 399 860 l 399 503 z "},"Þ":{"ha":878,"x_min":136,"x_max":822,"o":"m 136 0 l 136 972 l 257 972 l 257 786 l 508 786 q 695 743 626 786 q 793 634 764 701 q 822 494 822 567 q 805 393 822 444 q 751 299 788 342 q 653 229 713 256 q 508 203 594 203 l 257 203 l 257 0 l 136 0 m 257 317 l 517 317 q 626 343 585 317 q 684 411 667 370 q 701 494 701 452 q 686 573 701 532 q 630 643 670 615 q 517 672 590 672 l 257 672 l 257 317 z "},"Q":{"ha":1014,"x_min":94,"x_max":919,"o":"m 757 -92 l 682 19 q 601 -7 644 2 q 507 -17 558 -17 q 313 27 392 -17 q 186 145 234 72 q 116 307 138 218 q 94 486 94 396 q 116 665 94 576 q 186 827 138 754 q 313 945 234 901 q 507 989 392 989 q 701 945 622 989 q 828 827 781 901 q 898 665 876 754 q 919 486 919 576 q 905 336 919 411 q 858 195 890 261 q 772 79 826 128 l 846 -29 l 757 -92 m 507 97 q 564 103 538 97 q 614 119 591 108 l 544 224 l 636 286 l 703 186 q 773 326 752 244 q 794 486 794 408 q 780 627 794 558 q 731 752 765 696 q 642 843 697 809 q 507 876 588 876 q 372 841 427 876 q 284 748 317 806 q 235 621 250 690 q 219 486 219 552 q 235 345 219 415 q 284 220 250 276 q 372 131 317 164 q 507 97 427 97 z "},"R":{"ha":924,"x_min":136,"x_max":826,"o":"m 136 0 l 136 972 l 519 972 q 703 932 636 972 q 798 828 770 892 q 826 696 826 765 q 804 582 826 638 q 731 484 781 526 q 600 425 681 442 l 808 0 l 672 0 l 472 417 l 257 417 l 257 0 l 136 0 m 257 529 l 522 529 q 630 553 590 529 q 687 615 670 578 q 704 693 704 653 q 689 768 704 729 q 633 833 673 806 q 522 860 594 860 l 257 860 l 257 529 z "},"Ŕ":{"ha":924,"x_min":136,"x_max":826,"o":"m 136 0 l 136 972 l 519 972 q 703 932 636 972 q 798 828 770 892 q 826 696 826 765 q 804 582 826 638 q 731 484 781 526 q 600 425 681 442 l 808 0 l 672 0 l 472 417 l 257 417 l 257 0 l 136 0 m 257 529 l 522 529 q 630 553 590 529 q 687 615 670 578 q 704 693 704 653 q 689 768 704 729 q 633 833 673 806 q 522 860 594 860 l 257 860 l 257 529 m 361 1063 l 558 1279 l 731 1279 l 483 1063 l 361 1063 z "},"Ř":{"ha":924,"x_min":136,"x_max":826,"o":"m 136 0 l 136 972 l 519 972 q 703 932 636 972 q 798 828 770 892 q 826 696 826 765 q 804 582 826 638 q 731 484 781 526 q 600 425 681 442 l 808 0 l 672 0 l 472 417 l 257 417 l 257 0 l 136 0 m 257 529 l 522 529 q 630 553 590 529 q 687 615 670 578 q 704 693 704 653 q 689 768 704 729 q 633 833 673 806 q 522 860 594 860 l 257 860 l 257 529 m 388 1063 l 185 1279 l 300 1279 l 446 1154 l 592 1279 l 706 1279 l 503 1063 l 388 1063 z "},"Ŗ":{"ha":924,"x_min":136,"x_max":826,"o":"m 136 0 l 136 972 l 519 972 q 703 932 636 972 q 798 828 770 892 q 826 696 826 765 q 804 582 826 638 q 731 484 781 526 q 600 425 681 442 l 808 0 l 672 0 l 472 417 l 257 417 l 257 0 l 136 0 m 257 529 l 522 529 q 630 553 590 529 q 687 615 670 578 q 704 693 704 653 q 689 768 704 729 q 633 833 673 806 q 522 860 594 860 l 257 860 l 257 529 m 443 -344 l 407 -326 q 440 -288 419 -315 q 468 -226 461 -262 q 408 -203 431 -226 q 386 -146 386 -179 q 411 -85 386 -108 q 467 -62 435 -62 q 526 -87 500 -62 q 551 -154 551 -111 q 524 -259 551 -210 q 443 -344 497 -307 z "},"Ȑ":{"ha":924,"x_min":6,"x_max":826,"o":"m 136 0 l 136 972 l 519 972 q 703 932 636 972 q 798 828 770 892 q 826 696 826 765 q 804 582 826 638 q 731 484 781 526 q 600 425 681 442 l 808 0 l 672 0 l 472 417 l 257 417 l 257 0 l 136 0 m 257 529 l 522 529 q 630 553 590 529 q 687 615 670 578 q 704 693 704 653 q 689 768 704 729 q 633 833 673 806 q 522 860 594 860 l 257 860 l 257 529 m 253 1063 l 6 1279 l 178 1279 l 375 1063 l 253 1063 m 536 1063 l 289 1279 l 461 1279 l 658 1063 l 536 1063 z "},"Ȓ":{"ha":924,"x_min":136,"x_max":826,"o":"m 136 0 l 136 972 l 519 972 q 703 932 636 972 q 798 828 770 892 q 826 696 826 765 q 804 582 826 638 q 731 484 781 526 q 600 425 681 442 l 808 0 l 672 0 l 472 417 l 257 417 l 257 0 l 136 0 m 257 529 l 522 529 q 630 553 590 529 q 687 615 670 578 q 704 693 704 653 q 689 768 704 729 q 633 833 673 806 q 522 860 594 860 l 257 860 l 257 529 m 206 1067 q 232 1180 206 1128 q 312 1262 258 1231 q 447 1293 365 1293 q 570 1266 520 1293 q 647 1194 619 1240 q 684 1094 675 1149 q 685 1081 685 1088 q 685 1067 685 1074 l 577 1067 q 576 1081 577 1074 q 574 1094 576 1088 q 535 1166 567 1140 q 447 1192 502 1192 q 374 1176 403 1192 q 330 1133 344 1161 q 315 1067 315 1105 l 206 1067 z "},"Ɍ":{"ha":924,"x_min":8,"x_max":826,"o":"m 8 417 l 8 529 l 392 529 l 392 417 l 8 417 m 136 0 l 136 972 l 519 972 q 703 932 636 972 q 798 828 770 892 q 826 696 826 765 q 804 582 826 638 q 731 484 781 526 q 600 425 681 442 l 808 0 l 672 0 l 472 417 l 257 417 l 257 0 l 136 0 m 257 529 l 522 529 q 630 553 590 529 q 687 615 670 578 q 704 693 704 653 q 689 768 704 729 q 633 833 673 806 q 522 860 594 860 l 257 860 l 257 529 z "},"Ɽ":{"ha":924,"x_min":136,"x_max":826,"o":"m 382 -319 q 195 -225 254 -301 q 136 -12 136 -150 l 136 972 l 519 972 q 703 932 636 972 q 798 828 770 892 q 826 696 826 765 q 804 582 826 638 q 731 484 781 526 q 600 425 681 442 l 808 0 l 672 0 l 472 417 l 257 417 l 257 -57 q 273 -141 257 -107 q 328 -196 289 -175 q 439 -228 368 -217 l 382 -319 m 257 529 l 522 529 q 630 553 590 529 q 687 615 670 578 q 704 693 704 653 q 689 768 704 729 q 633 833 673 806 q 522 860 594 860 l 257 860 l 257 529 z "},"S":{"ha":832,"x_min":81,"x_max":739,"o":"m 419 -17 q 266 11 335 -17 q 150 89 197 40 q 81 200 102 138 l 194 242 q 283 137 224 177 q 422 97 342 97 q 562 139 510 97 q 614 261 614 181 q 583 356 614 317 q 501 420 551 394 q 394 467 451 446 q 293 508 344 485 q 201 563 242 531 q 135 640 160 594 q 110 749 110 685 q 145 868 110 814 q 247 956 181 923 q 408 989 314 989 q 544 966 485 989 q 641 905 603 944 q 693 815 678 865 l 582 778 q 518 848 565 819 q 400 876 472 876 q 279 842 323 876 q 235 749 235 808 q 264 673 235 703 q 342 621 294 643 q 444 578 390 599 q 548 534 496 558 q 643 474 599 509 q 713 387 686 438 q 739 264 739 336 q 697 112 739 174 q 583 16 656 49 q 419 -17 511 -17 z "},"Ś":{"ha":832,"x_min":81,"x_max":739,"o":"m 419 -17 q 266 11 335 -17 q 150 89 197 40 q 81 200 102 138 l 194 242 q 283 137 224 177 q 422 97 342 97 q 562 139 510 97 q 614 261 614 181 q 583 356 614 317 q 501 420 551 394 q 394 467 451 446 q 293 508 344 485 q 201 563 242 531 q 135 640 160 594 q 110 749 110 685 q 145 868 110 814 q 247 956 181 923 q 408 989 314 989 q 544 966 485 989 q 641 905 603 944 q 693 815 678 865 l 582 778 q 518 848 565 819 q 400 876 472 876 q 279 842 323 876 q 235 749 235 808 q 264 673 235 703 q 342 621 294 643 q 444 578 390 599 q 548 534 496 558 q 643 474 599 509 q 713 387 686 438 q 739 264 739 336 q 697 112 739 174 q 583 16 656 49 q 419 -17 511 -17 m 324 1063 l 521 1279 l 693 1279 l 446 1063 l 324 1063 z "},"Ꞌ":{"ha":394,"x_min":136,"x_max":258,"o":"m 176 268 l 136 685 l 136 972 l 258 972 l 258 685 l 217 268 l 176 268 z "},"Š":{"ha":832,"x_min":81,"x_max":739,"o":"m 419 -17 q 266 11 335 -17 q 150 89 197 40 q 81 200 102 138 l 194 242 q 283 137 224 177 q 422 97 342 97 q 562 139 510 97 q 614 261 614 181 q 583 356 614 317 q 501 420 551 394 q 394 467 451 446 q 293 508 344 485 q 201 563 242 531 q 135 640 160 594 q 110 749 110 685 q 145 868 110 814 q 247 956 181 923 q 408 989 314 989 q 544 966 485 989 q 641 905 603 944 q 693 815 678 865 l 582 778 q 518 848 565 819 q 400 876 472 876 q 279 842 323 876 q 235 749 235 808 q 264 673 235 703 q 342 621 294 643 q 444 578 390 599 q 548 534 496 558 q 643 474 599 509 q 713 387 686 438 q 739 264 739 336 q 697 112 739 174 q 583 16 656 49 q 419 -17 511 -17 m 350 1063 l 147 1279 l 263 1279 l 408 1154 l 554 1279 l 668 1279 l 465 1063 l 350 1063 z "},"Ş":{"ha":832,"x_min":81,"x_max":739,"o":"m 419 -17 q 266 11 335 -17 q 150 89 197 40 q 81 200 102 138 l 194 242 q 283 137 224 177 q 422 97 342 97 q 562 139 510 97 q 614 261 614 181 q 583 356 614 317 q 501 420 551 394 q 394 467 451 446 q 293 508 344 485 q 201 563 242 531 q 135 640 160 594 q 110 749 110 685 q 145 868 110 814 q 247 956 181 923 q 408 989 314 989 q 544 966 485 989 q 641 905 603 944 q 693 815 678 865 l 582 778 q 518 848 565 819 q 400 876 472 876 q 279 842 323 876 q 235 749 235 808 q 264 673 235 703 q 342 621 294 643 q 444 578 390 599 q 548 534 496 558 q 643 474 599 509 q 713 387 686 438 q 739 264 739 336 q 697 112 739 174 q 583 16 656 49 q 419 -17 511 -17 m 399 -329 q 322 -316 354 -329 q 268 -283 289 -303 l 336 -236 q 356 -250 344 -247 q 388 -254 368 -254 q 439 -235 418 -254 q 460 -187 460 -217 q 436 -143 460 -161 q 379 -125 412 -125 q 350 -127 363 -125 q 326 -135 337 -129 l 304 -107 l 382 0 l 453 0 l 415 -74 q 531 -109 497 -74 q 565 -189 565 -145 q 519 -290 565 -250 q 399 -329 473 -329 z "},"Ŝ":{"ha":832,"x_min":81,"x_max":739,"o":"m 419 -17 q 266 11 335 -17 q 150 89 197 40 q 81 200 102 138 l 194 242 q 283 137 224 177 q 422 97 342 97 q 562 139 510 97 q 614 261 614 181 q 583 356 614 317 q 501 420 551 394 q 394 467 451 446 q 293 508 344 485 q 201 563 242 531 q 135 640 160 594 q 110 749 110 685 q 145 868 110 814 q 247 956 181 923 q 408 989 314 989 q 544 966 485 989 q 641 905 603 944 q 693 815 678 865 l 582 778 q 518 848 565 819 q 400 876 472 876 q 279 842 323 876 q 235 749 235 808 q 264 673 235 703 q 342 621 294 643 q 444 578 390 599 q 548 534 496 558 q 643 474 599 509 q 713 387 686 438 q 739 264 739 336 q 697 112 739 174 q 583 16 656 49 q 419 -17 511 -17 m 148 1063 l 352 1279 l 466 1279 l 669 1063 l 555 1063 l 409 1188 l 263 1063 l 148 1063 z "},"Ș":{"ha":832,"x_min":81,"x_max":739,"o":"m 419 -17 q 266 11 335 -17 q 150 89 197 40 q 81 200 102 138 l 194 242 q 283 137 224 177 q 422 97 342 97 q 562 139 510 97 q 614 261 614 181 q 583 356 614 317 q 501 420 551 394 q 394 467 451 446 q 293 508 344 485 q 201 563 242 531 q 135 640 160 594 q 110 749 110 685 q 145 868 110 814 q 247 956 181 923 q 408 989 314 989 q 544 966 485 989 q 641 905 603 944 q 693 815 678 865 l 582 778 q 518 848 565 819 q 400 876 472 876 q 279 842 323 876 q 235 749 235 808 q 264 673 235 703 q 342 621 294 643 q 444 578 390 599 q 548 534 496 558 q 643 474 599 509 q 713 387 686 438 q 739 264 739 336 q 697 112 739 174 q 583 16 656 49 q 419 -17 511 -17 m 396 -344 l 360 -326 q 393 -288 372 -315 q 421 -226 414 -262 q 361 -203 383 -226 q 339 -146 339 -179 q 364 -85 339 -108 q 419 -62 388 -62 q 478 -87 453 -62 q 504 -154 504 -111 q 477 -259 504 -210 q 396 -344 450 -307 z "},"Ṣ":{"ha":832,"x_min":81,"x_max":739,"o":"m 419 -17 q 266 11 335 -17 q 150 89 197 40 q 81 200 102 138 l 194 242 q 283 137 224 177 q 422 97 342 97 q 562 139 510 97 q 614 261 614 181 q 583 356 614 317 q 501 420 551 394 q 394 467 451 446 q 293 508 344 485 q 201 563 242 531 q 135 640 160 594 q 110 749 110 685 q 145 868 110 814 q 247 956 181 923 q 408 989 314 989 q 544 966 485 989 q 641 905 603 944 q 693 815 678 865 l 582 778 q 518 848 565 819 q 400 876 472 876 q 279 842 323 876 q 235 749 235 808 q 264 673 235 703 q 342 621 294 643 q 444 578 390 599 q 548 534 496 558 q 643 474 599 509 q 713 387 686 438 q 739 264 739 336 q 697 112 739 174 q 583 16 656 49 q 419 -17 511 -17 m 419 -275 q 365 -253 388 -275 q 343 -199 343 -231 q 365 -144 343 -166 q 419 -122 388 -122 q 474 -144 452 -122 q 496 -199 496 -166 q 474 -253 496 -231 q 419 -275 452 -275 z "},"ẞ":{"ha":961,"x_min":136,"x_max":868,"o":"m 136 0 l 136 972 l 738 972 l 738 865 l 624 858 l 257 858 l 257 0 l 136 0 m 564 -17 q 432 6 494 -17 q 324 63 369 29 l 403 156 q 477 115 434 132 q 567 97 520 97 q 693 139 643 97 q 743 261 743 181 q 726 330 743 299 q 683 389 710 361 q 625 444 656 417 q 556 514 589 478 q 501 594 522 549 q 481 696 481 638 q 499 792 481 749 q 552 867 517 835 q 633 919 586 899 q 738 946 681 940 l 738 865 q 663 835 692 856 q 619 783 633 813 q 606 717 606 752 q 637 620 606 663 q 714 536 669 578 q 787 463 751 501 q 845 376 822 424 q 868 264 868 328 q 827 112 868 174 q 717 16 786 49 q 564 -17 648 -17 z "},"Ə":{"ha":1014,"x_min":94,"x_max":919,"o":"m 506 -17 q 289 36 381 -17 q 145 194 197 90 q 94 454 94 299 q 95 504 94 483 q 97 539 97 524 l 790 539 q 750 714 785 638 q 652 833 715 790 q 499 876 588 876 q 379 856 440 876 q 260 781 318 836 l 182 867 q 336 963 256 937 q 499 989 415 989 q 728 925 634 989 q 871 747 822 860 q 919 485 919 633 q 868 214 919 326 q 723 42 816 101 q 506 -17 630 -17 m 506 97 q 642 135 582 97 q 741 245 702 172 q 790 425 779 318 l 218 425 q 251 258 218 333 q 348 141 283 184 q 506 97 412 97 z "},"T":{"ha":810,"x_min":74,"x_max":736,"o":"m 344 0 l 344 857 l 74 857 l 74 972 l 736 972 l 736 857 l 465 857 l 465 0 l 344 0 z "},"Ŧ":{"ha":810,"x_min":74,"x_max":736,"o":"m 174 387 l 174 497 l 635 497 l 635 387 l 174 387 m 344 0 l 344 857 l 74 857 l 74 972 l 736 972 l 736 857 l 465 857 l 465 0 l 344 0 z "},"Ť":{"ha":810,"x_min":74,"x_max":736,"o":"m 344 0 l 344 857 l 74 857 l 74 972 l 736 972 l 736 857 l 465 857 l 465 0 l 344 0 m 346 1063 l 143 1279 l 258 1279 l 404 1154 l 550 1279 l 664 1279 l 461 1063 l 346 1063 z "},"Ţ":{"ha":810,"x_min":74,"x_max":736,"o":"m 344 0 l 344 857 l 74 857 l 74 972 l 736 972 l 736 857 l 465 857 l 465 0 l 344 0 m 383 -329 q 306 -316 339 -329 q 253 -283 274 -303 l 321 -236 q 341 -250 329 -247 q 372 -254 353 -254 q 424 -235 403 -254 q 444 -187 444 -217 q 420 -143 444 -161 q 364 -125 397 -125 q 334 -127 347 -125 q 311 -135 322 -129 l 289 -107 l 367 0 l 438 0 l 400 -74 q 516 -109 481 -74 q 550 -189 550 -145 q 504 -290 550 -250 q 383 -329 458 -329 z "},"Ṱ":{"ha":810,"x_min":74,"x_max":736,"o":"m 344 0 l 344 857 l 74 857 l 74 972 l 736 972 l 736 857 l 465 857 l 465 0 l 344 0 m 143 -318 l 347 -101 l 461 -101 l 664 -318 l 550 -318 l 404 -193 l 258 -318 l 143 -318 z "},"Ț":{"ha":810,"x_min":74,"x_max":736,"o":"m 344 0 l 344 857 l 74 857 l 74 972 l 736 972 l 736 857 l 465 857 l 465 0 l 344 0 m 381 -344 l 344 -326 q 378 -288 357 -315 q 406 -226 399 -262 q 346 -203 368 -226 q 324 -146 324 -179 q 348 -85 324 -108 q 404 -62 373 -62 q 463 -87 438 -62 q 489 -154 489 -111 q 462 -259 489 -210 q 381 -344 435 -307 z "},"Ṭ":{"ha":810,"x_min":74,"x_max":736,"o":"m 344 0 l 344 857 l 74 857 l 74 972 l 736 972 l 736 857 l 465 857 l 465 0 l 344 0 m 404 -275 q 350 -253 372 -275 q 328 -199 328 -231 q 350 -144 328 -166 q 404 -122 372 -122 q 459 -144 437 -122 q 481 -199 481 -166 q 459 -253 481 -231 q 404 -275 437 -275 z "},"Ƭ":{"ha":876,"x_min":-3,"x_max":802,"o":"m 410 0 l 410 857 l 255 857 q 149 809 178 857 q 115 653 119 760 l -3 713 q 30 858 2 801 q 115 944 58 916 q 265 972 172 972 l 802 972 l 802 857 l 531 857 l 531 0 l 410 0 z "},"Ṯ":{"ha":810,"x_min":74,"x_max":736,"o":"m 344 0 l 344 857 l 74 857 l 74 972 l 736 972 l 736 857 l 465 857 l 465 0 l 344 0 m 175 -226 l 175 -124 l 633 -124 l 633 -226 l 175 -226 z "},"Ʈ":{"ha":810,"x_min":74,"x_max":736,"o":"m 590 -319 q 403 -225 463 -301 q 344 -12 344 -150 l 344 857 l 74 857 l 74 972 l 736 972 l 736 857 l 465 857 l 465 -43 q 482 -130 465 -94 q 540 -188 499 -166 q 651 -221 581 -210 l 590 -319 z "},"U":{"ha":957,"x_min":129,"x_max":828,"o":"m 478 -17 q 281 28 358 -17 q 167 158 204 72 q 129 365 129 243 l 129 972 l 250 972 l 250 365 q 303 168 250 239 q 478 97 356 97 q 606 127 555 97 q 682 216 657 156 q 707 365 707 275 l 707 972 l 828 972 l 828 365 q 806 199 828 271 q 740 80 783 128 q 630 7 696 31 q 478 -17 565 -17 z "},"Ú":{"ha":957,"x_min":129,"x_max":828,"o":"m 478 -17 q 281 28 358 -17 q 167 158 204 72 q 129 365 129 243 l 129 972 l 250 972 l 250 365 q 303 168 250 239 q 478 97 356 97 q 606 127 555 97 q 682 216 657 156 q 707 365 707 275 l 707 972 l 828 972 l 828 365 q 806 199 828 271 q 740 80 783 128 q 630 7 696 31 q 478 -17 565 -17 m 393 1063 l 590 1279 l 763 1279 l 515 1063 l 393 1063 z "},"Ʉ":{"ha":986,"x_min":35,"x_max":951,"o":"m 493 -17 q 297 28 374 -17 q 182 158 219 72 q 144 365 144 243 l 144 449 l 35 449 l 35 559 l 144 559 l 144 972 l 265 972 l 265 559 l 722 559 l 722 972 l 843 972 l 843 559 l 951 559 l 951 449 l 843 449 l 843 365 q 821 199 843 271 q 755 80 799 128 q 645 7 711 31 q 493 -17 580 -17 m 493 97 q 621 127 570 97 q 697 216 672 156 q 722 365 722 275 l 722 449 l 265 449 l 265 365 q 318 168 265 239 q 493 97 372 97 z "},"Ŭ":{"ha":957,"x_min":129,"x_max":828,"o":"m 478 -17 q 281 28 358 -17 q 167 158 204 72 q 129 365 129 243 l 129 972 l 250 972 l 250 365 q 303 168 250 239 q 478 97 356 97 q 606 127 555 97 q 682 216 657 156 q 707 365 707 275 l 707 972 l 828 972 l 828 365 q 806 199 828 271 q 740 80 783 128 q 630 7 696 31 q 478 -17 565 -17 m 477 1067 q 343 1098 396 1067 q 264 1180 290 1128 q 238 1293 238 1231 l 347 1293 q 361 1227 347 1255 q 405 1183 376 1199 q 477 1168 434 1168 q 550 1183 520 1168 q 594 1227 579 1199 q 609 1293 609 1255 l 717 1293 q 691 1180 717 1231 q 612 1098 665 1128 q 477 1067 558 1067 z "},"Ǔ":{"ha":957,"x_min":129,"x_max":828,"o":"m 478 -17 q 281 28 358 -17 q 167 158 204 72 q 129 365 129 243 l 129 972 l 250 972 l 250 365 q 303 168 250 239 q 478 97 356 97 q 606 127 555 97 q 682 216 657 156 q 707 365 707 275 l 707 972 l 828 972 l 828 365 q 806 199 828 271 q 740 80 783 128 q 630 7 696 31 q 478 -17 565 -17 m 419 1063 l 217 1279 l 332 1279 l 478 1154 l 624 1279 l 738 1279 l 535 1063 l 419 1063 z "},"Û":{"ha":957,"x_min":129,"x_max":828,"o":"m 478 -17 q 281 28 358 -17 q 167 158 204 72 q 129 365 129 243 l 129 972 l 250 972 l 250 365 q 303 168 250 239 q 478 97 356 97 q 606 127 555 97 q 682 216 657 156 q 707 365 707 275 l 707 972 l 828 972 l 828 365 q 806 199 828 271 q 740 80 783 128 q 630 7 696 31 q 478 -17 565 -17 m 217 1063 l 422 1279 l 535 1279 l 738 1063 l 624 1063 l 478 1188 l 333 1063 l 217 1063 z "},"Ȕ":{"ha":957,"x_min":38,"x_max":828,"o":"m 478 -17 q 281 28 358 -17 q 167 158 204 72 q 129 365 129 243 l 129 972 l 250 972 l 250 365 q 303 168 250 239 q 478 97 356 97 q 606 127 555 97 q 682 216 657 156 q 707 365 707 275 l 707 972 l 828 972 l 828 365 q 806 199 828 271 q 740 80 783 128 q 630 7 696 31 q 478 -17 565 -17 m 285 1063 l 38 1279 l 210 1279 l 407 1063 l 285 1063 m 568 1063 l 321 1279 l 493 1279 l 690 1063 l 568 1063 z "},"Ü":{"ha":957,"x_min":129,"x_max":828,"o":"m 478 -17 q 281 28 358 -17 q 167 158 204 72 q 129 365 129 243 l 129 972 l 250 972 l 250 365 q 303 168 250 239 q 478 97 356 97 q 606 127 555 97 q 682 216 657 156 q 707 365 707 275 l 707 972 l 828 972 l 828 365 q 806 199 828 271 q 740 80 783 128 q 630 7 696 31 q 478 -17 565 -17 m 607 1094 q 553 1117 576 1094 q 531 1171 531 1139 q 553 1225 531 1203 q 607 1247 576 1247 q 661 1225 640 1247 q 683 1171 683 1203 q 661 1117 683 1139 q 607 1094 640 1094 m 349 1094 q 295 1117 317 1094 q 272 1171 272 1139 q 295 1225 272 1203 q 349 1247 317 1247 q 403 1225 381 1247 q 425 1171 425 1203 q 403 1117 425 1139 q 349 1094 381 1094 z "},"Ǘ":{"ha":957,"x_min":129,"x_max":828,"o":"m 478 -17 q 281 28 358 -17 q 167 158 204 72 q 129 365 129 243 l 129 972 l 250 972 l 250 365 q 303 168 250 239 q 478 97 356 97 q 606 127 555 97 q 682 216 657 156 q 707 365 707 275 l 707 972 l 828 972 l 828 365 q 806 199 828 271 q 740 80 783 128 q 630 7 696 31 q 478 -17 565 -17 m 597 1101 q 543 1124 566 1101 q 521 1178 521 1146 q 543 1232 521 1210 q 597 1254 566 1254 q 652 1232 630 1254 q 674 1178 674 1210 q 652 1124 674 1146 q 597 1101 630 1101 m 357 1101 q 303 1124 326 1101 q 281 1178 281 1146 q 303 1232 281 1210 q 357 1254 326 1254 q 411 1232 390 1254 q 433 1178 433 1210 q 411 1124 433 1146 q 357 1101 390 1101 m 393 1344 l 590 1561 l 763 1561 l 515 1344 l 393 1344 z "},"Ǚ":{"ha":957,"x_min":129,"x_max":828,"o":"m 478 -17 q 281 28 358 -17 q 167 158 204 72 q 129 365 129 243 l 129 972 l 250 972 l 250 365 q 303 168 250 239 q 478 97 356 97 q 606 127 555 97 q 682 216 657 156 q 707 365 707 275 l 707 972 l 828 972 l 828 365 q 806 199 828 271 q 740 80 783 128 q 630 7 696 31 q 478 -17 565 -17 m 597 1101 q 543 1124 566 1101 q 521 1178 521 1146 q 543 1232 521 1210 q 597 1254 566 1254 q 652 1232 630 1254 q 674 1178 674 1210 q 652 1124 674 1146 q 597 1101 630 1101 m 357 1101 q 303 1124 326 1101 q 281 1178 281 1146 q 303 1232 281 1210 q 357 1254 326 1254 q 411 1232 390 1254 q 433 1178 433 1210 q 411 1124 433 1146 q 357 1101 390 1101 m 420 1344 l 217 1561 l 333 1561 l 478 1436 l 624 1561 l 738 1561 l 535 1344 l 420 1344 z "},"Ǜ":{"ha":957,"x_min":129,"x_max":828,"o":"m 478 -17 q 281 28 358 -17 q 167 158 204 72 q 129 365 129 243 l 129 972 l 250 972 l 250 365 q 303 168 250 239 q 478 97 356 97 q 606 127 555 97 q 682 216 657 156 q 707 365 707 275 l 707 972 l 828 972 l 828 365 q 806 199 828 271 q 740 80 783 128 q 630 7 696 31 q 478 -17 565 -17 m 597 1101 q 543 1124 566 1101 q 521 1178 521 1146 q 543 1232 521 1210 q 597 1254 566 1254 q 652 1232 630 1254 q 674 1178 674 1210 q 652 1124 674 1146 q 597 1101 630 1101 m 357 1101 q 303 1124 326 1101 q 281 1178 281 1146 q 303 1232 281 1210 q 357 1254 326 1254 q 411 1232 390 1254 q 433 1178 433 1210 q 411 1124 433 1146 q 357 1101 390 1101 m 440 1344 l 193 1561 l 365 1561 l 563 1344 l 440 1344 z "},"Ǖ":{"ha":957,"x_min":129,"x_max":828,"o":"m 478 -17 q 281 28 358 -17 q 167 158 204 72 q 129 365 129 243 l 129 972 l 250 972 l 250 365 q 303 168 250 239 q 478 97 356 97 q 606 127 555 97 q 682 216 657 156 q 707 365 707 275 l 707 972 l 828 972 l 828 365 q 806 199 828 271 q 740 80 783 128 q 630 7 696 31 q 478 -17 565 -17 m 597 1101 q 543 1124 566 1101 q 521 1178 521 1146 q 543 1232 521 1210 q 597 1254 566 1254 q 652 1232 630 1254 q 674 1178 674 1210 q 652 1124 674 1146 q 597 1101 630 1101 m 357 1101 q 303 1124 326 1101 q 281 1178 281 1146 q 303 1232 281 1210 q 357 1254 326 1254 q 411 1232 390 1254 q 433 1178 433 1210 q 411 1124 433 1146 q 357 1101 390 1101 m 249 1382 l 249 1485 l 707 1485 l 707 1382 l 249 1382 z "},"Ụ":{"ha":957,"x_min":129,"x_max":828,"o":"m 478 -17 q 281 28 358 -17 q 167 158 204 72 q 129 365 129 243 l 129 972 l 250 972 l 250 365 q 303 168 250 239 q 478 97 356 97 q 606 127 555 97 q 682 216 657 156 q 707 365 707 275 l 707 972 l 828 972 l 828 365 q 806 199 828 271 q 740 80 783 128 q 630 7 696 31 q 478 -17 565 -17 m 478 -275 q 424 -253 446 -275 q 401 -199 401 -231 q 424 -144 401 -166 q 478 -122 446 -122 q 532 -144 510 -122 q 554 -199 554 -166 q 532 -253 554 -231 q 478 -275 510 -275 z "},"Ù":{"ha":957,"x_min":129,"x_max":828,"o":"m 478 -17 q 281 28 358 -17 q 167 158 204 72 q 129 365 129 243 l 129 972 l 250 972 l 250 365 q 303 168 250 239 q 478 97 356 97 q 606 127 555 97 q 682 216 657 156 q 707 365 707 275 l 707 972 l 828 972 l 828 365 q 806 199 828 271 q 740 80 783 128 q 630 7 696 31 q 478 -17 565 -17 m 440 1063 l 193 1279 l 365 1279 l 563 1063 l 440 1063 z "},"Ủ":{"ha":957,"x_min":129,"x_max":828,"o":"m 478 -17 q 281 28 358 -17 q 167 158 204 72 q 129 365 129 243 l 129 972 l 250 972 l 250 365 q 303 168 250 239 q 478 97 356 97 q 606 127 555 97 q 682 216 657 156 q 707 365 707 275 l 707 972 l 828 972 l 828 365 q 806 199 828 271 q 740 80 783 128 q 630 7 696 31 q 478 -17 565 -17 m 429 1026 q 440 1089 429 1063 q 476 1136 451 1115 q 498 1157 492 1149 q 504 1175 504 1166 q 479 1197 504 1197 q 424 1153 449 1197 l 356 1197 q 402 1264 368 1239 q 479 1289 435 1289 q 566 1257 531 1289 q 600 1176 600 1224 q 582 1112 600 1136 q 544 1074 563 1088 q 529 1053 532 1065 q 526 1026 526 1042 l 429 1026 z "},"Ư":{"ha":1115,"x_min":129,"x_max":1094,"o":"m 478 -17 q 281 28 358 -17 q 167 158 204 72 q 129 365 129 243 l 129 972 l 250 972 l 250 365 q 303 168 250 239 q 478 97 356 97 q 606 127 555 97 q 682 216 657 156 q 707 365 707 275 l 707 972 l 828 972 l 828 365 q 806 199 828 271 q 740 80 783 128 q 630 7 696 31 q 478 -17 565 -17 m 825 553 l 825 644 q 940 699 906 661 q 974 800 974 737 l 974 972 l 1094 972 l 1094 844 q 1083 739 1094 788 q 1042 653 1072 690 q 947 582 1001 603 q 825 553 894 560 z "},"Ứ":{"ha":1115,"x_min":129,"x_max":1094,"o":"m 478 -17 q 281 28 358 -17 q 167 158 204 72 q 129 365 129 243 l 129 972 l 250 972 l 250 365 q 303 168 250 239 q 478 97 356 97 q 606 127 555 97 q 682 216 657 156 q 707 365 707 275 l 707 972 l 828 972 l 828 365 q 806 199 828 271 q 740 80 783 128 q 630 7 696 31 q 478 -17 565 -17 m 825 553 l 825 644 q 940 699 906 661 q 974 800 974 737 l 974 972 l 1094 972 l 1094 844 q 1083 739 1094 788 q 1042 653 1072 690 q 947 582 1001 603 q 825 553 894 560 m 393 1063 l 590 1279 l 763 1279 l 515 1063 l 393 1063 z "},"Ự":{"ha":1115,"x_min":129,"x_max":1094,"o":"m 478 -17 q 281 28 358 -17 q 167 158 204 72 q 129 365 129 243 l 129 972 l 250 972 l 250 365 q 303 168 250 239 q 478 97 356 97 q 606 127 555 97 q 682 216 657 156 q 707 365 707 275 l 707 972 l 828 972 l 828 365 q 806 199 828 271 q 740 80 783 128 q 630 7 696 31 q 478 -17 565 -17 m 825 553 l 825 644 q 940 699 906 661 q 974 800 974 737 l 974 972 l 1094 972 l 1094 844 q 1083 739 1094 788 q 1042 653 1072 690 q 947 582 1001 603 q 825 553 894 560 m 478 -275 q 424 -253 446 -275 q 401 -199 401 -231 q 424 -144 401 -166 q 478 -122 446 -122 q 532 -144 510 -122 q 554 -199 554 -166 q 532 -253 554 -231 q 478 -275 510 -275 z "},"Ừ":{"ha":1115,"x_min":129,"x_max":1094,"o":"m 478 -17 q 281 28 358 -17 q 167 158 204 72 q 129 365 129 243 l 129 972 l 250 972 l 250 365 q 303 168 250 239 q 478 97 356 97 q 606 127 555 97 q 682 216 657 156 q 707 365 707 275 l 707 972 l 828 972 l 828 365 q 806 199 828 271 q 740 80 783 128 q 630 7 696 31 q 478 -17 565 -17 m 825 553 l 825 644 q 940 699 906 661 q 974 800 974 737 l 974 972 l 1094 972 l 1094 844 q 1083 739 1094 788 q 1042 653 1072 690 q 947 582 1001 603 q 825 553 894 560 m 440 1063 l 193 1279 l 365 1279 l 563 1063 l 440 1063 z "},"Ử":{"ha":1115,"x_min":129,"x_max":1094,"o":"m 478 -17 q 281 28 358 -17 q 167 158 204 72 q 129 365 129 243 l 129 972 l 250 972 l 250 365 q 303 168 250 239 q 478 97 356 97 q 606 127 555 97 q 682 216 657 156 q 707 365 707 275 l 707 972 l 828 972 l 828 365 q 806 199 828 271 q 740 80 783 128 q 630 7 696 31 q 478 -17 565 -17 m 825 553 l 825 644 q 940 699 906 661 q 974 800 974 737 l 974 972 l 1094 972 l 1094 844 q 1083 739 1094 788 q 1042 653 1072 690 q 947 582 1001 603 q 825 553 894 560 m 429 1026 q 440 1089 429 1063 q 476 1136 451 1115 q 498 1157 492 1149 q 504 1175 504 1166 q 479 1197 504 1197 q 424 1153 449 1197 l 356 1197 q 402 1264 368 1239 q 479 1289 435 1289 q 566 1257 531 1289 q 600 1176 600 1224 q 582 1112 600 1136 q 544 1074 563 1088 q 529 1053 532 1065 q 526 1026 526 1042 l 429 1026 z "},"Ữ":{"ha":1115,"x_min":129,"x_max":1094,"o":"m 478 -17 q 281 28 358 -17 q 167 158 204 72 q 129 365 129 243 l 129 972 l 250 972 l 250 365 q 303 168 250 239 q 478 97 356 97 q 606 127 555 97 q 682 216 657 156 q 707 365 707 275 l 707 972 l 828 972 l 828 365 q 806 199 828 271 q 740 80 783 128 q 630 7 696 31 q 478 -17 565 -17 m 825 553 l 825 644 q 940 699 906 661 q 974 800 974 737 l 974 972 l 1094 972 l 1094 844 q 1083 739 1094 788 q 1042 653 1072 690 q 947 582 1001 603 q 825 553 894 560 m 588 1089 q 516 1101 549 1089 q 454 1127 483 1114 q 406 1148 429 1139 q 358 1157 383 1157 q 314 1141 333 1157 q 293 1094 295 1126 l 231 1094 q 245 1184 231 1147 q 289 1241 259 1222 q 368 1261 319 1261 q 442 1248 408 1261 q 505 1222 476 1235 q 552 1201 529 1210 q 597 1192 575 1192 q 642 1208 624 1192 q 663 1256 660 1224 l 725 1256 q 711 1166 725 1203 q 666 1109 697 1129 q 588 1089 636 1089 z "},"Ű":{"ha":957,"x_min":129,"x_max":907,"o":"m 478 -17 q 281 28 358 -17 q 167 158 204 72 q 129 365 129 243 l 129 972 l 250 972 l 250 365 q 303 168 250 239 q 478 97 356 97 q 606 127 555 97 q 682 216 657 156 q 707 365 707 275 l 707 972 l 828 972 l 828 365 q 806 199 828 271 q 740 80 783 128 q 630 7 696 31 q 478 -17 565 -17 m 538 1063 l 735 1279 l 907 1279 l 660 1063 l 538 1063 m 254 1063 l 451 1279 l 624 1279 l 376 1063 l 254 1063 z "},"Ȗ":{"ha":957,"x_min":129,"x_max":828,"o":"m 478 -17 q 281 28 358 -17 q 167 158 204 72 q 129 365 129 243 l 129 972 l 250 972 l 250 365 q 303 168 250 239 q 478 97 356 97 q 606 127 555 97 q 682 216 657 156 q 707 365 707 275 l 707 972 l 828 972 l 828 365 q 806 199 828 271 q 740 80 783 128 q 630 7 696 31 q 478 -17 565 -17 m 238 1067 q 264 1180 238 1128 q 344 1262 290 1231 q 478 1293 397 1293 q 602 1266 552 1293 q 679 1194 651 1240 q 716 1094 707 1149 q 717 1081 717 1088 q 717 1067 717 1074 l 609 1067 q 608 1081 609 1074 q 606 1094 608 1088 q 567 1166 599 1140 q 478 1192 534 1192 q 406 1176 435 1192 q 361 1133 376 1161 q 347 1067 347 1105 l 238 1067 z "},"Ū":{"ha":957,"x_min":129,"x_max":828,"o":"m 478 -17 q 281 28 358 -17 q 167 158 204 72 q 129 365 129 243 l 129 972 l 250 972 l 250 365 q 303 168 250 239 q 478 97 356 97 q 606 127 555 97 q 682 216 657 156 q 707 365 707 275 l 707 972 l 828 972 l 828 365 q 806 199 828 271 q 740 80 783 128 q 630 7 696 31 q 478 -17 565 -17 m 249 1100 l 249 1203 l 707 1203 l 707 1100 l 249 1100 z "},"Ų":{"ha":957,"x_min":129,"x_max":828,"o":"m 515 -329 q 402 -293 448 -329 q 356 -189 356 -256 q 388 -91 356 -135 q 475 -17 420 -47 q 470 -17 472 -17 q 464 -17 467 -17 q 329 6 391 -17 q 224 72 267 28 q 153 193 177 120 q 129 365 129 267 l 129 972 l 250 972 l 250 365 q 266 242 250 294 q 313 157 281 190 q 383 112 342 127 q 478 97 424 97 q 591 119 539 97 q 675 200 643 142 q 707 365 707 258 l 707 972 l 828 972 l 828 365 q 803 187 828 257 q 734 74 778 117 q 633 7 690 32 q 536 -47 575 -19 q 477 -106 497 -74 q 457 -176 457 -138 q 479 -234 457 -216 q 529 -253 501 -253 q 570 -243 554 -253 q 596 -224 587 -234 l 658 -269 q 624 -298 644 -285 q 577 -320 604 -312 q 515 -329 550 -329 z "},"Ʊ":{"ha":1033,"x_min":115,"x_max":919,"o":"m 517 -17 q 333 23 408 -17 q 211 129 258 63 q 144 274 165 194 q 124 431 124 353 q 178 684 124 578 q 331 858 232 791 l 115 858 l 115 972 l 432 972 l 432 860 q 331 731 371 793 q 270 599 290 669 q 250 433 250 528 q 264 312 250 372 q 309 203 278 252 q 392 125 340 154 q 517 96 443 96 q 642 125 591 96 q 725 203 694 154 q 769 311 756 251 q 783 432 783 371 q 763 598 783 527 q 703 731 743 669 q 601 860 663 793 l 601 972 l 919 972 l 919 858 l 701 858 q 854 684 799 791 q 908 431 908 578 q 888 274 908 353 q 822 129 867 194 q 701 23 776 63 q 517 -17 626 -17 z "},"Ů":{"ha":957,"x_min":129,"x_max":828,"o":"m 478 -17 q 281 28 358 -17 q 167 158 204 72 q 129 365 129 243 l 129 972 l 250 972 l 250 365 q 303 168 250 239 q 478 97 356 97 q 606 127 555 97 q 682 216 657 156 q 707 365 707 275 l 707 972 l 828 972 l 828 365 q 806 199 828 271 q 740 80 783 128 q 630 7 696 31 q 478 -17 565 -17 m 478 1035 q 395 1057 433 1035 q 335 1117 358 1080 q 313 1199 313 1154 q 335 1280 313 1244 q 395 1338 358 1317 q 478 1360 433 1360 q 560 1338 522 1360 q 620 1280 597 1317 q 643 1199 643 1244 q 620 1117 643 1154 q 560 1057 597 1080 q 478 1035 522 1035 m 478 1124 q 527 1145 507 1124 q 547 1199 547 1167 q 527 1252 547 1232 q 478 1272 507 1272 q 428 1252 449 1272 q 407 1199 407 1232 q 428 1145 407 1167 q 478 1124 449 1124 z "},"Ũ":{"ha":957,"x_min":129,"x_max":828,"o":"m 478 -17 q 281 28 358 -17 q 167 158 204 72 q 129 365 129 243 l 129 972 l 250 972 l 250 365 q 303 168 250 239 q 478 97 356 97 q 606 127 555 97 q 682 216 657 156 q 707 365 707 275 l 707 972 l 828 972 l 828 365 q 806 199 828 271 q 740 80 783 128 q 630 7 696 31 q 478 -17 565 -17 m 588 1089 q 516 1101 549 1089 q 454 1127 483 1114 q 406 1148 429 1139 q 358 1157 383 1157 q 314 1141 333 1157 q 293 1094 295 1126 l 231 1094 q 245 1184 231 1147 q 289 1241 259 1222 q 368 1261 319 1261 q 442 1248 408 1261 q 505 1222 476 1235 q 552 1201 529 1210 q 597 1192 575 1192 q 642 1208 624 1192 q 663 1256 660 1224 l 725 1256 q 711 1166 725 1203 q 666 1109 697 1129 q 588 1089 636 1089 z "},"V":{"ha":906,"x_min":67,"x_max":839,"o":"m 400 0 l 67 972 l 196 972 l 428 269 q 442 224 434 250 q 457 171 450 198 q 470 223 463 198 q 485 269 478 248 l 710 972 l 839 972 l 507 0 l 400 0 z "},"Ɣ":{"ha":907,"x_min":67,"x_max":840,"o":"m 453 -324 q 342 -282 388 -324 q 297 -167 297 -239 q 318 -51 297 -124 q 390 149 340 22 l 67 972 l 196 972 l 453 313 l 712 972 l 840 972 l 517 149 q 589 -52 568 19 q 610 -167 610 -124 q 565 -282 610 -239 q 453 -324 519 -324 m 453 -205 q 477 -195 467 -205 q 488 -167 488 -186 q 481 -118 488 -153 q 453 -22 474 -83 q 426 -118 433 -83 q 419 -167 419 -153 q 430 -195 419 -186 q 453 -205 440 -205 z "},"Ʋ":{"ha":950,"x_min":129,"x_max":856,"o":"m 388 -17 q 198 51 266 -17 q 129 282 129 119 l 129 972 l 250 972 l 250 282 q 286 137 250 176 q 388 97 323 97 q 521 142 458 97 q 633 263 584 187 q 709 432 681 338 q 736 624 736 526 q 686 810 736 738 q 535 882 636 882 q 486 880 507 882 q 446 872 466 877 l 496 983 q 561 988 533 988 q 727 937 662 988 q 824 803 792 886 q 856 624 856 720 q 833 439 856 531 q 767 265 810 347 q 667 119 725 183 q 538 19 608 56 q 388 -17 467 -17 z "},"Ʌ":{"ha":906,"x_min":67,"x_max":839,"o":"m 67 0 l 399 972 l 506 972 l 839 0 l 710 0 l 478 703 q 464 749 472 723 q 449 801 456 774 q 435 750 442 774 q 421 703 428 725 l 196 0 l 67 0 z "},"W":{"ha":1167,"x_min":69,"x_max":1097,"o":"m 268 0 l 69 972 l 196 972 l 315 339 q 326 282 322 307 q 333 235 331 257 q 344 283 338 257 q 360 338 351 308 l 532 972 l 628 972 l 801 339 q 815 287 810 309 q 824 244 821 265 q 831 288 827 265 q 842 340 835 310 l 974 972 l 1097 972 l 886 0 l 790 0 l 603 664 q 588 716 594 693 q 578 760 582 739 q 568 717 574 739 q 554 664 563 694 l 367 0 l 268 0 z "},"Ẃ":{"ha":1167,"x_min":69,"x_max":1097,"o":"m 268 0 l 69 972 l 196 972 l 315 339 q 326 282 322 307 q 333 235 331 257 q 344 283 338 257 q 360 338 351 308 l 532 972 l 628 972 l 801 339 q 815 287 810 309 q 824 244 821 265 q 831 288 827 265 q 842 340 835 310 l 974 972 l 1097 972 l 886 0 l 790 0 l 603 664 q 588 716 594 693 q 578 760 582 739 q 568 717 574 739 q 554 664 563 694 l 367 0 l 268 0 m 493 1063 l 690 1279 l 863 1279 l 615 1063 l 493 1063 z "},"Ŵ":{"ha":1167,"x_min":69,"x_max":1097,"o":"m 268 0 l 69 972 l 196 972 l 315 339 q 326 282 322 307 q 333 235 331 257 q 344 283 338 257 q 360 338 351 308 l 532 972 l 628 972 l 801 339 q 815 287 810 309 q 824 244 821 265 q 831 288 827 265 q 842 340 835 310 l 974 972 l 1097 972 l 886 0 l 790 0 l 603 664 q 588 716 594 693 q 578 760 582 739 q 568 717 574 739 q 554 664 563 694 l 367 0 l 268 0 m 317 1063 l 522 1279 l 635 1279 l 838 1063 l 724 1063 l 578 1188 l 433 1063 l 317 1063 z "},"Ẅ":{"ha":1167,"x_min":69,"x_max":1097,"o":"m 268 0 l 69 972 l 196 972 l 315 339 q 326 282 322 307 q 333 235 331 257 q 344 283 338 257 q 360 338 351 308 l 532 972 l 628 972 l 801 339 q 815 287 810 309 q 824 244 821 265 q 831 288 827 265 q 842 340 835 310 l 974 972 l 1097 972 l 886 0 l 790 0 l 603 664 q 588 716 594 693 q 578 760 582 739 q 568 717 574 739 q 554 664 563 694 l 367 0 l 268 0 m 707 1094 q 653 1117 676 1094 q 631 1171 631 1139 q 653 1225 631 1203 q 707 1247 676 1247 q 761 1225 740 1247 q 783 1171 783 1203 q 761 1117 783 1139 q 707 1094 740 1094 m 449 1094 q 395 1117 417 1094 q 372 1171 372 1139 q 395 1225 372 1203 q 449 1247 417 1247 q 503 1225 481 1247 q 525 1171 525 1203 q 503 1117 525 1139 q 449 1094 481 1094 z "},"Ẁ":{"ha":1167,"x_min":69,"x_max":1097,"o":"m 268 0 l 69 972 l 196 972 l 315 339 q 326 282 322 307 q 333 235 331 257 q 344 283 338 257 q 360 338 351 308 l 532 972 l 628 972 l 801 339 q 815 287 810 309 q 824 244 821 265 q 831 288 827 265 q 842 340 835 310 l 974 972 l 1097 972 l 886 0 l 790 0 l 603 664 q 588 716 594 693 q 578 760 582 739 q 568 717 574 739 q 554 664 563 694 l 367 0 l 268 0 m 540 1063 l 293 1279 l 465 1279 l 663 1063 l 540 1063 z "},"Ⱳ":{"ha":1325,"x_min":69,"x_max":1294,"o":"m 268 0 l 69 972 l 196 972 l 315 339 q 326 282 322 307 q 333 235 331 257 q 345 283 338 257 q 360 337 352 309 l 532 972 l 628 972 l 801 339 q 815 287 810 309 q 824 244 821 265 q 831 287 827 265 q 842 340 835 309 l 928 751 q 981 886 945 833 q 1078 964 1017 938 q 1233 989 1140 989 l 1294 890 q 1168 877 1218 890 q 1088 827 1118 863 q 1044 724 1058 792 l 886 0 l 790 0 l 603 664 q 588 716 594 693 q 578 760 582 739 q 568 717 574 739 q 554 664 563 694 l 367 0 l 268 0 z "},"X":{"ha":838,"x_min":63,"x_max":775,"o":"m 63 0 l 351 503 l 83 972 l 219 972 l 419 621 l 617 972 l 750 972 l 483 510 l 775 0 l 639 0 l 415 393 l 197 0 l 63 0 z "},"Y":{"ha":890,"x_min":56,"x_max":835,"o":"m 386 0 l 386 382 l 56 972 l 192 972 l 446 500 l 703 972 l 835 972 l 507 385 l 507 0 l 386 0 z "},"Ý":{"ha":890,"x_min":56,"x_max":835,"o":"m 386 0 l 386 382 l 56 972 l 192 972 l 446 500 l 703 972 l 835 972 l 507 385 l 507 0 l 386 0 m 361 1063 l 558 1279 l 731 1279 l 483 1063 l 361 1063 z "},"Ŷ":{"ha":890,"x_min":56,"x_max":835,"o":"m 386 0 l 386 382 l 56 972 l 192 972 l 446 500 l 703 972 l 835 972 l 507 385 l 507 0 l 386 0 m 185 1063 l 390 1279 l 503 1279 l 706 1063 l 592 1063 l 447 1188 l 301 1063 l 185 1063 z "},"Ÿ":{"ha":890,"x_min":56,"x_max":835,"o":"m 386 0 l 386 382 l 56 972 l 192 972 l 446 500 l 703 972 l 835 972 l 507 385 l 507 0 l 386 0 m 575 1094 q 521 1117 544 1094 q 499 1171 499 1139 q 521 1225 499 1203 q 575 1247 544 1247 q 630 1225 608 1247 q 651 1171 651 1203 q 630 1117 651 1139 q 575 1094 608 1094 m 317 1094 q 263 1117 285 1094 q 240 1171 240 1139 q 263 1225 240 1203 q 317 1247 285 1247 q 371 1225 349 1247 q 393 1171 393 1203 q 371 1117 393 1139 q 317 1094 349 1094 z "},"Ỵ":{"ha":890,"x_min":56,"x_max":835,"o":"m 386 0 l 386 382 l 56 972 l 192 972 l 446 500 l 703 972 l 835 972 l 507 385 l 507 0 l 386 0 m 446 -275 q 392 -253 414 -275 q 369 -199 369 -231 q 392 -144 369 -166 q 446 -122 414 -122 q 500 -144 478 -122 q 522 -199 522 -166 q 500 -253 522 -231 q 446 -275 478 -275 z "},"Ỳ":{"ha":890,"x_min":56,"x_max":835,"o":"m 386 0 l 386 382 l 56 972 l 192 972 l 446 500 l 703 972 l 835 972 l 507 385 l 507 0 l 386 0 m 408 1063 l 161 1279 l 333 1279 l 531 1063 l 408 1063 z "},"Ƴ":{"ha":1021,"x_min":56,"x_max":990,"o":"m 386 0 l 386 382 l 56 972 l 192 972 l 446 500 l 626 832 q 701 925 659 892 q 798 973 742 958 q 929 989 854 987 l 990 890 q 868 881 916 888 q 788 852 819 873 q 733 790 756 831 l 507 385 l 507 0 l 386 0 z "},"Ỷ":{"ha":890,"x_min":56,"x_max":835,"o":"m 386 0 l 386 382 l 56 972 l 192 972 l 446 500 l 703 972 l 835 972 l 507 385 l 507 0 l 386 0 m 397 1026 q 408 1089 397 1063 q 444 1136 419 1115 q 466 1157 460 1149 q 472 1175 472 1166 q 447 1197 472 1197 q 392 1153 417 1197 l 324 1197 q 370 1264 336 1239 q 447 1289 403 1289 q 534 1257 499 1289 q 568 1176 568 1224 q 550 1112 568 1136 q 513 1074 531 1088 q 497 1053 500 1065 q 494 1026 494 1042 l 397 1026 z "},"Ȳ":{"ha":890,"x_min":56,"x_max":835,"o":"m 386 0 l 386 382 l 56 972 l 192 972 l 446 500 l 703 972 l 835 972 l 507 385 l 507 0 l 386 0 m 217 1100 l 217 1203 l 675 1203 l 675 1100 l 217 1100 z "},"Ỹ":{"ha":890,"x_min":56,"x_max":835,"o":"m 386 0 l 386 382 l 56 972 l 192 972 l 446 500 l 703 972 l 835 972 l 507 385 l 507 0 l 386 0 m 556 1089 q 484 1101 517 1089 q 422 1127 451 1114 q 374 1148 397 1139 q 326 1157 351 1157 q 282 1141 301 1157 q 261 1094 263 1126 l 199 1094 q 213 1184 199 1147 q 257 1241 227 1222 q 336 1261 288 1261 q 410 1248 376 1261 q 473 1222 444 1235 q 520 1201 497 1210 q 565 1192 543 1192 q 610 1208 592 1192 q 631 1256 628 1224 l 693 1256 q 679 1166 693 1203 q 634 1109 665 1129 q 556 1089 604 1089 z "},"Z":{"ha":903,"x_min":88,"x_max":808,"o":"m 88 0 l 88 93 l 651 857 l 119 857 l 119 972 l 808 972 l 808 879 l 247 115 l 808 115 l 808 0 l 88 0 z "},"Ź":{"ha":903,"x_min":88,"x_max":808,"o":"m 88 0 l 88 93 l 651 857 l 119 857 l 119 972 l 808 972 l 808 879 l 247 115 l 808 115 l 808 0 l 88 0 m 393 1063 l 590 1279 l 763 1279 l 515 1063 l 393 1063 z "},"Ž":{"ha":903,"x_min":88,"x_max":808,"o":"m 88 0 l 88 93 l 651 857 l 119 857 l 119 972 l 808 972 l 808 879 l 247 115 l 808 115 l 808 0 l 88 0 m 419 1063 l 217 1279 l 332 1279 l 478 1154 l 624 1279 l 738 1279 l 535 1063 l 419 1063 z "},"Ż":{"ha":903,"x_min":88,"x_max":808,"o":"m 88 0 l 88 93 l 651 857 l 119 857 l 119 972 l 808 972 l 808 879 l 247 115 l 808 115 l 808 0 l 88 0 m 478 1094 q 424 1117 446 1094 q 401 1171 401 1139 q 424 1225 401 1203 q 478 1247 446 1247 q 532 1225 510 1247 q 554 1171 554 1203 q 532 1117 554 1139 q 478 1094 510 1094 z "},"Ẓ":{"ha":903,"x_min":88,"x_max":808,"o":"m 88 0 l 88 93 l 651 857 l 119 857 l 119 972 l 808 972 l 808 879 l 247 115 l 808 115 l 808 0 l 88 0 m 447 -275 q 393 -253 415 -275 q 371 -199 371 -231 q 393 -144 371 -166 q 447 -122 415 -122 q 502 -144 480 -122 q 524 -199 524 -166 q 502 -253 524 -231 q 447 -275 480 -275 z "},"a":{"ha":731,"x_min":74,"x_max":636,"o":"m 321 -17 q 140 47 206 -17 q 74 222 74 111 q 106 347 74 294 q 199 428 139 399 q 339 457 258 457 q 436 445 391 457 q 522 411 482 434 l 522 461 q 485 582 522 544 q 368 621 447 621 q 263 602 317 621 q 161 550 208 583 l 126 651 q 248 707 180 687 q 383 726 317 726 q 573 662 510 726 q 636 471 636 598 l 636 0 l 522 0 l 522 65 q 428 5 481 26 q 321 -17 376 -17 m 339 89 q 436 113 388 89 q 522 182 485 138 l 522 304 q 442 339 487 326 q 356 351 397 351 q 233 316 278 351 q 188 221 188 281 q 228 124 188 160 q 339 89 268 89 z "},"á":{"ha":731,"x_min":74,"x_max":668,"o":"m 321 -17 q 140 47 206 -17 q 74 222 74 111 q 106 347 74 294 q 199 428 139 399 q 339 457 258 457 q 436 445 391 457 q 522 411 482 434 l 522 461 q 485 582 522 544 q 368 621 447 621 q 263 602 317 621 q 161 550 208 583 l 126 651 q 248 707 180 687 q 383 726 317 726 q 573 662 510 726 q 636 471 636 598 l 636 0 l 522 0 l 522 65 q 428 5 481 26 q 321 -17 376 -17 m 339 89 q 436 113 388 89 q 522 182 485 138 l 522 304 q 442 339 487 326 q 356 351 397 351 q 233 316 278 351 q 188 221 188 281 q 228 124 188 160 q 339 89 268 89 m 299 800 l 496 1017 l 668 1017 l 421 800 l 299 800 z "},"ă":{"ha":731,"x_min":74,"x_max":636,"o":"m 321 -17 q 140 47 206 -17 q 74 222 74 111 q 106 347 74 294 q 199 428 139 399 q 339 457 258 457 q 436 445 391 457 q 522 411 482 434 l 522 461 q 485 582 522 544 q 368 621 447 621 q 263 602 317 621 q 161 550 208 583 l 126 651 q 248 707 180 687 q 383 726 317 726 q 573 662 510 726 q 636 471 636 598 l 636 0 l 522 0 l 522 65 q 428 5 481 26 q 321 -17 376 -17 m 339 89 q 436 113 388 89 q 522 182 485 138 l 522 304 q 442 339 487 326 q 356 351 397 351 q 233 316 278 351 q 188 221 188 281 q 228 124 188 160 q 339 89 268 89 m 383 804 q 249 835 301 804 q 170 917 196 866 q 144 1031 144 969 l 252 1031 q 267 964 252 992 q 310 921 281 936 q 383 906 340 906 q 455 921 426 906 q 500 964 485 936 q 515 1031 515 992 l 623 1031 q 597 917 623 969 q 517 835 571 866 q 383 804 464 804 z "},"ắ":{"ha":731,"x_min":74,"x_max":687,"o":"m 321 -17 q 140 47 206 -17 q 74 222 74 111 q 106 347 74 294 q 199 428 139 399 q 339 457 258 457 q 436 445 391 457 q 522 411 482 434 l 522 461 q 485 582 522 544 q 368 621 447 621 q 263 602 317 621 q 161 550 208 583 l 126 651 q 248 707 180 687 q 383 726 317 726 q 573 662 510 726 q 636 471 636 598 l 636 0 l 522 0 l 522 65 q 428 5 481 26 q 321 -17 376 -17 m 339 89 q 436 113 388 89 q 522 182 485 138 l 522 304 q 442 339 487 326 q 356 351 397 351 q 233 316 278 351 q 188 221 188 281 q 228 124 188 160 q 339 89 268 89 m 383 804 q 249 835 301 804 q 170 917 196 866 q 144 1031 144 969 l 252 1031 q 267 964 252 992 q 310 921 281 936 q 383 906 340 906 q 455 921 426 906 q 500 964 485 936 q 515 1031 515 992 l 623 1031 q 597 917 623 969 q 517 835 571 866 q 383 804 464 804 m 317 1057 l 515 1274 l 687 1274 l 440 1057 l 317 1057 z "},"ặ":{"ha":731,"x_min":74,"x_max":636,"o":"m 321 -17 q 140 47 206 -17 q 74 222 74 111 q 106 347 74 294 q 199 428 139 399 q 339 457 258 457 q 436 445 391 457 q 522 411 482 434 l 522 461 q 485 582 522 544 q 368 621 447 621 q 263 602 317 621 q 161 550 208 583 l 126 651 q 248 707 180 687 q 383 726 317 726 q 573 662 510 726 q 636 471 636 598 l 636 0 l 522 0 l 522 65 q 428 5 481 26 q 321 -17 376 -17 m 339 89 q 436 113 388 89 q 522 182 485 138 l 522 304 q 442 339 487 326 q 356 351 397 351 q 233 316 278 351 q 188 221 188 281 q 228 124 188 160 q 339 89 268 89 m 321 -275 q 267 -253 289 -275 q 244 -199 244 -231 q 267 -144 244 -166 q 321 -122 289 -122 q 375 -144 353 -122 q 397 -199 397 -166 q 375 -253 397 -231 q 321 -275 353 -275 m 383 804 q 249 835 301 804 q 170 917 196 866 q 144 1031 144 969 l 252 1031 q 267 964 252 992 q 310 921 281 936 q 383 906 340 906 q 455 921 426 906 q 500 964 485 936 q 515 1031 515 992 l 623 1031 q 597 917 623 969 q 517 835 571 866 q 383 804 464 804 z "},"ằ":{"ha":731,"x_min":74,"x_max":636,"o":"m 321 -17 q 140 47 206 -17 q 74 222 74 111 q 106 347 74 294 q 199 428 139 399 q 339 457 258 457 q 436 445 391 457 q 522 411 482 434 l 522 461 q 485 582 522 544 q 368 621 447 621 q 263 602 317 621 q 161 550 208 583 l 126 651 q 248 707 180 687 q 383 726 317 726 q 573 662 510 726 q 636 471 636 598 l 636 0 l 522 0 l 522 65 q 428 5 481 26 q 321 -17 376 -17 m 339 89 q 436 113 388 89 q 522 182 485 138 l 522 304 q 442 339 487 326 q 356 351 397 351 q 233 316 278 351 q 188 221 188 281 q 228 124 188 160 q 339 89 268 89 m 383 804 q 249 835 301 804 q 170 917 196 866 q 144 1031 144 969 l 252 1031 q 267 964 252 992 q 310 921 281 936 q 383 906 340 906 q 455 921 426 906 q 500 964 485 936 q 515 1031 515 992 l 623 1031 q 597 917 623 969 q 517 835 571 866 q 383 804 464 804 m 327 1057 l 80 1274 l 252 1274 l 449 1057 l 327 1057 z "},"ẳ":{"ha":731,"x_min":74,"x_max":636,"o":"m 321 -17 q 140 47 206 -17 q 74 222 74 111 q 106 347 74 294 q 199 428 139 399 q 339 457 258 457 q 436 445 391 457 q 522 411 482 434 l 522 461 q 485 582 522 544 q 368 621 447 621 q 263 602 317 621 q 161 550 208 583 l 126 651 q 248 707 180 687 q 383 726 317 726 q 573 662 510 726 q 636 471 636 598 l 636 0 l 522 0 l 522 65 q 428 5 481 26 q 321 -17 376 -17 m 339 89 q 436 113 388 89 q 522 182 485 138 l 522 304 q 442 339 487 326 q 356 351 397 351 q 233 316 278 351 q 188 221 188 281 q 228 124 188 160 q 339 89 268 89 m 383 804 q 249 835 301 804 q 170 917 196 866 q 144 1031 144 969 l 252 1031 q 267 964 252 992 q 310 921 281 936 q 383 906 340 906 q 455 921 426 906 q 500 964 485 936 q 515 1031 515 992 l 623 1031 q 597 917 623 969 q 517 835 571 866 q 383 804 464 804 m 335 1029 q 346 1092 335 1066 q 383 1139 357 1118 q 405 1160 399 1151 q 410 1178 410 1169 q 385 1200 410 1200 q 330 1156 356 1200 l 262 1200 q 308 1267 274 1242 q 385 1292 342 1292 q 472 1259 438 1292 q 506 1179 506 1227 q 488 1115 506 1139 q 451 1076 469 1091 q 435 1056 438 1067 q 433 1029 433 1045 l 335 1029 z "},"ẵ":{"ha":731,"x_min":74,"x_max":636,"o":"m 321 -17 q 140 47 206 -17 q 74 222 74 111 q 106 347 74 294 q 199 428 139 399 q 339 457 258 457 q 436 445 391 457 q 522 411 482 434 l 522 461 q 485 582 522 544 q 368 621 447 621 q 263 602 317 621 q 161 550 208 583 l 126 651 q 248 707 180 687 q 383 726 317 726 q 573 662 510 726 q 636 471 636 598 l 636 0 l 522 0 l 522 65 q 428 5 481 26 q 321 -17 376 -17 m 339 89 q 436 113 388 89 q 522 182 485 138 l 522 304 q 442 339 487 326 q 356 351 397 351 q 233 316 278 351 q 188 221 188 281 q 228 124 188 160 q 339 89 268 89 m 383 804 q 249 835 301 804 q 170 917 196 866 q 144 1031 144 969 l 252 1031 q 267 964 252 992 q 310 921 281 936 q 383 906 340 906 q 455 921 426 906 q 500 964 485 936 q 515 1031 515 992 l 623 1031 q 597 917 623 969 q 517 835 571 866 q 383 804 464 804 m 494 1119 q 422 1132 455 1119 q 360 1158 389 1144 q 312 1178 335 1169 q 265 1188 289 1188 q 220 1172 239 1188 q 199 1125 201 1156 l 137 1125 q 151 1215 137 1177 q 195 1272 165 1252 q 274 1292 226 1292 q 348 1279 315 1292 q 411 1252 382 1266 q 458 1231 435 1240 q 503 1222 481 1222 q 548 1239 530 1222 q 569 1286 567 1255 l 631 1286 q 617 1197 631 1234 q 573 1140 603 1160 q 494 1119 542 1119 z "},"ǎ":{"ha":731,"x_min":74,"x_max":644,"o":"m 321 -17 q 140 47 206 -17 q 74 222 74 111 q 106 347 74 294 q 199 428 139 399 q 339 457 258 457 q 436 445 391 457 q 522 411 482 434 l 522 461 q 485 582 522 544 q 368 621 447 621 q 263 602 317 621 q 161 550 208 583 l 126 651 q 248 707 180 687 q 383 726 317 726 q 573 662 510 726 q 636 471 636 598 l 636 0 l 522 0 l 522 65 q 428 5 481 26 q 321 -17 376 -17 m 339 89 q 436 113 388 89 q 522 182 485 138 l 522 304 q 442 339 487 326 q 356 351 397 351 q 233 316 278 351 q 188 221 188 281 q 228 124 188 160 q 339 89 268 89 m 326 800 l 123 1017 l 238 1017 l 384 892 l 530 1017 l 644 1017 l 441 800 l 326 800 z "},"â":{"ha":731,"x_min":74,"x_max":644,"o":"m 321 -17 q 140 47 206 -17 q 74 222 74 111 q 106 347 74 294 q 199 428 139 399 q 339 457 258 457 q 436 445 391 457 q 522 411 482 434 l 522 461 q 485 582 522 544 q 368 621 447 621 q 263 602 317 621 q 161 550 208 583 l 126 651 q 248 707 180 687 q 383 726 317 726 q 573 662 510 726 q 636 471 636 598 l 636 0 l 522 0 l 522 65 q 428 5 481 26 q 321 -17 376 -17 m 339 89 q 436 113 388 89 q 522 182 485 138 l 522 304 q 442 339 487 326 q 356 351 397 351 q 233 316 278 351 q 188 221 188 281 q 228 124 188 160 q 339 89 268 89 m 123 800 l 327 1017 l 441 1017 l 644 800 l 530 800 l 384 925 l 238 800 l 123 800 z "},"ấ":{"ha":731,"x_min":74,"x_max":898,"o":"m 321 -17 q 140 47 206 -17 q 74 222 74 111 q 106 347 74 294 q 199 428 139 399 q 339 457 258 457 q 436 445 391 457 q 522 411 482 434 l 522 461 q 485 582 522 544 q 368 621 447 621 q 263 602 317 621 q 161 550 208 583 l 126 651 q 248 707 180 687 q 383 726 317 726 q 573 662 510 726 q 636 471 636 598 l 636 0 l 522 0 l 522 65 q 428 5 481 26 q 321 -17 376 -17 m 339 89 q 436 113 388 89 q 522 182 485 138 l 522 304 q 442 339 487 326 q 356 351 397 351 q 233 316 278 351 q 188 221 188 281 q 228 124 188 160 q 339 89 268 89 m 123 800 l 327 1017 l 441 1017 l 644 800 l 530 800 l 384 925 l 238 800 l 123 800 m 528 994 l 726 1211 l 898 1211 l 651 994 l 528 994 z "},"ậ":{"ha":731,"x_min":74,"x_max":644,"o":"m 321 -17 q 140 47 206 -17 q 74 222 74 111 q 106 347 74 294 q 199 428 139 399 q 339 457 258 457 q 436 445 391 457 q 522 411 482 434 l 522 461 q 485 582 522 544 q 368 621 447 621 q 263 602 317 621 q 161 550 208 583 l 126 651 q 248 707 180 687 q 383 726 317 726 q 573 662 510 726 q 636 471 636 598 l 636 0 l 522 0 l 522 65 q 428 5 481 26 q 321 -17 376 -17 m 339 89 q 436 113 388 89 q 522 182 485 138 l 522 304 q 442 339 487 326 q 356 351 397 351 q 233 316 278 351 q 188 221 188 281 q 228 124 188 160 q 339 89 268 89 m 321 -275 q 267 -253 289 -275 q 244 -199 244 -231 q 267 -144 244 -166 q 321 -122 289 -122 q 375 -144 353 -122 q 397 -199 397 -166 q 375 -253 397 -231 q 321 -275 353 -275 m 123 800 l 327 1017 l 441 1017 l 644 800 l 530 800 l 384 925 l 238 800 l 123 800 z "},"ầ":{"ha":731,"x_min":74,"x_max":722,"o":"m 321 -17 q 140 47 206 -17 q 74 222 74 111 q 106 347 74 294 q 199 428 139 399 q 339 457 258 457 q 436 445 391 457 q 522 411 482 434 l 522 461 q 485 582 522 544 q 368 621 447 621 q 263 602 317 621 q 161 550 208 583 l 126 651 q 248 707 180 687 q 383 726 317 726 q 573 662 510 726 q 636 471 636 598 l 636 0 l 522 0 l 522 65 q 428 5 481 26 q 321 -17 376 -17 m 339 89 q 436 113 388 89 q 522 182 485 138 l 522 304 q 442 339 487 326 q 356 351 397 351 q 233 316 278 351 q 188 221 188 281 q 228 124 188 160 q 339 89 268 89 m 123 800 l 327 1017 l 441 1017 l 644 800 l 530 800 l 384 925 l 238 800 l 123 800 m 599 994 l 352 1211 l 524 1211 l 722 994 l 599 994 z "},"ẩ":{"ha":731,"x_min":74,"x_max":644,"o":"m 321 -17 q 140 47 206 -17 q 74 222 74 111 q 106 347 74 294 q 199 428 139 399 q 339 457 258 457 q 436 445 391 457 q 522 411 482 434 l 522 461 q 485 582 522 544 q 368 621 447 621 q 263 602 317 621 q 161 550 208 583 l 126 651 q 248 707 180 687 q 383 726 317 726 q 573 662 510 726 q 636 471 636 598 l 636 0 l 522 0 l 522 65 q 428 5 481 26 q 321 -17 376 -17 m 339 89 q 436 113 388 89 q 522 182 485 138 l 522 304 q 442 339 487 326 q 356 351 397 351 q 233 316 278 351 q 188 221 188 281 q 228 124 188 160 q 339 89 268 89 m 123 800 l 327 1017 l 441 1017 l 644 800 l 530 800 l 384 925 l 238 800 l 123 800 m 335 1071 q 345 1134 335 1108 q 382 1181 356 1160 q 404 1202 398 1193 q 410 1219 410 1210 q 385 1242 410 1242 q 329 1197 355 1242 l 261 1242 q 307 1308 274 1283 q 385 1333 341 1333 q 471 1301 437 1333 q 506 1221 506 1269 q 487 1157 506 1181 q 450 1118 469 1133 q 435 1098 438 1109 q 432 1071 432 1087 l 335 1071 z "},"ẫ":{"ha":731,"x_min":74,"x_max":644,"o":"m 321 -17 q 140 47 206 -17 q 74 222 74 111 q 106 347 74 294 q 199 428 139 399 q 339 457 258 457 q 436 445 391 457 q 522 411 482 434 l 522 461 q 485 582 522 544 q 368 621 447 621 q 263 602 317 621 q 161 550 208 583 l 126 651 q 248 707 180 687 q 383 726 317 726 q 573 662 510 726 q 636 471 636 598 l 636 0 l 522 0 l 522 65 q 428 5 481 26 q 321 -17 376 -17 m 339 89 q 436 113 388 89 q 522 182 485 138 l 522 304 q 442 339 487 326 q 356 351 397 351 q 233 316 278 351 q 188 221 188 281 q 228 124 188 160 q 339 89 268 89 m 123 800 l 327 1017 l 441 1017 l 644 800 l 530 800 l 384 925 l 238 800 l 123 800 m 494 1106 q 422 1118 455 1106 q 360 1144 389 1131 q 312 1165 335 1156 q 265 1174 289 1174 q 220 1158 239 1174 q 199 1111 201 1142 l 137 1111 q 151 1201 137 1163 q 195 1258 165 1238 q 274 1278 226 1278 q 348 1265 315 1278 q 411 1238 382 1252 q 458 1217 435 1226 q 503 1208 481 1208 q 548 1225 530 1208 q 569 1272 567 1241 l 631 1272 q 617 1183 631 1220 q 573 1126 603 1146 q 494 1106 542 1106 z "},"ȁ":{"ha":731,"x_min":-57,"x_max":636,"o":"m 321 -17 q 140 47 206 -17 q 74 222 74 111 q 106 347 74 294 q 199 428 139 399 q 339 457 258 457 q 436 445 391 457 q 522 411 482 434 l 522 461 q 485 582 522 544 q 368 621 447 621 q 263 602 317 621 q 161 550 208 583 l 126 651 q 248 707 180 687 q 383 726 317 726 q 573 662 510 726 q 636 471 636 598 l 636 0 l 522 0 l 522 65 q 428 5 481 26 q 321 -17 376 -17 m 339 89 q 436 113 388 89 q 522 182 485 138 l 522 304 q 442 339 487 326 q 356 351 397 351 q 233 316 278 351 q 188 221 188 281 q 228 124 188 160 q 339 89 268 89 m 190 800 l -57 1017 l 115 1017 l 313 800 l 190 800 m 474 800 l 226 1017 l 399 1017 l 596 800 l 474 800 z "},"ä":{"ha":731,"x_min":74,"x_max":636,"o":"m 321 -17 q 140 47 206 -17 q 74 222 74 111 q 106 347 74 294 q 199 428 139 399 q 339 457 258 457 q 436 445 391 457 q 522 411 482 434 l 522 461 q 485 582 522 544 q 368 621 447 621 q 263 602 317 621 q 161 550 208 583 l 126 651 q 248 707 180 687 q 383 726 317 726 q 573 662 510 726 q 636 471 636 598 l 636 0 l 522 0 l 522 65 q 428 5 481 26 q 321 -17 376 -17 m 339 89 q 436 113 388 89 q 522 182 485 138 l 522 304 q 442 339 487 326 q 356 351 397 351 q 233 316 278 351 q 188 221 188 281 q 228 124 188 160 q 339 89 268 89 m 503 839 q 449 861 472 839 q 426 915 426 883 q 449 970 426 948 q 503 992 472 992 q 557 970 535 992 q 579 915 579 948 q 557 861 579 883 q 503 839 535 839 m 263 839 q 209 861 231 839 q 186 915 186 883 q 209 970 186 948 q 263 992 231 992 q 317 970 295 992 q 339 915 339 948 q 317 861 339 883 q 263 839 295 839 z "},"ǟ":{"ha":731,"x_min":74,"x_max":636,"o":"m 321 -17 q 140 47 206 -17 q 74 222 74 111 q 106 347 74 294 q 199 428 139 399 q 339 457 258 457 q 436 445 391 457 q 522 411 482 434 l 522 461 q 485 582 522 544 q 368 621 447 621 q 263 602 317 621 q 161 550 208 583 l 126 651 q 248 707 180 687 q 383 726 317 726 q 573 662 510 726 q 636 471 636 598 l 636 0 l 522 0 l 522 65 q 428 5 481 26 q 321 -17 376 -17 m 339 89 q 436 113 388 89 q 522 182 485 138 l 522 304 q 442 339 487 326 q 356 351 397 351 q 233 316 278 351 q 188 221 188 281 q 228 124 188 160 q 339 89 268 89 m 503 839 q 449 861 472 839 q 426 915 426 883 q 449 970 426 948 q 503 992 472 992 q 557 970 535 992 q 579 915 579 948 q 557 861 579 883 q 503 839 535 839 m 263 839 q 209 861 231 839 q 186 915 186 883 q 209 970 186 948 q 263 992 231 992 q 317 970 295 992 q 339 915 339 948 q 317 861 339 883 q 263 839 295 839 m 154 1119 l 154 1222 l 613 1222 l 613 1119 l 154 1119 z "},"ȧ":{"ha":731,"x_min":74,"x_max":636,"o":"m 321 -17 q 140 47 206 -17 q 74 222 74 111 q 106 347 74 294 q 199 428 139 399 q 339 457 258 457 q 436 445 391 457 q 522 411 482 434 l 522 461 q 485 582 522 544 q 368 621 447 621 q 263 602 317 621 q 161 550 208 583 l 126 651 q 248 707 180 687 q 383 726 317 726 q 573 662 510 726 q 636 471 636 598 l 636 0 l 522 0 l 522 65 q 428 5 481 26 q 321 -17 376 -17 m 339 89 q 436 113 388 89 q 522 182 485 138 l 522 304 q 442 339 487 326 q 356 351 397 351 q 233 316 278 351 q 188 221 188 281 q 228 124 188 160 q 339 89 268 89 m 383 832 q 329 854 351 832 q 307 908 307 876 q 329 963 307 941 q 383 985 351 985 q 438 963 416 985 q 460 908 460 941 q 438 854 460 876 q 383 832 416 832 z "},"ạ":{"ha":731,"x_min":74,"x_max":636,"o":"m 321 -17 q 140 47 206 -17 q 74 222 74 111 q 106 347 74 294 q 199 428 139 399 q 339 457 258 457 q 436 445 391 457 q 522 411 482 434 l 522 461 q 485 582 522 544 q 368 621 447 621 q 263 602 317 621 q 161 550 208 583 l 126 651 q 248 707 180 687 q 383 726 317 726 q 573 662 510 726 q 636 471 636 598 l 636 0 l 522 0 l 522 65 q 428 5 481 26 q 321 -17 376 -17 m 339 89 q 436 113 388 89 q 522 182 485 138 l 522 304 q 442 339 487 326 q 356 351 397 351 q 233 316 278 351 q 188 221 188 281 q 228 124 188 160 q 339 89 268 89 m 321 -275 q 267 -253 289 -275 q 244 -199 244 -231 q 267 -144 244 -166 q 321 -122 289 -122 q 375 -144 353 -122 q 397 -199 397 -166 q 375 -253 397 -231 q 321 -275 353 -275 z "},"ǡ":{"ha":731,"x_min":74,"x_max":636,"o":"m 321 -17 q 140 47 206 -17 q 74 222 74 111 q 106 347 74 294 q 199 428 139 399 q 339 457 258 457 q 436 445 391 457 q 522 411 482 434 l 522 461 q 485 582 522 544 q 368 621 447 621 q 263 602 317 621 q 161 550 208 583 l 126 651 q 248 707 180 687 q 383 726 317 726 q 573 662 510 726 q 636 471 636 598 l 636 0 l 522 0 l 522 65 q 428 5 481 26 q 321 -17 376 -17 m 339 89 q 436 113 388 89 q 522 182 485 138 l 522 304 q 442 339 487 326 q 356 351 397 351 q 233 316 278 351 q 188 221 188 281 q 228 124 188 160 q 339 89 268 89 m 383 832 q 329 854 351 832 q 307 908 307 876 q 329 963 307 941 q 383 985 351 985 q 438 963 416 985 q 460 908 460 941 q 438 854 460 876 q 383 832 416 832 m 154 1113 l 154 1215 l 613 1215 l 613 1113 l 154 1113 z "},"à":{"ha":731,"x_min":74,"x_max":636,"o":"m 321 -17 q 140 47 206 -17 q 74 222 74 111 q 106 347 74 294 q 199 428 139 399 q 339 457 258 457 q 436 445 391 457 q 522 411 482 434 l 522 461 q 485 582 522 544 q 368 621 447 621 q 263 602 317 621 q 161 550 208 583 l 126 651 q 248 707 180 687 q 383 726 317 726 q 573 662 510 726 q 636 471 636 598 l 636 0 l 522 0 l 522 65 q 428 5 481 26 q 321 -17 376 -17 m 339 89 q 436 113 388 89 q 522 182 485 138 l 522 304 q 442 339 487 326 q 356 351 397 351 q 233 316 278 351 q 188 221 188 281 q 228 124 188 160 q 339 89 268 89 m 346 800 l 99 1017 l 271 1017 l 468 800 l 346 800 z "},"ả":{"ha":731,"x_min":74,"x_max":636,"o":"m 321 -17 q 140 47 206 -17 q 74 222 74 111 q 106 347 74 294 q 199 428 139 399 q 339 457 258 457 q 436 445 391 457 q 522 411 482 434 l 522 461 q 485 582 522 544 q 368 621 447 621 q 263 602 317 621 q 161 550 208 583 l 126 651 q 248 707 180 687 q 383 726 317 726 q 573 662 510 726 q 636 471 636 598 l 636 0 l 522 0 l 522 65 q 428 5 481 26 q 321 -17 376 -17 m 339 89 q 436 113 388 89 q 522 182 485 138 l 522 304 q 442 339 487 326 q 356 351 397 351 q 233 316 278 351 q 188 221 188 281 q 228 124 188 160 q 339 89 268 89 m 335 764 q 345 827 335 801 q 382 874 356 853 q 404 895 398 886 q 410 913 410 903 q 385 935 410 935 q 329 890 355 935 l 261 935 q 307 1001 274 976 q 385 1026 341 1026 q 471 994 437 1026 q 506 914 506 962 q 487 850 506 874 q 450 811 469 826 q 435 791 438 802 q 432 764 432 780 l 335 764 z "},"ȃ":{"ha":731,"x_min":74,"x_max":636,"o":"m 321 -17 q 140 47 206 -17 q 74 222 74 111 q 106 347 74 294 q 199 428 139 399 q 339 457 258 457 q 436 445 391 457 q 522 411 482 434 l 522 461 q 485 582 522 544 q 368 621 447 621 q 263 602 317 621 q 161 550 208 583 l 126 651 q 248 707 180 687 q 383 726 317 726 q 573 662 510 726 q 636 471 636 598 l 636 0 l 522 0 l 522 65 q 428 5 481 26 q 321 -17 376 -17 m 339 89 q 436 113 388 89 q 522 182 485 138 l 522 304 q 442 339 487 326 q 356 351 397 351 q 233 316 278 351 q 188 221 188 281 q 228 124 188 160 q 339 89 268 89 m 144 804 q 170 917 144 866 q 249 1000 196 969 q 384 1031 303 1031 q 507 1004 458 1031 q 585 932 557 977 q 622 832 613 887 q 623 819 623 826 q 623 804 623 812 l 515 804 q 514 819 515 812 q 512 832 513 826 q 472 903 505 878 q 384 929 440 929 q 311 914 341 929 q 267 870 282 899 q 252 804 252 842 l 144 804 z "},"ɑ":{"ha":781,"x_min":74,"x_max":667,"o":"m 367 -17 q 152 84 231 -17 q 74 356 74 184 q 109 553 74 469 q 211 681 145 636 q 367 726 276 726 q 546 660 471 726 l 546 710 l 667 710 l 667 0 l 546 0 l 546 56 q 367 -17 476 -17 m 383 96 q 476 121 433 96 q 546 192 519 146 l 546 525 q 476 591 519 567 q 383 615 433 615 q 245 548 294 615 q 196 356 196 481 q 219 220 196 278 q 285 129 243 162 q 383 96 328 96 z "},"ɒ":{"ha":781,"x_min":114,"x_max":707,"o":"m 414 -17 q 235 50 310 -17 l 235 0 l 114 0 l 114 710 l 235 710 l 235 654 q 414 726 305 726 q 628 626 549 726 q 707 354 707 526 q 671 157 707 240 q 570 28 635 74 q 414 -17 504 -17 m 397 94 q 536 162 487 94 q 585 354 585 229 q 561 490 585 431 q 495 581 538 548 q 397 614 453 614 q 305 589 347 614 q 235 518 262 564 l 235 185 q 305 119 262 143 q 397 94 349 94 z "},"ā":{"ha":731,"x_min":74,"x_max":636,"o":"m 321 -17 q 140 47 206 -17 q 74 222 74 111 q 106 347 74 294 q 199 428 139 399 q 339 457 258 457 q 436 445 391 457 q 522 411 482 434 l 522 461 q 485 582 522 544 q 368 621 447 621 q 263 602 317 621 q 161 550 208 583 l 126 651 q 248 707 180 687 q 383 726 317 726 q 573 662 510 726 q 636 471 636 598 l 636 0 l 522 0 l 522 65 q 428 5 481 26 q 321 -17 376 -17 m 339 89 q 436 113 388 89 q 522 182 485 138 l 522 304 q 442 339 487 326 q 356 351 397 351 q 233 316 278 351 q 188 221 188 281 q 228 124 188 160 q 339 89 268 89 m 154 838 l 154 940 l 613 940 l 613 838 l 154 838 z "},"ą":{"ha":731,"x_min":74,"x_max":636,"o":"m 485 -329 q 368 -291 412 -329 q 325 -189 325 -252 q 378 -70 325 -120 q 522 0 431 -19 l 522 65 q 428 5 481 26 q 321 -17 376 -17 q 140 47 206 -17 q 74 222 74 111 q 106 347 74 294 q 199 428 139 399 q 339 457 258 457 q 436 445 391 457 q 522 411 482 434 l 522 461 q 485 582 522 544 q 368 621 447 621 q 263 602 317 621 q 161 550 208 583 l 126 651 q 247 707 178 687 q 383 726 316 726 q 573 662 510 726 q 636 471 636 598 l 636 0 q 483 -71 540 -23 q 426 -176 426 -119 q 447 -232 426 -210 q 499 -253 467 -253 q 565 -224 540 -253 l 628 -269 q 485 -329 574 -329 m 339 90 q 438 115 389 90 q 522 183 486 140 l 522 306 q 442 340 487 328 q 356 353 397 353 q 233 318 278 353 q 188 222 188 283 q 228 126 188 161 q 339 90 268 90 z "},"å":{"ha":731,"x_min":74,"x_max":636,"o":"m 321 -17 q 140 47 206 -17 q 74 222 74 111 q 106 347 74 294 q 199 428 139 399 q 339 457 258 457 q 436 445 391 457 q 522 411 482 434 l 522 461 q 485 582 522 544 q 368 621 447 621 q 263 602 317 621 q 161 550 208 583 l 126 651 q 248 707 180 687 q 383 726 317 726 q 573 662 510 726 q 636 471 636 598 l 636 0 l 522 0 l 522 65 q 428 5 481 26 q 321 -17 376 -17 m 339 89 q 436 113 388 89 q 522 182 485 138 l 522 304 q 442 339 487 326 q 356 351 397 351 q 233 316 278 351 q 188 221 188 281 q 228 124 188 160 q 339 89 268 89 m 383 772 q 301 795 338 772 q 241 855 263 817 q 218 936 218 892 q 241 1018 218 981 q 301 1076 263 1054 q 383 1097 338 1097 q 465 1076 428 1097 q 526 1018 503 1054 q 549 936 549 981 q 526 855 549 892 q 465 795 503 817 q 383 772 428 772 m 383 861 q 433 883 413 861 q 453 936 453 904 q 433 990 453 969 q 383 1010 413 1010 q 333 990 354 1010 q 313 936 313 969 q 333 883 313 904 q 383 861 354 861 z "},"ǻ":{"ha":731,"x_min":74,"x_max":668,"o":"m 321 -17 q 140 47 206 -17 q 74 222 74 111 q 106 347 74 294 q 199 428 139 399 q 339 457 258 457 q 436 445 391 457 q 522 411 482 434 l 522 461 q 485 582 522 544 q 368 621 447 621 q 263 602 317 621 q 161 550 208 583 l 126 651 q 248 707 180 687 q 383 726 317 726 q 573 662 510 726 q 636 471 636 598 l 636 0 l 522 0 l 522 65 q 428 5 481 26 q 321 -17 376 -17 m 339 89 q 436 113 388 89 q 522 182 485 138 l 522 304 q 442 339 487 326 q 356 351 397 351 q 233 316 278 351 q 188 221 188 281 q 228 124 188 160 q 339 89 268 89 m 383 779 q 301 802 338 779 q 241 861 263 824 q 218 943 218 899 q 241 1025 218 988 q 301 1083 263 1061 q 383 1104 338 1104 q 465 1083 428 1104 q 526 1025 503 1061 q 549 943 549 988 q 526 861 549 899 q 465 802 503 824 q 383 779 428 779 m 383 868 q 433 890 413 868 q 453 943 453 911 q 433 997 453 976 q 383 1017 413 1017 q 333 997 354 1017 q 313 943 313 976 q 333 890 313 911 q 383 868 354 868 m 299 1104 l 496 1321 l 668 1321 l 421 1104 l 299 1104 z "},"ã":{"ha":731,"x_min":74,"x_max":636,"o":"m 321 -17 q 140 47 206 -17 q 74 222 74 111 q 106 347 74 294 q 199 428 139 399 q 339 457 258 457 q 436 445 391 457 q 522 411 482 434 l 522 461 q 485 582 522 544 q 368 621 447 621 q 263 602 317 621 q 161 550 208 583 l 126 651 q 248 707 180 687 q 383 726 317 726 q 573 662 510 726 q 636 471 636 598 l 636 0 l 522 0 l 522 65 q 428 5 481 26 q 321 -17 376 -17 m 339 89 q 436 113 388 89 q 522 182 485 138 l 522 304 q 442 339 487 326 q 356 351 397 351 q 233 316 278 351 q 188 221 188 281 q 228 124 188 160 q 339 89 268 89 m 493 826 q 421 839 454 826 q 360 865 388 851 q 311 885 335 876 q 264 894 288 894 q 219 879 238 894 q 199 832 201 863 l 136 832 q 150 922 136 884 q 195 979 165 959 q 274 999 225 999 q 348 986 314 999 q 410 959 381 973 q 458 938 435 947 q 503 929 481 929 q 548 945 529 929 q 568 993 566 962 l 631 993 q 616 904 631 941 q 572 847 602 867 q 493 826 542 826 z "},"ɐ":{"ha":731,"x_min":94,"x_max":657,"o":"m 347 -17 q 158 48 222 -17 q 94 239 94 112 l 94 710 l 208 710 l 208 644 q 302 705 250 684 q 410 726 355 726 q 591 663 526 726 q 657 488 657 599 q 624 363 657 416 q 532 282 592 310 q 392 253 472 253 q 294 264 340 253 q 208 299 249 276 l 208 249 q 246 128 208 167 q 363 89 283 89 q 468 108 414 89 q 569 160 523 126 l 604 58 q 483 3 551 23 q 347 -17 414 -17 m 375 358 q 498 393 453 358 q 543 489 543 428 q 503 586 543 551 q 392 621 463 621 q 294 597 343 621 q 208 528 246 573 l 208 406 q 289 371 244 384 q 375 358 335 358 z "},"æ":{"ha":1190,"x_min":74,"x_max":1125,"o":"m 321 -17 q 193 10 249 -17 q 105 90 137 37 q 74 222 74 143 q 111 356 74 303 q 209 432 149 408 q 339 457 269 457 q 432 447 386 457 q 522 411 478 436 l 522 461 q 484 584 522 547 q 368 621 447 621 q 255 600 309 621 q 161 550 201 578 l 126 651 q 236 703 169 680 q 383 726 303 726 q 507 703 449 726 q 597 621 565 679 q 700 700 640 674 q 831 726 760 726 q 981 689 915 726 q 1086 576 1048 651 q 1125 389 1125 501 q 1124 351 1125 372 q 1121 308 1123 329 l 640 308 q 671 195 645 243 q 739 120 697 147 q 833 93 781 93 q 915 108 875 93 q 988 157 954 124 l 1061 75 q 965 10 1024 38 q 831 -17 907 -17 q 683 21 747 -17 q 581 115 619 58 q 451 13 524 42 q 321 -17 378 -17 m 339 90 q 453 124 401 90 q 538 203 506 158 q 526 256 531 223 q 522 306 522 288 q 442 340 487 326 q 356 353 397 353 q 272 339 310 353 q 210 296 233 325 q 188 222 188 267 q 227 127 188 163 q 339 90 266 90 m 639 414 l 1003 414 q 983 520 1003 474 q 924 593 963 567 q 832 619 886 619 q 700 570 755 619 q 639 414 645 522 z "},"ǽ":{"ha":1190,"x_min":74,"x_max":1125,"o":"m 321 -17 q 193 10 249 -17 q 105 90 137 37 q 74 222 74 143 q 111 356 74 303 q 209 432 149 408 q 339 457 269 457 q 432 447 386 457 q 522 411 478 436 l 522 461 q 484 584 522 547 q 368 621 447 621 q 255 600 309 621 q 161 550 201 578 l 126 651 q 236 703 169 680 q 383 726 303 726 q 507 703 449 726 q 597 621 565 679 q 700 700 640 674 q 831 726 760 726 q 981 689 915 726 q 1086 576 1048 651 q 1125 389 1125 501 q 1124 351 1125 372 q 1121 308 1123 329 l 640 308 q 671 195 645 243 q 739 120 697 147 q 833 93 781 93 q 915 108 875 93 q 988 157 954 124 l 1061 75 q 965 10 1024 38 q 831 -17 907 -17 q 683 21 747 -17 q 581 115 619 58 q 451 13 524 42 q 321 -17 378 -17 m 339 90 q 453 124 401 90 q 538 203 506 158 q 526 256 531 223 q 522 306 522 288 q 442 340 487 326 q 356 353 397 353 q 272 339 310 353 q 210 296 233 325 q 188 222 188 267 q 227 127 188 163 q 339 90 266 90 m 639 414 l 1003 414 q 983 520 1003 474 q 924 593 963 567 q 832 619 886 619 q 700 570 755 619 q 639 414 645 522 m 511 800 l 708 1017 l 881 1017 l 633 800 l 511 800 z "},"ǣ":{"ha":1190,"x_min":74,"x_max":1125,"o":"m 321 -17 q 193 10 249 -17 q 105 90 137 37 q 74 222 74 143 q 111 356 74 303 q 209 432 149 408 q 339 457 269 457 q 432 447 386 457 q 522 411 478 436 l 522 461 q 484 584 522 547 q 368 621 447 621 q 255 600 309 621 q 161 550 201 578 l 126 651 q 236 703 169 680 q 383 726 303 726 q 507 703 449 726 q 597 621 565 679 q 700 700 640 674 q 831 726 760 726 q 981 689 915 726 q 1086 576 1048 651 q 1125 389 1125 501 q 1124 351 1125 372 q 1121 308 1123 329 l 640 308 q 671 195 645 243 q 739 120 697 147 q 833 93 781 93 q 915 108 875 93 q 988 157 954 124 l 1061 75 q 965 10 1024 38 q 831 -17 907 -17 q 683 21 747 -17 q 581 115 619 58 q 451 13 524 42 q 321 -17 378 -17 m 339 90 q 453 124 401 90 q 538 203 506 158 q 526 256 531 223 q 522 306 522 288 q 442 340 487 326 q 356 353 397 353 q 272 339 310 353 q 210 296 233 325 q 188 222 188 267 q 227 127 188 163 q 339 90 266 90 m 639 414 l 1003 414 q 983 520 1003 474 q 924 593 963 567 q 832 619 886 619 q 700 570 755 619 q 639 414 645 522 m 367 838 l 367 940 l 825 940 l 825 838 l 367 838 z "},"b":{"ha":781,"x_min":115,"x_max":708,"o":"m 418 -17 q 322 2 365 -17 q 236 61 279 21 l 236 0 l 115 0 l 115 946 l 236 1003 l 236 649 q 316 706 269 685 q 414 726 363 726 q 570 681 504 726 q 672 553 636 636 q 708 356 708 469 q 632 81 708 178 q 418 -17 556 -17 m 401 96 q 538 163 490 96 q 585 356 585 231 q 538 549 585 483 q 401 615 491 615 q 307 589 353 615 q 236 521 260 562 l 236 192 q 307 122 263 148 q 401 96 351 96 z "},"ḅ":{"ha":781,"x_min":115,"x_max":708,"o":"m 418 -17 q 322 2 365 -17 q 236 61 279 21 l 236 0 l 115 0 l 115 946 l 236 1003 l 236 649 q 316 706 269 685 q 414 726 363 726 q 570 681 504 726 q 672 553 636 636 q 708 356 708 469 q 632 81 708 178 q 418 -17 556 -17 m 401 96 q 538 163 490 96 q 585 356 585 231 q 538 549 585 483 q 401 615 491 615 q 307 589 353 615 q 236 521 260 562 l 236 192 q 307 122 263 148 q 401 96 351 96 m 414 -275 q 360 -253 382 -275 q 338 -199 338 -231 q 360 -144 338 -166 q 414 -122 382 -122 q 468 -144 447 -122 q 490 -199 490 -166 q 468 -253 490 -231 q 414 -275 447 -275 z "},"ɓ":{"ha":781,"x_min":115,"x_max":708,"o":"m 418 -17 q 322 2 365 -17 q 236 61 279 21 l 236 0 l 115 0 l 115 735 q 174 948 115 872 q 361 1042 233 1023 l 418 950 q 308 918 347 939 q 252 863 268 897 q 236 779 236 829 l 236 649 q 316 706 269 685 q 414 726 363 726 q 570 681 504 726 q 672 553 636 636 q 708 356 708 469 q 632 81 708 178 q 418 -17 556 -17 m 401 96 q 538 163 490 96 q 585 356 585 231 q 538 549 585 483 q 401 615 491 615 q 307 589 353 615 q 236 521 260 562 l 236 192 q 307 122 263 148 q 401 96 351 96 z "},"ʬ":{"ha":808,"x_min":122,"x_max":686,"o":"m 235 531 l 122 972 l 231 972 l 281 754 q 288 715 285 735 q 293 736 290 726 q 298 753 295 745 l 360 972 l 449 972 l 510 755 q 514 736 512 747 q 519 715 517 726 q 528 756 524 740 l 577 972 l 686 972 l 574 531 l 478 531 l 415 737 q 410 758 413 747 q 404 781 407 770 q 399 759 401 770 q 393 738 396 747 l 331 531 l 235 531 m 235 0 l 122 442 l 231 442 l 281 224 q 288 185 285 204 q 293 205 290 196 q 298 223 295 215 l 360 442 l 449 442 l 510 224 q 514 206 512 216 q 519 185 517 196 q 528 226 524 209 l 577 442 l 686 442 l 574 0 l 478 0 l 415 206 q 410 228 413 216 q 404 251 407 240 q 399 228 401 240 q 393 207 396 217 l 331 0 l 235 0 z "},"c":{"ha":694,"x_min":74,"x_max":628,"o":"m 368 -17 q 210 28 276 -17 q 109 156 144 73 q 74 354 74 239 q 110 553 74 470 q 213 682 146 637 q 374 726 280 726 q 529 684 465 726 q 622 561 593 642 l 508 519 q 457 590 491 565 q 375 614 422 614 q 243 547 289 614 q 197 354 197 481 q 242 164 197 231 q 371 97 288 97 q 462 125 424 97 q 515 203 500 153 l 628 165 q 534 31 602 78 q 368 -17 466 -17 z "},"ć":{"ha":694,"x_min":74,"x_max":658,"o":"m 368 -17 q 210 28 276 -17 q 109 156 144 73 q 74 354 74 239 q 110 553 74 470 q 213 682 146 637 q 374 726 280 726 q 529 684 465 726 q 622 561 593 642 l 508 519 q 457 590 491 565 q 375 614 422 614 q 243 547 289 614 q 197 354 197 481 q 242 164 197 231 q 371 97 288 97 q 462 125 424 97 q 515 203 500 153 l 628 165 q 534 31 602 78 q 368 -17 466 -17 m 289 800 l 486 1017 l 658 1017 l 411 800 l 289 800 z "},"č":{"ha":694,"x_min":74,"x_max":634,"o":"m 368 -17 q 210 28 276 -17 q 109 156 144 73 q 74 354 74 239 q 110 553 74 470 q 213 682 146 637 q 374 726 280 726 q 529 684 465 726 q 622 561 593 642 l 508 519 q 457 590 491 565 q 375 614 422 614 q 243 547 289 614 q 197 354 197 481 q 242 164 197 231 q 371 97 288 97 q 462 125 424 97 q 515 203 500 153 l 628 165 q 534 31 602 78 q 368 -17 466 -17 m 316 800 l 113 1017 l 228 1017 l 374 892 l 520 1017 l 634 1017 l 431 800 l 316 800 z "},"ç":{"ha":694,"x_min":74,"x_max":628,"o":"m 368 -17 q 210 28 276 -17 q 109 156 144 73 q 74 354 74 239 q 110 553 74 470 q 213 682 146 637 q 374 726 280 726 q 529 684 465 726 q 622 561 593 642 l 508 519 q 457 590 491 565 q 375 614 422 614 q 243 547 289 614 q 197 354 197 481 q 242 164 197 231 q 371 97 288 97 q 462 125 424 97 q 515 203 500 153 l 628 165 q 534 31 602 78 q 368 -17 466 -17 m 349 -329 q 272 -316 304 -329 q 218 -283 239 -303 l 286 -236 q 306 -250 294 -247 q 338 -254 318 -254 q 389 -235 368 -254 q 410 -187 410 -217 q 386 -143 410 -161 q 329 -125 362 -125 q 300 -127 313 -125 q 276 -135 287 -129 l 254 -107 l 332 0 l 403 0 l 365 -74 q 481 -109 447 -74 q 515 -189 515 -145 q 469 -290 515 -250 q 349 -329 423 -329 z "},"ĉ":{"ha":694,"x_min":74,"x_max":634,"o":"m 368 -17 q 210 28 276 -17 q 109 156 144 73 q 74 354 74 239 q 110 553 74 470 q 213 682 146 637 q 374 726 280 726 q 529 684 465 726 q 622 561 593 642 l 508 519 q 457 590 491 565 q 375 614 422 614 q 243 547 289 614 q 197 354 197 481 q 242 164 197 231 q 371 97 288 97 q 462 125 424 97 q 515 203 500 153 l 628 165 q 534 31 602 78 q 368 -17 466 -17 m 113 800 l 317 1017 l 431 1017 l 634 800 l 520 800 l 374 925 l 228 800 l 113 800 z "},"ċ":{"ha":694,"x_min":74,"x_max":628,"o":"m 368 -17 q 210 28 276 -17 q 109 156 144 73 q 74 354 74 239 q 110 553 74 470 q 213 682 146 637 q 374 726 280 726 q 529 684 465 726 q 622 561 593 642 l 508 519 q 457 590 491 565 q 375 614 422 614 q 243 547 289 614 q 197 354 197 481 q 242 164 197 231 q 371 97 288 97 q 462 125 424 97 q 515 203 500 153 l 628 165 q 534 31 602 78 q 368 -17 466 -17 m 374 832 q 319 854 342 832 q 297 908 297 876 q 319 963 297 941 q 374 985 342 985 q 428 963 406 985 q 450 908 450 941 q 428 854 450 876 q 374 832 406 832 z "},"ƈ":{"ha":787,"x_min":74,"x_max":804,"o":"m 368 -17 q 210 28 276 -17 q 109 156 144 73 q 74 354 74 239 q 110 553 74 470 q 213 682 146 637 q 374 726 280 726 q 501 700 445 726 l 501 735 q 560 948 501 872 q 747 1042 619 1023 l 804 950 q 694 918 733 939 q 638 863 654 897 q 622 779 622 829 l 622 561 l 508 519 q 457 590 491 565 q 375 614 422 614 q 243 547 289 614 q 197 354 197 481 q 242 164 197 231 q 371 97 288 97 q 462 125 424 97 q 515 203 500 153 l 628 165 q 534 31 602 78 q 368 -17 466 -17 z "},"d":{"ha":781,"x_min":74,"x_max":667,"o":"m 367 -17 q 152 84 231 -17 q 74 356 74 184 q 109 553 74 469 q 211 681 145 636 q 367 726 276 726 q 546 660 471 726 l 546 946 l 667 1003 l 667 0 l 546 0 l 546 56 q 367 -17 476 -17 m 383 96 q 476 121 433 96 q 546 192 519 146 l 546 525 q 476 591 519 567 q 383 615 433 615 q 245 548 294 615 q 196 356 196 481 q 219 220 196 278 q 285 129 243 162 q 383 96 328 96 z "},"ð":{"ha":775,"x_min":74,"x_max":701,"o":"m 388 -17 q 224 25 294 -17 q 113 141 153 67 q 74 307 74 214 q 115 478 74 404 q 226 592 156 551 q 381 633 295 633 q 505 601 456 633 q 578 525 555 568 q 526 683 565 610 q 424 806 488 756 l 335 711 l 274 771 l 349 851 q 273 878 313 868 q 186 892 232 889 l 186 989 q 311 971 251 986 q 421 929 371 956 l 501 1014 l 564 953 l 496 881 q 648 673 594 803 q 701 374 701 544 q 666 170 701 258 q 561 33 631 83 q 388 -17 492 -17 m 388 96 q 484 123 441 96 q 553 198 528 151 q 579 306 579 246 q 554 416 579 367 q 485 494 529 465 q 386 522 442 522 q 290 495 333 522 q 221 419 247 467 q 196 307 196 370 q 222 199 196 247 q 291 124 248 151 q 388 96 335 96 z "},"ď":{"ha":954,"x_min":74,"x_max":919,"o":"m 367 -17 q 152 84 231 -17 q 74 356 74 184 q 109 553 74 469 q 211 681 145 636 q 367 726 276 726 q 546 660 471 726 l 546 946 l 667 1003 l 667 0 l 546 0 l 546 56 q 367 -17 476 -17 m 383 96 q 476 121 433 96 q 546 192 519 146 l 546 525 q 476 591 519 567 q 383 615 433 615 q 245 548 294 615 q 196 356 196 481 q 219 220 196 278 q 285 129 243 162 q 383 96 328 96 m 796 661 l 760 688 q 782 764 772 714 q 796 874 791 814 q 801 989 801 933 l 919 989 l 919 978 q 892 807 919 885 q 796 661 864 728 z "},"ḓ":{"ha":781,"x_min":74,"x_max":667,"o":"m 367 -17 q 152 84 231 -17 q 74 356 74 184 q 109 553 74 469 q 211 681 145 636 q 367 726 276 726 q 546 660 471 726 l 546 946 l 667 1003 l 667 0 l 546 0 l 546 56 q 367 -17 476 -17 m 383 96 q 476 121 433 96 q 546 192 519 146 l 546 525 q 476 591 519 567 q 383 615 433 615 q 245 548 294 615 q 196 356 196 481 q 219 220 196 278 q 285 129 243 162 q 383 96 328 96 m 125 -318 l 329 -101 l 443 -101 l 646 -318 l 532 -318 l 386 -193 l 240 -318 l 125 -318 z "},"đ":{"ha":781,"x_min":74,"x_max":753,"o":"m 367 -17 q 211 27 276 -17 q 109 151 145 72 q 74 335 74 230 q 110 519 74 442 q 213 639 147 597 q 367 681 278 681 q 473 661 429 681 q 546 614 516 641 l 546 761 l 358 761 l 358 865 l 546 865 l 546 946 l 667 1003 l 667 865 l 753 865 l 753 761 l 667 761 l 667 0 l 546 0 l 546 56 q 472 3 514 24 q 367 -17 431 -17 m 383 96 q 476 121 433 96 q 546 192 519 146 l 546 479 q 510 521 533 500 q 456 556 488 542 q 383 569 424 569 q 245 507 294 569 q 196 335 196 445 q 218 216 196 271 q 283 129 241 162 q 383 96 325 96 z "},"ḍ":{"ha":781,"x_min":74,"x_max":667,"o":"m 367 -17 q 152 84 231 -17 q 74 356 74 184 q 109 553 74 469 q 211 681 145 636 q 367 726 276 726 q 546 660 471 726 l 546 946 l 667 1003 l 667 0 l 546 0 l 546 56 q 367 -17 476 -17 m 383 96 q 476 121 433 96 q 546 192 519 146 l 546 525 q 476 591 519 567 q 383 615 433 615 q 245 548 294 615 q 196 356 196 481 q 219 220 196 278 q 285 129 243 162 q 383 96 328 96 m 386 -275 q 332 -253 354 -275 q 310 -199 310 -231 q 332 -144 310 -166 q 386 -122 354 -122 q 441 -144 419 -122 q 463 -199 463 -166 q 441 -253 463 -231 q 386 -275 419 -275 z "},"ʤ":{"ha":1357,"x_min":74,"x_max":1268,"o":"m 978 -296 q 792 -238 869 -296 q 679 -74 714 -180 l 785 -31 q 862 -144 814 -106 q 975 -182 910 -182 q 1099 -134 1051 -182 q 1146 -8 1146 -85 q 1083 132 1146 83 q 899 185 1019 181 l 829 254 l 1097 601 l 667 601 l 667 0 l 546 0 l 546 56 q 367 -17 476 -17 q 152 84 231 -17 q 74 356 74 184 q 109 553 74 469 q 211 681 145 636 q 367 726 276 726 q 546 660 471 726 l 546 946 l 667 1003 l 667 710 l 1246 710 l 1246 624 l 972 271 q 1191 187 1113 260 q 1268 -8 1268 114 q 1231 -157 1268 -92 q 1128 -259 1194 -222 q 978 -296 1063 -296 m 383 96 q 476 121 433 96 q 546 192 519 146 l 546 525 q 476 591 519 567 q 383 615 433 615 q 245 548 294 615 q 196 356 196 481 q 219 220 196 278 q 285 129 243 162 q 383 96 328 96 z "},"ɗ":{"ha":831,"x_min":74,"x_max":849,"o":"m 367 -17 q 152 84 231 -17 q 74 356 74 184 q 109 553 74 469 q 211 681 145 636 q 367 726 276 726 q 546 660 471 726 l 546 735 q 605 948 546 872 q 792 1042 664 1023 l 849 950 q 738 918 778 939 q 683 863 699 897 q 667 779 667 829 l 667 0 l 546 0 l 546 56 q 367 -17 476 -17 m 383 96 q 476 121 433 96 q 546 192 519 146 l 546 525 q 476 591 519 567 q 383 615 433 615 q 245 548 294 615 q 196 356 196 481 q 219 220 196 278 q 285 129 243 162 q 383 96 328 96 z "},"ḏ":{"ha":781,"x_min":74,"x_max":667,"o":"m 367 -17 q 152 84 231 -17 q 74 356 74 184 q 109 553 74 469 q 211 681 145 636 q 367 726 276 726 q 546 660 471 726 l 546 946 l 667 1003 l 667 0 l 546 0 l 546 56 q 367 -17 476 -17 m 383 96 q 476 121 433 96 q 546 192 519 146 l 546 525 q 476 591 519 567 q 383 615 433 615 q 245 548 294 615 q 196 356 196 481 q 219 220 196 278 q 285 129 243 162 q 383 96 328 96 m 157 -226 l 157 -124 l 615 -124 l 615 -226 l 157 -226 z "},"ɖ":{"ha":835,"x_min":74,"x_max":849,"o":"m 792 -319 q 605 -225 664 -301 q 546 -12 546 -150 l 546 56 q 367 -17 476 -17 q 152 84 231 -17 q 74 356 74 184 q 109 553 74 469 q 211 681 145 636 q 367 726 276 726 q 546 660 471 726 l 546 946 l 667 1003 l 667 -57 q 683 -141 667 -107 q 738 -196 699 -175 q 849 -228 778 -217 l 792 -319 m 383 96 q 476 121 433 96 q 546 192 519 146 l 546 525 q 476 591 519 567 q 383 615 433 615 q 245 548 294 615 q 196 356 196 481 q 219 220 196 278 q 285 129 243 162 q 383 96 328 96 z "},"ǳ":{"ha":1482,"x_min":74,"x_max":1389,"o":"m 367 -17 q 152 84 231 -17 q 74 356 74 184 q 109 553 74 469 q 211 681 145 636 q 367 726 276 726 q 546 660 471 726 l 546 946 l 667 1003 l 667 0 l 546 0 l 546 56 q 367 -17 476 -17 m 383 96 q 476 121 433 96 q 546 192 519 146 l 546 525 q 476 591 519 567 q 383 615 433 615 q 245 548 294 615 q 196 356 196 481 q 219 220 196 278 q 285 129 243 162 q 383 96 328 96 m 868 0 l 868 89 l 1238 603 l 896 603 l 896 710 l 1389 710 l 1389 624 l 1018 108 l 1388 108 l 1388 0 l 868 0 z "},"ʣ":{"ha":1381,"x_min":74,"x_max":1288,"o":"m 367 -17 q 152 84 231 -17 q 74 356 74 184 q 109 553 74 469 q 211 681 145 636 q 367 726 276 726 q 546 660 471 726 l 546 946 l 667 1003 l 667 710 l 1288 710 l 1288 624 l 917 108 l 1286 108 l 1286 0 l 767 0 l 767 89 l 1136 603 l 667 603 l 667 0 l 546 0 l 546 56 q 367 -17 476 -17 m 383 96 q 476 121 433 96 q 546 192 519 146 l 546 525 q 476 591 519 567 q 383 615 433 615 q 245 548 294 615 q 196 356 196 481 q 219 220 196 278 q 285 129 243 162 q 383 96 328 96 z "},"ǆ":{"ha":1482,"x_min":74,"x_max":1402,"o":"m 367 -17 q 152 84 231 -17 q 74 356 74 184 q 109 553 74 469 q 211 681 145 636 q 367 726 276 726 q 546 660 471 726 l 546 946 l 667 1003 l 667 0 l 546 0 l 546 56 q 367 -17 476 -17 m 383 96 q 476 121 433 96 q 546 192 519 146 l 546 525 q 476 591 519 567 q 383 615 433 615 q 245 548 294 615 q 196 356 196 481 q 219 220 196 278 q 285 129 243 162 q 383 96 328 96 m 868 0 l 868 89 l 1238 603 l 896 603 l 896 710 l 1389 710 l 1389 624 l 1018 108 l 1388 108 l 1388 0 l 868 0 m 1084 800 l 881 1017 l 997 1017 l 1142 892 l 1288 1017 l 1402 1017 l 1199 800 l 1084 800 z "},"e":{"ha":747,"x_min":74,"x_max":682,"o":"m 389 -17 q 221 31 292 -17 q 112 163 150 79 q 74 356 74 247 q 113 556 74 473 q 224 683 153 639 q 389 726 294 726 q 535 691 469 726 q 642 580 602 655 q 682 389 682 506 q 681 350 682 372 q 678 306 680 328 l 197 306 q 229 192 204 241 q 295 116 254 144 q 392 89 336 89 q 475 105 437 89 q 547 154 514 121 l 618 75 q 520 9 578 35 q 389 -17 461 -17 m 196 411 l 560 411 q 540 519 560 472 q 482 594 520 567 q 389 621 444 621 q 257 571 312 621 q 196 411 201 521 z "},"é":{"ha":747,"x_min":74,"x_max":682,"o":"m 389 -17 q 221 31 292 -17 q 112 163 150 79 q 74 356 74 247 q 113 556 74 473 q 224 683 153 639 q 389 726 294 726 q 535 691 469 726 q 642 580 602 655 q 682 389 682 506 q 681 350 682 372 q 678 306 680 328 l 197 306 q 229 192 204 241 q 295 116 254 144 q 392 89 336 89 q 475 105 437 89 q 547 154 514 121 l 618 75 q 520 9 578 35 q 389 -17 461 -17 m 196 411 l 560 411 q 540 519 560 472 q 482 594 520 567 q 389 621 444 621 q 257 571 312 621 q 196 411 201 521 m 304 800 l 501 1017 l 674 1017 l 426 800 l 304 800 z "},"ĕ":{"ha":747,"x_min":74,"x_max":682,"o":"m 389 -17 q 221 31 292 -17 q 112 163 150 79 q 74 356 74 247 q 113 556 74 473 q 224 683 153 639 q 389 726 294 726 q 535 691 469 726 q 642 580 602 655 q 682 389 682 506 q 681 350 682 372 q 678 306 680 328 l 197 306 q 229 192 204 241 q 295 116 254 144 q 392 89 336 89 q 475 105 437 89 q 547 154 514 121 l 618 75 q 520 9 578 35 q 389 -17 461 -17 m 196 411 l 560 411 q 540 519 560 472 q 482 594 520 567 q 389 621 444 621 q 257 571 312 621 q 196 411 201 521 m 388 804 q 254 835 307 804 q 175 917 201 866 q 149 1031 149 969 l 258 1031 q 272 964 258 992 q 316 921 287 936 q 388 906 345 906 q 461 921 431 906 q 505 964 490 936 q 520 1031 520 992 l 628 1031 q 602 917 628 969 q 523 835 576 866 q 388 804 469 804 z "},"ě":{"ha":747,"x_min":74,"x_max":682,"o":"m 389 -17 q 221 31 292 -17 q 112 163 150 79 q 74 356 74 247 q 113 556 74 473 q 224 683 153 639 q 389 726 294 726 q 535 691 469 726 q 642 580 602 655 q 682 389 682 506 q 681 350 682 372 q 678 306 680 328 l 197 306 q 229 192 204 241 q 295 116 254 144 q 392 89 336 89 q 475 105 437 89 q 547 154 514 121 l 618 75 q 520 9 578 35 q 389 -17 461 -17 m 196 411 l 560 411 q 540 519 560 472 q 482 594 520 567 q 389 621 444 621 q 257 571 312 621 q 196 411 201 521 m 331 800 l 128 1017 l 244 1017 l 390 892 l 535 1017 l 649 1017 l 447 800 l 331 800 z "},"ȩ":{"ha":747,"x_min":74,"x_max":682,"o":"m 389 -17 q 221 31 292 -17 q 112 163 150 79 q 74 356 74 247 q 113 556 74 473 q 224 683 153 639 q 389 726 294 726 q 535 691 469 726 q 642 580 602 655 q 682 389 682 506 q 681 350 682 372 q 678 306 680 328 l 197 306 q 229 192 204 241 q 295 116 254 144 q 392 89 336 89 q 475 105 437 89 q 547 154 514 121 l 618 75 q 520 9 578 35 q 389 -17 461 -17 m 196 411 l 560 411 q 540 519 560 472 q 482 594 520 567 q 389 621 444 621 q 257 571 312 621 q 196 411 201 521 m 368 -329 q 291 -316 324 -329 q 238 -283 258 -303 l 306 -236 q 326 -250 314 -247 q 357 -254 338 -254 q 408 -235 388 -254 q 429 -187 429 -217 q 405 -143 429 -161 q 349 -125 381 -125 q 319 -127 332 -125 q 296 -135 306 -129 l 274 -107 l 351 0 l 422 0 l 385 -74 q 500 -109 466 -74 q 535 -189 535 -145 q 489 -290 535 -250 q 368 -329 442 -329 z "},"ê":{"ha":747,"x_min":74,"x_max":682,"o":"m 389 -17 q 221 31 292 -17 q 112 163 150 79 q 74 356 74 247 q 113 556 74 473 q 224 683 153 639 q 389 726 294 726 q 535 691 469 726 q 642 580 602 655 q 682 389 682 506 q 681 350 682 372 q 678 306 680 328 l 197 306 q 229 192 204 241 q 295 116 254 144 q 392 89 336 89 q 475 105 437 89 q 547 154 514 121 l 618 75 q 520 9 578 35 q 389 -17 461 -17 m 196 411 l 560 411 q 540 519 560 472 q 482 594 520 567 q 389 621 444 621 q 257 571 312 621 q 196 411 201 521 m 128 800 l 333 1017 l 447 1017 l 649 800 l 535 800 l 390 925 l 244 800 l 128 800 z "},"ế":{"ha":747,"x_min":74,"x_max":903,"o":"m 389 -17 q 221 31 292 -17 q 112 163 150 79 q 74 356 74 247 q 113 556 74 473 q 224 683 153 639 q 389 726 294 726 q 535 691 469 726 q 642 580 602 655 q 682 389 682 506 q 681 350 682 372 q 678 306 680 328 l 197 306 q 229 192 204 241 q 295 116 254 144 q 392 89 336 89 q 475 105 437 89 q 547 154 514 121 l 618 75 q 520 9 578 35 q 389 -17 461 -17 m 196 411 l 560 411 q 540 519 560 472 q 482 594 520 567 q 389 621 444 621 q 257 571 312 621 q 196 411 201 521 m 128 800 l 333 1017 l 447 1017 l 649 800 l 535 800 l 390 925 l 244 800 l 128 800 m 534 994 l 731 1211 l 903 1211 l 656 994 l 534 994 z "},"ệ":{"ha":747,"x_min":74,"x_max":682,"o":"m 389 -17 q 221 31 292 -17 q 112 163 150 79 q 74 356 74 247 q 113 556 74 473 q 224 683 153 639 q 389 726 294 726 q 535 691 469 726 q 642 580 602 655 q 682 389 682 506 q 681 350 682 372 q 678 306 680 328 l 197 306 q 229 192 204 241 q 295 116 254 144 q 392 89 336 89 q 475 105 437 89 q 547 154 514 121 l 618 75 q 520 9 578 35 q 389 -17 461 -17 m 196 411 l 560 411 q 540 519 560 472 q 482 594 520 567 q 389 621 444 621 q 257 571 312 621 q 196 411 201 521 m 389 -275 q 335 -253 357 -275 q 313 -199 313 -231 q 335 -144 313 -166 q 389 -122 357 -122 q 443 -144 422 -122 q 465 -199 465 -166 q 443 -253 465 -231 q 389 -275 422 -275 m 128 800 l 333 1017 l 447 1017 l 649 800 l 535 800 l 390 925 l 244 800 l 128 800 z "},"ề":{"ha":747,"x_min":74,"x_max":727,"o":"m 389 -17 q 221 31 292 -17 q 112 163 150 79 q 74 356 74 247 q 113 556 74 473 q 224 683 153 639 q 389 726 294 726 q 535 691 469 726 q 642 580 602 655 q 682 389 682 506 q 681 350 682 372 q 678 306 680 328 l 197 306 q 229 192 204 241 q 295 116 254 144 q 392 89 336 89 q 475 105 437 89 q 547 154 514 121 l 618 75 q 520 9 578 35 q 389 -17 461 -17 m 196 411 l 560 411 q 540 519 560 472 q 482 594 520 567 q 389 621 444 621 q 257 571 312 621 q 196 411 201 521 m 128 800 l 333 1017 l 447 1017 l 649 800 l 535 800 l 390 925 l 244 800 l 128 800 m 605 994 l 358 1211 l 530 1211 l 727 994 l 605 994 z "},"ể":{"ha":747,"x_min":74,"x_max":682,"o":"m 389 -17 q 221 31 292 -17 q 112 163 150 79 q 74 356 74 247 q 113 556 74 473 q 224 683 153 639 q 389 726 294 726 q 535 691 469 726 q 642 580 602 655 q 682 389 682 506 q 681 350 682 372 q 678 306 680 328 l 197 306 q 229 192 204 241 q 295 116 254 144 q 392 89 336 89 q 475 105 437 89 q 547 154 514 121 l 618 75 q 520 9 578 35 q 389 -17 461 -17 m 196 411 l 560 411 q 540 519 560 472 q 482 594 520 567 q 389 621 444 621 q 257 571 312 621 q 196 411 201 521 m 128 800 l 333 1017 l 447 1017 l 649 800 l 535 800 l 390 925 l 244 800 l 128 800 m 340 1071 q 351 1134 340 1108 q 388 1181 362 1160 q 409 1202 403 1193 q 415 1219 415 1210 q 390 1242 415 1242 q 335 1197 360 1242 l 267 1242 q 313 1308 279 1283 q 390 1333 347 1333 q 477 1301 442 1333 q 511 1221 511 1269 q 493 1157 511 1181 q 456 1118 474 1133 q 440 1098 443 1109 q 438 1071 438 1087 l 340 1071 z "},"ễ":{"ha":747,"x_min":74,"x_max":682,"o":"m 389 -17 q 221 31 292 -17 q 112 163 150 79 q 74 356 74 247 q 113 556 74 473 q 224 683 153 639 q 389 726 294 726 q 535 691 469 726 q 642 580 602 655 q 682 389 682 506 q 681 350 682 372 q 678 306 680 328 l 197 306 q 229 192 204 241 q 295 116 254 144 q 392 89 336 89 q 475 105 437 89 q 547 154 514 121 l 618 75 q 520 9 578 35 q 389 -17 461 -17 m 196 411 l 560 411 q 540 519 560 472 q 482 594 520 567 q 389 621 444 621 q 257 571 312 621 q 196 411 201 521 m 128 800 l 333 1017 l 447 1017 l 649 800 l 535 800 l 390 925 l 244 800 l 128 800 m 499 1106 q 427 1118 460 1106 q 366 1144 394 1131 q 318 1165 341 1156 q 270 1174 294 1174 q 226 1158 244 1174 q 205 1111 207 1142 l 142 1111 q 157 1201 142 1163 q 201 1258 171 1238 q 280 1278 231 1278 q 354 1265 320 1278 q 417 1238 388 1252 q 464 1217 441 1226 q 509 1208 487 1208 q 554 1225 535 1208 q 574 1272 572 1241 l 637 1272 q 623 1183 637 1220 q 578 1126 608 1146 q 499 1106 548 1106 z "},"ȅ":{"ha":747,"x_min":-51,"x_max":682,"o":"m 389 -17 q 221 31 292 -17 q 112 163 150 79 q 74 356 74 247 q 113 556 74 473 q 224 683 153 639 q 389 726 294 726 q 535 691 469 726 q 642 580 602 655 q 682 389 682 506 q 681 350 682 372 q 678 306 680 328 l 197 306 q 229 192 204 241 q 295 116 254 144 q 392 89 336 89 q 475 105 437 89 q 547 154 514 121 l 618 75 q 520 9 578 35 q 389 -17 461 -17 m 196 411 l 560 411 q 540 519 560 472 q 482 594 520 567 q 389 621 444 621 q 257 571 312 621 q 196 411 201 521 m 196 800 l -51 1017 l 121 1017 l 318 800 l 196 800 m 479 800 l 232 1017 l 404 1017 l 601 800 l 479 800 z "},"ë":{"ha":747,"x_min":74,"x_max":682,"o":"m 389 -17 q 221 31 292 -17 q 112 163 150 79 q 74 356 74 247 q 113 556 74 473 q 224 683 153 639 q 389 726 294 726 q 535 691 469 726 q 642 580 602 655 q 682 389 682 506 q 681 350 682 372 q 678 306 680 328 l 197 306 q 229 192 204 241 q 295 116 254 144 q 392 89 336 89 q 475 105 437 89 q 547 154 514 121 l 618 75 q 520 9 578 35 q 389 -17 461 -17 m 196 411 l 560 411 q 540 519 560 472 q 482 594 520 567 q 389 621 444 621 q 257 571 312 621 q 196 411 201 521 m 508 839 q 455 861 477 839 q 432 915 432 883 q 455 970 432 948 q 508 992 477 992 q 563 970 541 992 q 585 915 585 948 q 563 861 585 883 q 508 839 541 839 m 268 839 q 214 861 237 839 q 192 915 192 883 q 214 970 192 948 q 268 992 237 992 q 323 970 301 992 q 344 915 344 948 q 323 861 344 883 q 268 839 301 839 z "},"ė":{"ha":747,"x_min":74,"x_max":682,"o":"m 389 -17 q 221 31 292 -17 q 112 163 150 79 q 74 356 74 247 q 113 556 74 473 q 224 683 153 639 q 389 726 294 726 q 535 691 469 726 q 642 580 602 655 q 682 389 682 506 q 681 350 682 372 q 678 306 680 328 l 197 306 q 229 192 204 241 q 295 116 254 144 q 392 89 336 89 q 475 105 437 89 q 547 154 514 121 l 618 75 q 520 9 578 35 q 389 -17 461 -17 m 196 411 l 560 411 q 540 519 560 472 q 482 594 520 567 q 389 621 444 621 q 257 571 312 621 q 196 411 201 521 m 389 832 q 335 854 357 832 q 313 908 313 876 q 335 963 313 941 q 389 985 357 985 q 443 963 422 985 q 465 908 465 941 q 443 854 465 876 q 389 832 422 832 z "},"ẹ":{"ha":747,"x_min":74,"x_max":682,"o":"m 389 -17 q 221 31 292 -17 q 112 163 150 79 q 74 356 74 247 q 113 556 74 473 q 224 683 153 639 q 389 726 294 726 q 535 691 469 726 q 642 580 602 655 q 682 389 682 506 q 681 350 682 372 q 678 306 680 328 l 197 306 q 229 192 204 241 q 295 116 254 144 q 392 89 336 89 q 475 105 437 89 q 547 154 514 121 l 618 75 q 520 9 578 35 q 389 -17 461 -17 m 196 411 l 560 411 q 540 519 560 472 q 482 594 520 567 q 389 621 444 621 q 257 571 312 621 q 196 411 201 521 m 389 -275 q 335 -253 357 -275 q 313 -199 313 -231 q 335 -144 313 -166 q 389 -122 357 -122 q 443 -144 422 -122 q 465 -199 465 -166 q 443 -253 465 -231 q 389 -275 422 -275 z "},"è":{"ha":747,"x_min":74,"x_max":682,"o":"m 389 -17 q 221 31 292 -17 q 112 163 150 79 q 74 356 74 247 q 113 556 74 473 q 224 683 153 639 q 389 726 294 726 q 535 691 469 726 q 642 580 602 655 q 682 389 682 506 q 681 350 682 372 q 678 306 680 328 l 197 306 q 229 192 204 241 q 295 116 254 144 q 392 89 336 89 q 475 105 437 89 q 547 154 514 121 l 618 75 q 520 9 578 35 q 389 -17 461 -17 m 196 411 l 560 411 q 540 519 560 472 q 482 594 520 567 q 389 621 444 621 q 257 571 312 621 q 196 411 201 521 m 351 800 l 104 1017 l 276 1017 l 474 800 l 351 800 z "},"ẻ":{"ha":747,"x_min":74,"x_max":682,"o":"m 389 -17 q 221 31 292 -17 q 112 163 150 79 q 74 356 74 247 q 113 556 74 473 q 224 683 153 639 q 389 726 294 726 q 535 691 469 726 q 642 580 602 655 q 682 389 682 506 q 681 350 682 372 q 678 306 680 328 l 197 306 q 229 192 204 241 q 295 116 254 144 q 392 89 336 89 q 475 105 437 89 q 547 154 514 121 l 618 75 q 520 9 578 35 q 389 -17 461 -17 m 196 411 l 560 411 q 540 519 560 472 q 482 594 520 567 q 389 621 444 621 q 257 571 312 621 q 196 411 201 521 m 340 764 q 351 827 340 801 q 388 874 362 853 q 409 895 403 886 q 415 913 415 903 q 390 935 415 935 q 335 890 360 935 l 267 935 q 313 1001 279 976 q 390 1026 347 1026 q 477 994 442 1026 q 511 914 511 962 q 493 850 511 874 q 456 811 474 826 q 440 791 443 802 q 438 764 438 780 l 340 764 z "},"ȇ":{"ha":747,"x_min":74,"x_max":682,"o":"m 389 -17 q 221 31 292 -17 q 112 163 150 79 q 74 356 74 247 q 113 556 74 473 q 224 683 153 639 q 389 726 294 726 q 535 691 469 726 q 642 580 602 655 q 682 389 682 506 q 681 350 682 372 q 678 306 680 328 l 197 306 q 229 192 204 241 q 295 116 254 144 q 392 89 336 89 q 475 105 437 89 q 547 154 514 121 l 618 75 q 520 9 578 35 q 389 -17 461 -17 m 196 411 l 560 411 q 540 519 560 472 q 482 594 520 567 q 389 621 444 621 q 257 571 312 621 q 196 411 201 521 m 149 804 q 175 917 149 866 q 255 1000 201 969 q 390 1031 308 1031 q 513 1004 463 1031 q 590 932 563 977 q 627 832 618 887 q 628 819 628 826 q 628 804 628 812 l 520 804 q 519 819 520 812 q 517 832 519 826 q 478 903 510 878 q 390 929 445 929 q 317 914 347 929 q 273 870 288 899 q 258 804 258 842 l 149 804 z "},"ē":{"ha":747,"x_min":74,"x_max":682,"o":"m 389 -17 q 221 31 292 -17 q 112 163 150 79 q 74 356 74 247 q 113 556 74 473 q 224 683 153 639 q 389 726 294 726 q 535 691 469 726 q 642 580 602 655 q 682 389 682 506 q 681 350 682 372 q 678 306 680 328 l 197 306 q 229 192 204 241 q 295 116 254 144 q 392 89 336 89 q 475 105 437 89 q 547 154 514 121 l 618 75 q 520 9 578 35 q 389 -17 461 -17 m 196 411 l 560 411 q 540 519 560 472 q 482 594 520 567 q 389 621 444 621 q 257 571 312 621 q 196 411 201 521 m 160 838 l 160 940 l 618 940 l 618 838 l 160 838 z "},"ę":{"ha":747,"x_min":74,"x_max":682,"o":"m 410 -329 q 296 -293 342 -329 q 250 -189 250 -256 q 282 -91 250 -135 q 369 -17 313 -47 q 211 37 278 -12 q 109 168 145 86 q 74 356 74 251 q 113 556 74 473 q 224 683 153 639 q 389 726 294 726 q 535 691 469 726 q 642 580 602 655 q 682 389 682 506 q 681 351 682 372 q 678 308 680 329 l 197 308 q 200 289 199 298 q 203 269 201 279 q 270 141 221 188 q 392 93 320 93 q 472 108 433 93 q 544 157 511 124 l 618 75 q 569 35 597 53 q 508 -1 542 17 q 433 -47 469 -23 q 374 -101 397 -70 q 351 -176 351 -133 q 374 -234 351 -216 q 424 -253 396 -253 q 465 -243 449 -253 q 490 -224 481 -234 l 553 -269 q 519 -298 539 -285 q 472 -320 499 -312 q 410 -329 444 -329 m 196 411 l 560 411 q 559 439 560 426 q 556 465 558 453 q 519 558 546 524 q 457 606 492 592 q 389 619 422 619 q 257 570 312 619 q 196 411 201 521 z "}}}
